<svg width="31" height="18" viewBox="0 0 31 18" fill="none" xmlns="http://www.w3.org/2000/svg">
<path d="M24.0433 5.9999C23.3449 5.99521 22.6793 6.10771 22.0558 6.32333L20.5137 3.74994H24.3761C24.9995 3.74994 25.5011 3.24838 25.5011 2.62496V1.12498C25.5011 0.501554 24.9995 0 24.3761 0H22.2527C21.934 0 21.6293 0.135935 21.4184 0.370307L19.6606 2.32496L18.5918 0.543741C18.3856 0.206247 18.02 0 17.6262 0H13.8763C13.4638 0 13.1263 0.337494 13.1263 0.749988V1.49998C13.1263 1.91247 13.4638 2.24996 13.8763 2.24996H16.9887L17.8887 3.74994H10.6842C9.85448 2.66714 8.5795 1.87497 6.00142 1.87497H3.3999C2.7671 1.87497 2.23742 2.39059 2.25148 3.02339C2.26086 3.63275 2.76241 4.12493 3.37646 4.12493H6.00142C7.14984 4.12493 7.81545 4.63586 8.24201 5.28741L7.71233 6.24834C7.10296 6.06553 6.45141 5.98115 5.77642 6.00459C2.62179 6.11709 0.0765166 8.69986 0.00151783 11.8592C-0.0734809 15.2388 2.64054 17.9997 6.00142 17.9997C8.79512 17.9997 11.1435 16.0872 11.8138 13.4998H15.7606C16.4028 13.4998 16.9137 12.9654 16.8856 12.3232C16.7872 10.1155 17.7059 7.93112 19.5199 6.46396L20.1059 7.43894C18.8121 8.54986 17.9918 10.1998 18.0059 12.042C18.0293 15.3044 20.6871 17.9716 23.9496 17.9997C27.3058 18.0325 30.0338 15.3044 30.0057 11.9482C29.9729 8.6858 27.3058 6.02334 24.0433 5.9999ZM6.00142 15.7497C3.93427 15.7497 2.25148 14.067 2.25148 11.9998C2.25148 9.93265 3.93427 8.24987 6.00142 8.24987C6.19829 8.24987 6.39516 8.26393 6.58735 8.29674L4.64207 11.8311C4.22957 12.581 4.77331 13.4998 5.62643 13.4998H9.4373C8.85606 14.8216 7.53421 15.7497 6.00142 15.7497ZM27.7464 12.2061C27.6433 14.1091 26.1058 15.6466 24.2074 15.7451C22.0465 15.8622 20.2512 14.1373 20.2512 11.9998C20.2512 10.9967 20.6449 10.0873 21.2871 9.41703L23.6027 13.2795C23.8136 13.6357 24.2777 13.7482 24.6339 13.5373L25.2761 13.1529C25.6324 12.942 25.7449 12.4779 25.5339 12.1217L23.2558 8.32955C23.4996 8.27799 23.748 8.25455 24.0011 8.25455C26.1386 8.24987 27.8589 10.0451 27.7464 12.2061Z" fill="#AD1B7B"/>
</svg>
