<svg width="486" height="321" viewBox="0 0 486 321" fill="none" xmlns="http://www.w3.org/2000/svg">
<path d="M75.1588 315.356C75.1588 315.356 20.5388 276.466 4.81884 210.256C-10.9012 144.046 13.0888 63.7762 58.6088 23.2562C104.129 -17.2638 186.059 10.0162 222.469 43.9462L258.889 77.8762C258.889 77.8762 293.649 96.8762 339.159 95.2562C384.669 93.6362 425.229 155.676 435.989 204.506C446.749 253.336 421.089 317.876 421.089 317.876L75.1588 315.356Z" fill="#DDECFF"/>
<g style="mix-blend-mode:multiply">
<path d="M49.4832 319.968C49.4832 319.968 11.4132 299.278 1.48318 251.278C-8.44682 203.278 34.5832 159.418 38.7232 135.418C42.8632 111.418 33.7232 81.6278 71.8232 58.4178C109.923 35.2078 177.753 43.5578 203.413 37.7778C229.073 31.9978 258.843 -7.75222 310.173 1.34778C361.503 10.4478 411.173 37.7678 413.613 97.3478C416.053 156.928 397.063 158.588 416.103 190.868C435.143 223.148 442.583 245.488 433.483 278.588C424.383 311.688 405.343 320.778 405.343 320.778L49.4832 319.968Z" fill="#F2E1D1"/>
</g>
<g style="mix-blend-mode:multiply">
<path d="M128.963 309.208C126.603 306.728 91.8626 237.208 130.543 173.488C169.223 109.768 266.323 117.208 304.993 142.038C343.663 166.868 362.623 199.148 366.573 233.038C370.523 266.928 344.463 319.928 344.463 319.928L128.963 309.208Z" fill="#F2E1D1"/>
</g>
<path d="M179.974 115.719C179.974 115.719 177.284 138.279 176.244 140.139L175.244 141.999L170.094 145.519C170.094 145.519 180.024 159.589 192.224 161.859C204.424 164.129 203.404 156.859 203.404 156.859L201.534 152.919L204.024 131.409C204.024 131.409 181.834 121.309 179.974 115.719Z" fill="#FF9D8C"/>
<path d="M163.625 147.379L171.695 143.859C171.695 143.859 176.865 152.339 188.865 157.309C200.865 162.279 201.075 159.379 201.695 157.309C202.035 155.868 201.962 154.36 201.485 152.959L202.375 145.719L207.175 147.319L223.835 282.069L181.005 284.139L163.625 147.379Z" fill="white"/>
<path d="M203.145 145.859C203.145 145.859 206.045 152.549 208.735 168.279C211.425 184.009 213.905 210.479 214.525 228.689C215.145 246.899 215.525 288.479 215.525 288.479H269.525C270.145 288.479 273.875 267.999 273.875 267.999C273.875 267.999 250.315 247.789 249.095 244.479C248.265 242.279 248.685 201.379 245.165 182.549C241.645 163.719 237.095 159.929 227.555 155.219C217.725 150.389 203.145 145.859 203.145 145.859Z" fill="black"/>
<path d="M231.284 264.779C231.152 264.779 231.024 264.726 230.931 264.633C230.837 264.539 230.784 264.412 230.784 264.279C230.784 262.799 230.514 241.779 230.264 221.449C230.014 201.119 229.744 180.109 229.744 178.619C229.744 178.486 229.797 178.359 229.891 178.265C229.984 178.172 230.112 178.119 230.244 178.119C230.377 178.119 230.504 178.172 230.598 178.265C230.691 178.359 230.744 178.486 230.744 178.619C230.744 180.099 231.014 201.119 231.264 221.439C231.514 241.759 231.784 262.789 231.784 264.279C231.782 264.411 231.728 264.537 231.635 264.63C231.542 264.723 231.416 264.776 231.284 264.779Z" fill="#8593B6"/>
<path d="M123.695 259.719L123.285 288.479H186.175C186.175 288.479 188.865 264.069 187.835 261.789C186.805 259.509 123.695 259.719 123.695 259.719Z" fill="black"/>
<g style="mix-blend-mode:multiply">
<path d="M193.693 139.519C196.369 141.53 199.337 143.122 202.493 144.239L203.973 131.449C203.973 131.449 187.343 123.829 181.703 118.159C182.883 124.599 185.783 133.129 193.693 139.519Z" fill="#8E9BBB"/>
</g>
<path d="M223.424 73.7191C226.208 78.8502 227.965 84.4753 228.594 90.2791C229.424 99.3791 228.594 122.759 221.144 132.689C213.694 142.619 198.144 139.689 191.144 133.689C184.684 128.189 178.314 122.109 176.664 110.109C175.014 98.1091 180.174 75.3491 194.864 70.5891C209.554 65.8291 223.424 73.7191 223.424 73.7191Z" fill="#FF9D8C"/>
<path d="M242.095 275.479C242.095 275.479 241.365 275.479 240.255 275.479H239.405L235.725 275.379H234.845C233.545 275.379 232.435 275.509 231.395 275.449C231.175 275.449 230.855 275.449 230.595 275.449C230.485 275.458 230.374 275.458 230.265 275.449C229.783 275.34 229.321 275.158 228.895 274.909C221.877 273.124 214.675 272.164 207.435 272.049C198.195 272.049 189.905 272.719 188.555 271.589C187.205 270.459 186.375 258.829 194.265 258.069L203.965 261.749C203.965 261.749 226.115 259.119 234.235 265.109C242.355 271.099 242.095 275.479 242.095 275.479Z" fill="#FF9D8C"/>
<path d="M231.354 275.379C231.134 275.379 230.814 275.379 230.554 275.379C230.3 274.978 230.016 274.597 229.704 274.239C227.204 271.689 221.164 270.039 218.974 269.509C218.878 269.485 218.795 269.425 218.743 269.341C218.691 269.257 218.673 269.156 218.694 269.059C218.706 269.01 218.727 268.965 218.757 268.924C218.786 268.884 218.823 268.849 218.866 268.823C218.909 268.797 218.956 268.78 219.006 268.773C219.055 268.765 219.106 268.767 219.154 268.779C222.344 269.549 229.154 271.519 231.034 274.779C231.094 274.869 231.254 275.219 231.354 275.379Z" fill="black"/>
<path d="M235.714 275.329C235.424 275.329 235.124 275.329 234.834 275.329C232.104 270.329 227.644 268.929 222.124 267.149L221.794 267.039C221.747 267.023 221.704 266.999 221.667 266.966C221.63 266.934 221.6 266.894 221.578 266.85C221.556 266.806 221.543 266.758 221.54 266.709C221.537 266.66 221.543 266.611 221.559 266.564C221.575 266.517 221.599 266.474 221.632 266.437C221.664 266.4 221.704 266.37 221.748 266.348C221.792 266.326 221.84 266.313 221.889 266.31C221.938 266.307 221.987 266.313 222.034 266.329L222.354 266.439C228.184 268.279 232.884 269.779 235.714 275.329Z" fill="black"/>
<path d="M240.245 275.439H239.395C237.889 272.745 235.829 270.402 233.35 268.564C230.871 266.727 228.03 265.436 225.015 264.779C224.965 264.772 224.917 264.755 224.874 264.728C224.831 264.702 224.794 264.667 224.765 264.626C224.736 264.585 224.715 264.538 224.705 264.489C224.695 264.439 224.695 264.388 224.705 264.339C224.726 264.245 224.782 264.161 224.862 264.106C224.941 264.051 225.039 264.027 225.135 264.039C232.605 265.439 238.635 271.529 240.245 275.439Z" fill="black"/>
<path d="M181.624 99.899C184.976 97.9722 187.678 95.0894 189.384 91.619C191.295 88.06 192.256 84.068 192.174 80.029C192.174 80.029 197.974 79.099 206.664 81.689C215.354 84.279 225.664 87.789 234.384 82.829C243.104 77.869 243.074 69.899 238.834 66.589C234.084 62.879 224.664 65.139 224.664 65.139C224.664 65.139 228.284 61.619 226.314 59.549C224.344 57.479 217.214 60.169 217.214 60.169C217.214 60.169 208.524 53.239 192.074 54.069C175.624 54.899 167.764 66.379 166.834 79.219C165.904 92.059 170.554 104.869 170.554 104.869L181.624 99.899Z" fill="black"/>
<g style="mix-blend-mode:multiply">
<path d="M214.995 103.009C214.065 105.299 214.085 108.009 213.855 110.409C213.675 112.309 213.325 114.519 215.065 115.799C215.895 116.409 219.815 118.059 217.795 119.399C216.87 119.784 215.854 119.898 214.865 119.729C214.255 119.729 213.645 119.729 213.045 119.629C212.445 119.529 211.755 119.389 211.115 119.379C211.035 119.382 210.957 119.411 210.893 119.461C210.83 119.512 210.784 119.581 210.763 119.659C210.742 119.737 210.746 119.82 210.776 119.896C210.805 119.971 210.857 120.035 210.925 120.079C212.095 120.687 213.397 120.996 214.715 120.979C215.793 121.101 216.883 120.91 217.855 120.429C218.21 120.301 218.528 120.087 218.779 119.806C219.031 119.525 219.208 119.186 219.295 118.819C219.298 118.375 219.186 117.937 218.968 117.55C218.751 117.162 218.436 116.838 218.055 116.609C217.275 116.029 216.315 115.759 215.525 115.189C214.425 114.409 214.525 113.089 214.595 111.859C214.775 108.919 215.455 106.029 215.715 103.099C215.715 102.659 215.135 102.659 214.995 103.009Z" fill="#8E9BBB"/>
</g>
<path d="M223.454 109.879C223.144 111.629 221.874 112.879 220.624 112.639C219.374 112.399 218.624 110.819 218.904 109.079C219.184 107.339 220.484 106.079 221.734 106.319C222.984 106.559 223.764 108.139 223.454 109.879Z" fill="black"/>
<path d="M207.625 108.499C207.345 110.379 206.015 111.749 204.625 111.499C203.235 111.249 202.395 109.609 202.675 107.729C202.955 105.849 204.285 104.489 205.675 104.729C207.065 104.969 207.905 106.619 207.625 108.499Z" fill="black"/>
<path d="M219.765 102.699C220.765 102.859 221.715 102.699 222.685 102.759L223.385 102.829H223.305H223.455L223.825 102.899C224.025 102.949 224.225 103.029 224.435 103.079C224.629 103.125 224.826 103.152 225.025 103.159L225.345 103.109H225.145C225.279 103.117 225.412 103.117 225.545 103.109C225.813 103.028 226.04 102.846 226.178 102.602C226.315 102.358 226.354 102.071 226.285 101.799C226.244 101.646 226.173 101.504 226.075 101.379C226.075 101.319 225.985 101.269 225.945 101.219L226.065 101.349L225.935 101.179C225.881 101.089 225.805 101.014 225.715 100.959L225.475 100.779C225.202 100.608 224.901 100.486 224.585 100.419C224.003 100.273 223.406 100.196 222.805 100.189C222.216 100.195 221.628 100.242 221.045 100.329C220.504 100.391 219.986 100.583 219.535 100.889C219.367 100.991 219.233 101.14 219.15 101.318C219.066 101.496 219.037 101.695 219.065 101.889C219.091 102.078 219.171 102.256 219.295 102.401C219.419 102.547 219.583 102.653 219.765 102.709V102.699Z" fill="black"/>
<path d="M208.734 99.929C208.603 99.8491 208.466 99.7789 208.324 99.719C208.214 99.669 207.894 99.499 208.134 99.629L207.864 99.489C207.465 99.2932 207.046 99.1423 206.614 99.039C205.666 98.8027 204.685 98.7349 203.714 98.839C202.701 98.9179 201.72 99.2257 200.844 99.739C200.711 99.8106 200.586 99.8979 200.474 99.999L200.274 100.269V100.179C200.139 100.273 200.029 100.399 199.954 100.545C199.879 100.692 199.841 100.854 199.844 101.019C199.844 101.173 199.886 101.324 199.965 101.456C200.044 101.588 200.158 101.696 200.294 101.769C200.452 101.836 200.622 101.87 200.794 101.87C200.966 101.87 201.136 101.836 201.294 101.769H200.774C201.031 101.824 201.297 101.824 201.554 101.769C201.554 101.769 201.834 101.699 201.654 101.769C201.474 101.839 201.934 101.769 201.984 101.769C202.034 101.769 202.354 101.769 201.984 101.769H202.164L202.634 101.719C203.314 101.719 203.994 101.639 204.684 101.619C205.374 101.599 205.964 101.619 206.604 101.619H207.414C207.504 101.619 207.564 101.619 207.414 101.619H207.584L207.924 101.729C208.147 101.78 208.38 101.754 208.586 101.654C208.792 101.554 208.957 101.386 209.054 101.179C209.137 100.965 209.143 100.728 209.072 100.51C209.001 100.291 208.857 100.104 208.664 99.979L208.734 99.929Z" fill="black"/>
<path d="M213.643 128.689C214.669 126.79 216.319 125.303 218.313 124.479C216.583 124.299 208.403 123.549 206.313 124.719C204.003 126.029 206.743 131.309 211.523 131.569C211.991 131.594 212.461 131.568 212.923 131.489C212.964 130.515 213.209 129.561 213.643 128.689Z" fill="black"/>
<path d="M175.834 117.589C175.834 117.589 176.664 120.789 181.424 124.519C185.039 127.131 188.957 129.293 193.094 130.959L193.644 128.549C193.644 128.549 186.504 125.449 183.194 122.029C179.884 118.609 179.474 116.759 179.474 116.759L175.834 117.589Z" fill="#DEE1EB"/>
<path d="M194.455 126.769C195.897 126.685 197.321 127.124 198.466 128.006C199.61 128.888 200.398 130.153 200.685 131.569C200.955 133.569 199.115 135.729 194.815 133.799C189.465 131.399 190.625 126.939 194.455 126.769Z" fill="black"/>
<path d="M178.834 93.8989C178.834 93.8989 180.484 82.0089 188.454 73.8989C203.664 58.4889 216.594 59.4189 216.594 59.4189C216.594 59.4189 216.484 57.2489 211.594 55.5889C207.034 54.0389 204.974 54.8689 204.974 54.8689C204.974 54.8689 192.454 55.8689 181.904 67.5889C171.354 79.3089 170.244 94.2189 170.244 94.2189L178.834 93.8989Z" fill="#DEE1EB"/>
<path d="M177.693 92.449C167.693 90.759 162.173 98.549 161.763 106.449C161.353 114.349 167.093 120.219 174.693 119.649C191.863 118.309 189.903 94.519 177.693 92.449Z" fill="white"/>
<path d="M172.733 112.009C171.476 112.028 170.238 111.698 169.158 111.056C168.077 110.413 167.196 109.483 166.613 108.369C165.945 107.163 165.618 105.797 165.669 104.419C165.72 103.04 166.147 101.702 166.903 100.549C166.931 100.508 166.966 100.473 167.007 100.446C167.048 100.419 167.094 100.401 167.142 100.391C167.191 100.382 167.24 100.382 167.288 100.392C167.337 100.402 167.382 100.421 167.423 100.449C167.464 100.477 167.499 100.512 167.526 100.553C167.553 100.594 167.572 100.64 167.581 100.688C167.59 100.737 167.59 100.786 167.58 100.834C167.57 100.883 167.551 100.928 167.523 100.969C166.851 102.004 166.473 103.201 166.429 104.434C166.385 105.667 166.677 106.889 167.273 107.969C167.802 108.998 168.616 109.852 169.618 110.428C170.621 111.005 171.768 111.279 172.923 111.219C173.999 111.215 175.058 110.946 176.005 110.435C176.953 109.923 177.759 109.186 178.353 108.289C179.051 107.212 179.488 105.986 179.63 104.711C179.773 103.435 179.616 102.144 179.173 100.939C178.762 99.8082 177.997 98.8403 176.991 98.1791C175.986 97.5179 174.794 97.1987 173.593 97.269C173.544 97.276 173.495 97.2733 173.447 97.2609C173.4 97.2486 173.355 97.2269 173.316 97.1971C173.277 97.1673 173.244 97.13 173.22 97.0874C173.195 97.0448 173.179 96.9978 173.173 96.949C173.162 96.8512 173.189 96.7527 173.248 96.6743C173.308 96.596 173.396 96.5439 173.493 96.529C174.866 96.423 176.236 96.772 177.391 97.522C178.546 98.2721 179.422 99.3815 179.883 100.679C180.358 101.992 180.524 103.397 180.368 104.784C180.212 106.172 179.738 107.504 178.983 108.679C178.323 109.668 177.431 110.482 176.386 111.05C175.341 111.618 174.173 111.923 172.983 111.939L172.733 112.009Z" fill="#818FB3"/>
<path d="M165.484 144.479C165.484 144.479 135.284 151.929 124.734 163.929C114.184 175.929 109.214 235.099 109.004 246.069C108.794 257.039 116.454 261.589 121.004 264.689C125.554 267.789 145.624 273.379 161.764 274.209C177.904 275.039 193.214 274.209 193.214 274.209C193.402 271.173 194.23 268.212 195.644 265.519C197.944 260.719 200.864 259.719 200.864 259.719L187.004 254.719C187.004 254.719 184.574 211.219 180.794 190.219C176.454 165.999 165.484 144.479 165.484 144.479Z" fill="black"/>
<path d="M215.554 247.809C215.488 247.822 215.421 247.822 215.355 247.809C215.234 247.754 215.14 247.654 215.093 247.531C215.046 247.407 215.05 247.27 215.105 247.149C217.935 240.759 220.865 228.229 222.515 219.429L222.654 218.719C223.154 216.129 223.774 212.909 222.534 210.719C221.894 209.589 220.464 207.129 219.094 204.769C217.724 202.409 216.324 199.999 215.944 199.309C215.214 197.959 217.514 194.309 220.834 189.399C221.724 188.059 222.504 186.909 222.954 186.129C224.144 184.129 223.354 182.199 222.444 180.029L222.094 179.219C221.274 177.219 220.334 175.159 219.424 173.219L218.314 170.799C217.824 169.729 217.314 168.649 216.844 167.539C213.983 160.755 210.728 154.143 207.094 147.739C207.028 147.623 207.01 147.486 207.044 147.357C207.078 147.228 207.16 147.118 207.274 147.049C207.331 147.015 207.393 146.993 207.458 146.984C207.523 146.974 207.589 146.978 207.653 146.995C207.716 147.012 207.775 147.041 207.827 147.081C207.879 147.122 207.922 147.172 207.954 147.229C211.629 153.654 214.924 160.289 217.825 167.099L219.295 170.349L220.404 172.759C221.314 174.759 222.254 176.759 223.094 178.829L223.404 179.569C224.334 181.789 225.294 184.079 223.864 186.569C223.394 187.379 222.614 188.569 221.704 189.899C219.974 192.479 216.364 197.849 216.864 198.769C217.234 199.449 218.574 201.769 219.994 204.209C221.414 206.649 222.814 209.039 223.444 210.209C224.864 212.749 224.204 216.159 223.674 218.909L223.534 219.609C222.934 222.819 219.744 239.219 216.054 247.549C216.007 247.638 215.934 247.71 215.845 247.756C215.755 247.802 215.654 247.821 215.554 247.809Z" fill="#8593B6"/>
<path d="M186.094 249.569C186.028 249.57 185.963 249.557 185.903 249.531C185.843 249.505 185.788 249.467 185.744 249.419C183.384 247.049 172.054 227.419 171.204 223.729C170.744 221.729 171.904 216.579 173.024 211.619C173.894 207.779 174.794 203.809 174.544 202.739C174.154 201.129 171.254 198.739 168.454 196.469C165.064 193.699 161.564 190.839 160.884 188.259C160.114 185.329 160.774 166.999 161.214 154.869C161.364 150.499 161.494 147.059 161.494 145.869C161.494 145.736 161.546 145.609 161.64 145.515C161.734 145.422 161.861 145.369 161.994 145.369C162.126 145.369 162.254 145.422 162.347 145.515C162.441 145.609 162.494 145.736 162.494 145.869C162.494 147.109 162.364 150.569 162.214 154.939C161.804 166.279 161.124 185.259 161.854 188.049C162.454 190.309 165.974 193.189 169.084 195.739C172.194 198.289 175.084 200.609 175.514 202.539C175.824 203.839 174.974 207.539 174.004 211.879C173.004 216.509 171.774 221.739 172.184 223.549C173.014 227.159 184.184 246.429 186.454 248.759C186.5 248.805 186.537 248.859 186.563 248.919C186.588 248.979 186.601 249.044 186.601 249.109C186.601 249.174 186.588 249.239 186.563 249.299C186.537 249.359 186.5 249.413 186.454 249.459C186.405 249.501 186.347 249.533 186.285 249.552C186.223 249.571 186.158 249.576 186.094 249.569Z" fill="#8593B6"/>
<path d="M145.423 240.979H145.353C145.288 240.97 145.224 240.949 145.167 240.915C145.109 240.882 145.059 240.837 145.019 240.784C144.979 240.731 144.95 240.671 144.933 240.606C144.917 240.542 144.914 240.475 144.923 240.409C145.293 237.809 151.033 186.009 151.293 182.039C151.303 181.906 151.364 181.783 151.465 181.696C151.565 181.608 151.696 181.565 151.828 181.574C151.961 181.583 152.085 181.645 152.172 181.745C152.259 181.845 152.303 181.976 152.293 182.109C152.023 186.109 146.294 237.949 145.914 240.549C145.897 240.667 145.838 240.776 145.748 240.855C145.658 240.934 145.543 240.978 145.423 240.979Z" fill="#8593B6"/>
<path d="M186.593 255.049C186.531 255.063 186.466 255.063 186.403 255.049C185.133 254.539 179.513 252.639 172.403 250.239C158.043 245.399 138.403 238.769 134.633 236.829C134.516 236.765 134.429 236.659 134.39 236.532C134.351 236.405 134.363 236.267 134.423 236.149C134.485 236.033 134.59 235.946 134.715 235.907C134.84 235.867 134.976 235.879 135.093 235.939C138.763 237.849 159.203 244.739 172.713 249.299C179.843 251.699 185.483 253.599 186.783 254.129C186.905 254.18 187.001 254.277 187.052 254.399C187.102 254.52 187.103 254.657 187.053 254.779C187.009 254.862 186.942 254.931 186.861 254.979C186.78 255.027 186.687 255.051 186.593 255.049Z" fill="#8593B6"/>
<path d="M179.684 275.679C167.054 275.679 142.554 273.399 123.944 266.819C123.878 266.797 123.817 266.763 123.765 266.718C123.712 266.673 123.669 266.618 123.638 266.556C123.607 266.494 123.589 266.427 123.583 266.358C123.578 266.289 123.587 266.22 123.609 266.154C123.63 266.088 123.665 266.028 123.71 265.975C123.755 265.923 123.81 265.88 123.872 265.849C123.933 265.818 124.001 265.799 124.07 265.794C124.139 265.789 124.208 265.797 124.274 265.819C147.784 274.139 180.674 275.559 186.794 274.189C186.859 274.175 186.927 274.173 186.993 274.185C187.059 274.197 187.123 274.221 187.179 274.258C187.236 274.294 187.285 274.341 187.323 274.396C187.362 274.451 187.389 274.513 187.404 274.579C187.418 274.645 187.419 274.713 187.408 274.779C187.396 274.845 187.371 274.908 187.335 274.965C187.299 275.021 187.252 275.07 187.197 275.109C187.141 275.147 187.079 275.175 187.014 275.189C184.591 275.579 182.137 275.743 179.684 275.679Z" fill="#8593B6"/>
<path d="M44.4238 154.238C48.3438 157.688 53.3138 159.898 56.7538 163.888C58.1138 165.458 59.3238 167.128 60.5838 168.778C61.5038 169.978 63.9438 171.958 64.3438 173.468C64.5138 174.128 64.4738 173.228 64.3438 172.568V172.488C64.0038 169.438 63.7538 166.378 63.6438 163.308C63.5338 160.238 63.7338 157.178 63.5438 154.118C63.2638 149.818 61.9238 145.638 58.4038 142.938C56.6838 141.628 54.4638 140.818 52.8838 139.358C51.3038 137.898 51.9838 136.358 52.8838 134.828C53.8387 133.435 54.5645 131.899 55.0338 130.278C55.2682 128.356 54.8032 126.414 53.7238 124.808C51.6738 121.368 47.1238 117.528 42.8238 118.048C39.2338 118.478 38.8238 122.618 38.8838 125.498C38.9438 128.378 39.2038 131.098 39.2338 133.908C39.2638 136.718 38.7738 139.608 38.7338 142.478C38.5438 147.358 40.7938 151.078 44.4238 154.238Z" fill="#B65E0C"/>
<path d="M80.8339 198.998C81.9007 196.415 83.1994 193.935 84.7139 191.588C86.8339 188.338 89.1739 185.168 90.5939 181.538C92.0139 177.908 91.8339 173.838 91.9739 169.928C92.0839 167.058 92.9739 164.188 92.7039 161.298C92.5939 159.918 91.7939 157.688 90.0139 157.908C88.6139 158.088 87.7939 159.818 87.2539 160.908C86.376 162.86 85.618 164.863 84.9839 166.908C84.7139 167.698 84.4539 168.498 84.1139 169.258C83.9139 169.698 83.2739 170.778 82.6839 170.638C81.6839 170.378 82.5839 166.228 82.6839 165.498C83.4439 161.808 84.5939 158.378 84.7439 154.578C84.9739 149.068 84.5539 142.508 79.1639 139.498C77.7539 138.708 75.9739 138.238 74.6339 139.418C73.2939 140.598 72.9339 142.598 72.7439 144.248C72.1439 149.338 73.3339 154.158 74.9739 158.938C76.3139 162.938 77.9139 166.938 78.0339 171.198C78.1439 175.268 76.0339 178.868 75.0339 182.718C74.0211 186.411 73.5959 190.242 73.7739 194.068C73.7739 196.548 73.8539 199.008 74.0339 201.488C74.2039 203.768 74.4039 206.038 74.6839 208.308C74.6839 208.768 74.7839 209.248 74.8539 209.728C73.9739 207.618 73.6639 205.208 72.9439 203.088C71.6539 199.328 70.1639 195.638 68.9439 191.858C67.9999 188.707 66.8884 185.609 65.6139 182.578C64.3439 179.768 62.8239 176.788 60.4639 174.718C59.0839 173.446 57.2803 172.733 55.4039 172.718C54.2169 172.814 53.0472 173.062 51.9239 173.458C51.2942 173.675 50.6195 173.729 49.9634 173.613C49.3072 173.498 48.6914 173.217 48.1739 172.798C44.3139 169.798 43.1739 164.508 40.2839 160.798C38.1839 157.998 33.1239 153.228 29.4239 156.278C27.4239 157.898 26.9039 161.038 27.0139 163.438C27.2825 166.413 28.316 169.269 30.0139 171.728C31.6839 174.408 33.8339 176.808 35.3739 179.558C36.1885 181.089 36.5032 182.838 36.2739 184.558C36.011 186.25 36.1133 187.978 36.5739 189.628C38.3439 194.628 43.8739 193.938 48.1739 194.068C51.2606 194.133 54.3219 194.641 57.2639 195.578C58.8109 196.053 60.2208 196.894 61.3747 198.028C62.5287 199.163 63.3927 200.559 63.8939 202.098C64.7439 204.458 65.2039 207.098 66.8139 209.148C67.5796 210.076 68.557 210.806 69.6639 211.278C71.3439 212.018 76.4539 212.338 76.4939 211.878C76.7667 210.268 77.2127 208.692 77.8239 207.178C78.6839 204.418 79.7039 201.708 80.8339 198.998Z" fill="#B65E0C"/>
<path d="M104.565 198.078C104.125 195.208 104.205 192.078 102.845 189.428C102.82 189.384 102.787 189.346 102.747 189.315C102.708 189.285 102.662 189.263 102.614 189.25C102.566 189.237 102.515 189.233 102.466 189.24C102.416 189.246 102.368 189.262 102.325 189.288C101.325 189.828 101.325 191.398 101.225 192.358C101.095 193.958 101.225 195.558 100.995 197.148C100.66 199.987 99.9883 202.777 98.9948 205.458C98.4882 206.826 97.6564 208.051 96.5711 209.027C95.4858 210.002 94.1795 210.699 92.7648 211.058C90.8162 211.507 88.9703 212.321 87.3248 213.458C85.9206 214.65 84.8232 216.163 84.1248 217.868C82.1248 222.378 81.1248 227.408 80.2348 232.228C79.6048 235.468 79.0948 238.728 78.3048 241.938C77.4423 245.122 76.748 248.35 76.2248 251.608C76.1448 251.778 76.0648 251.938 75.9948 252.108C75.7848 252.598 76.5548 252.858 76.8148 252.458C79.9248 247.668 83.7148 243.378 88.8748 240.748C91.2048 239.558 94.3048 239.308 96.2548 237.438C97.7348 236.018 97.9348 233.848 97.7148 231.908C97.4248 229.368 96.2048 227.278 94.9348 225.118C94.2348 223.928 93.4148 222.648 93.6948 221.208C93.884 220.55 94.2062 219.938 94.6414 219.41C95.0766 218.882 95.6155 218.449 96.2248 218.138C98.3648 216.808 100.875 216.208 102.635 214.288C104.244 212.522 105.203 210.261 105.355 207.878C105.457 204.592 105.192 201.305 104.565 198.078Z" fill="#B65E0C"/>
<path d="M62.1942 214.588C59.4455 211.079 56.146 208.04 52.4242 205.588C50.4242 204.268 45.7542 201.668 44.8042 205.588C44.2542 207.868 46.4842 210.108 47.9542 211.538C50.1642 213.688 52.7142 215.538 54.5742 218.018C52.2742 218.758 49.8642 218.898 47.8542 220.498C45.4842 222.388 44.4142 226.028 46.7742 228.348C47.9956 229.396 49.3762 230.243 50.8642 230.858C52.7242 231.748 54.6142 232.568 56.5142 233.358C60.6242 235.078 64.7842 236.818 68.2842 239.628C71.7842 242.438 75.2142 247.338 75.4942 252.008C75.4942 252.458 75.3542 252.008 75.6142 251.848C75.7642 251.978 76.2542 251.738 76.2542 251.478C76.2617 244.631 74.845 237.857 72.0942 231.588C69.4828 225.547 66.1593 219.84 62.1942 214.588Z" fill="#B65E0C"/>
<path d="M52.7246 149.998C54.2446 153.138 55.8246 156.198 57.5046 159.258C59.1808 162.157 60.6641 165.163 61.9446 168.258C63.4346 172.128 64.9446 175.938 66.5646 179.778C68.2211 183.759 69.6467 187.832 70.8346 191.978C73.1653 200.091 74.7815 208.392 75.6646 216.788C76.1093 221.049 76.2796 225.334 76.1746 229.618C76.0846 232.958 75.7046 236.268 75.3946 239.618C74.9914 243.082 74.8977 246.576 75.1146 250.058C75.3646 252.958 75.8246 256.408 78.1146 258.478C78.205 258.557 78.3201 258.603 78.4403 258.607C78.5606 258.611 78.6785 258.573 78.7741 258.5C78.8696 258.427 78.9368 258.323 78.9643 258.206C78.9917 258.089 78.9777 257.965 78.9246 257.858C76.2446 252.368 76.3946 246.378 76.9246 240.418C77.2146 237.138 77.6046 233.868 77.7146 230.568C77.8448 226.366 77.7045 222.161 77.2946 217.978C76.4587 209.759 74.9401 201.624 72.7546 193.658C71.6554 189.583 70.3198 185.576 68.7546 181.658C67.2046 177.718 65.4046 173.878 63.8946 169.918C61.1646 162.748 56.9946 156.398 53.3146 149.718C53.1246 149.368 52.6246 149.718 52.7846 150.028L52.7246 149.998Z" fill="#B65E0C"/>
<path d="M75.7934 208.638C76.2234 203.418 76.6834 198.398 78.4434 193.418C79.2634 191.098 80.2634 188.838 81.0534 186.508C81.7034 184.578 82.6834 181.938 82.1834 179.888C82.1724 179.836 82.1441 179.79 82.1031 179.757C82.0622 179.723 82.0111 179.705 81.9584 179.705C81.9056 179.705 81.8545 179.723 81.8136 179.757C81.7726 179.79 81.7443 179.836 81.7334 179.888C81.3934 181.058 81.4334 182.338 81.1834 183.538C80.946 184.704 80.6421 185.856 80.2734 186.988C79.5034 189.398 78.4934 191.708 77.6134 194.088C75.8662 198.729 75.1199 203.688 75.4234 208.638C75.4234 208.685 75.4423 208.731 75.4761 208.765C75.5098 208.799 75.5556 208.818 75.6034 208.818C75.6511 208.818 75.6969 208.799 75.7306 208.765C75.7644 208.731 75.7834 208.685 75.7834 208.638H75.7934Z" fill="#B65E0C"/>
<path d="M45.5444 178.648C47.6144 183.648 53.8444 183.938 58.3844 185.058C59.9332 185.479 61.3816 186.207 62.6441 187.198C63.9066 188.189 64.9574 189.423 65.7344 190.828C67.5477 194.006 68.9553 197.399 69.9244 200.928C69.9244 200.928 69.9944 200.928 69.9844 200.928C68.7144 194.928 66.9044 187.708 60.7144 184.928C55.7144 182.688 49.2344 183.808 46.0644 178.458C45.9044 178.198 45.4244 178.368 45.5444 178.678V178.648Z" fill="#B65E0C"/>
<path d="M72.5136 207.848C72.7636 208.178 72.9836 208.528 73.2436 208.848C73.3615 209.011 73.4992 209.158 73.6536 209.288C73.8093 209.446 74.0134 209.548 74.2336 209.578C74.2552 209.579 74.2766 209.574 74.2957 209.564C74.3149 209.554 74.3309 209.539 74.3422 209.52C74.3534 209.502 74.3595 209.481 74.3597 209.459C74.36 209.438 74.3544 209.416 74.3436 209.398C74.2166 209.244 74.0685 209.109 73.9036 208.998L73.4636 208.608C73.1736 208.328 72.9136 208.028 72.6236 207.748C72.6236 207.698 72.4636 207.748 72.5136 207.838V207.848Z" fill="#B65E0C"/>
<path d="M59.5635 223.728C63.1832 226.672 66.3769 230.105 69.0535 233.928C70.3045 235.761 71.4562 237.66 72.5035 239.618C73.5618 241.759 74.4966 243.959 75.3035 246.208C75.3635 246.378 75.6735 246.378 75.6535 246.208C75.1535 241.498 72.1735 237.468 69.7835 233.548C68.5142 231.593 67.0244 229.791 65.3435 228.178C63.6775 226.404 61.8496 224.791 59.8835 223.358C59.6435 223.188 59.3235 223.578 59.5635 223.778V223.728Z" fill="#B65E0C"/>
<path d="M88.0134 218.178C86.2934 219.178 86.2434 221.878 86.2034 223.608C86.1434 226.948 86.9634 230.078 85.5034 233.258C84.1834 236.128 82.0734 238.528 80.4034 241.188C78.8534 243.688 77.3234 246.878 77.4034 249.878C77.4034 250.058 77.6734 250.148 77.7534 249.978C78.2758 248.559 78.7099 247.11 79.0534 245.638C79.5501 244.054 80.2635 242.546 81.1734 241.158C82.7734 238.678 84.7334 236.428 86.0334 233.758C87.3334 231.088 87.1934 228.178 87.1034 225.138C87.0434 223.198 86.8534 220.078 88.4134 218.638C88.6634 218.408 88.3534 218.028 88.0634 218.178H88.0134Z" fill="#B65E0C"/>
<path d="M76.5038 250.188C69.5738 250.098 56.4238 249.998 56.4238 249.998L59.6838 274.258C60.0399 276.898 61.3421 279.319 63.3486 281.072C65.3551 282.825 67.9296 283.79 70.5938 283.788H82.5238C85.1863 283.787 87.7584 282.821 89.7628 281.069C91.7673 279.316 93.068 276.896 93.4238 274.258L96.6438 249.998C96.6438 249.998 83.4238 250.098 76.5038 250.188Z" fill="white"/>
<path d="M411.614 205.608L372.064 283.948L256.754 284.778L292.344 204.498L411.614 205.608Z" fill="#F6F7FA"/>
<path d="M180.225 284.288V278.018H254.865L289.215 202.708H408.615L411.615 205.608H294.995L259.305 284.228C259.305 284.228 180.225 284.078 180.225 284.288Z" fill="#D9DEE8"/>
<path d="M351.733 248.838C350.433 252.748 343.363 255.758 335.943 255.578C328.523 255.398 323.563 252.078 324.863 248.168C326.163 244.258 333.243 241.238 340.663 241.428C348.083 241.618 353.033 244.928 351.733 248.838Z" fill="#D9DEE8"/>
<path d="M259.305 284.728C259.232 284.725 259.16 284.708 259.095 284.678C258.974 284.623 258.88 284.523 258.833 284.399C258.786 284.275 258.79 284.138 258.845 284.018L294.665 205.108H411.665C411.797 205.108 411.924 205.16 412.018 205.254C412.112 205.348 412.165 205.475 412.165 205.608C412.162 205.739 412.108 205.865 412.015 205.958C411.922 206.052 411.796 206.105 411.665 206.108H295.315L259.754 284.438C259.716 284.524 259.653 284.598 259.573 284.649C259.493 284.701 259.4 284.728 259.305 284.728Z" fill="white"/>
<path d="M175.024 290.228H37.8535V320.638H175.024V290.228Z" fill="#596B9B"/>
<path d="M421.044 290.228H174.244V320.638H421.044V290.228Z" fill="#7A89AF"/>
<g style="mix-blend-mode:multiply">
<path d="M175.024 290.228H174.244H37.8535V295.808H174.244H175.024H421.044V290.228H175.024Z" fill="#BDC4D7"/>
</g>
<path d="M181.024 284.228H31.2344V291.678H181.024V284.228Z" fill="#6F7FA9"/>
<path d="M427.044 284.228H180.244V291.678H427.044V284.228Z" fill="#9CA6C3"/>
<path d="M115.62 45H71C68.2386 45 66 47.2386 66 50V72.28C66 75.0414 68.2386 77.28 71 77.28H115.62C118.381 77.28 120.62 75.0414 120.62 72.28V50C120.62 47.2386 118.381 45 115.62 45Z" fill="#B65E0C"/>
<path d="M93.3102 89.9L100.38 73.14H86.2402L93.3102 89.9Z" fill="#B65E0C"/>
<path d="M93.1406 55.6H105.911V57.46L112.181 53.85L105.911 50.24V52.11H93.1406V55.6Z" fill="black"/>
<path d="M112.181 62.9401H99.4006V61.0701L93.1406 64.6801L99.4006 68.2901V66.4201H112.181V62.9401Z" fill="white"/>
<path d="M85.3 66.2301L84.7 66.4501C83.5323 65.0862 82.5628 63.5646 81.82 61.9301C81.1979 60.2545 80.86 58.4869 80.82 56.7001L81.26 56.5101L78.56 50.05C78.0342 50.4567 77.5898 50.9588 77.25 51.53C75.72 54.12 75.87 58.0801 77.41 61.9501C78.95 65.8201 80.59 69.2801 83.59 71.4501C84.2072 71.9606 84.9216 72.3407 85.6898 72.5676C86.4581 72.7945 87.2644 72.8634 88.06 72.7701L85.3 66.2301Z" fill="black"/>
<path d="M87.2404 65.4699L86.4004 65.7699L89.1704 72.3899C89.4575 72.2956 89.7353 72.1751 90.0004 72.0299C90.3447 71.8426 90.6088 71.536 90.7432 71.1678C90.8776 70.7996 90.873 70.395 90.7304 70.0299L89.2904 66.3999C89.138 66.0078 88.8381 65.6909 88.455 65.5171C88.0718 65.3433 87.6359 65.3264 87.2404 65.4699Z" fill="black"/>
<path d="M80.6503 48.88C80.2763 49.0187 79.915 49.1893 79.5703 49.39L82.3303 55.99L83.2603 55.61C83.6448 55.4441 83.9507 55.1365 84.1146 54.7511C84.2784 54.3657 84.2876 53.9321 84.1403 53.54L82.6903 49.88C82.5494 49.4791 82.2566 49.1496 81.875 48.9625C81.4934 48.7754 81.0535 48.7458 80.6503 48.88Z" fill="black"/>
<path d="M472.8 59H361C357.552 59 354.246 60.3696 351.808 62.8076C349.37 65.2456 348 68.5522 348 72V125C348 128.448 349.37 131.754 351.808 134.192C354.246 136.63 357.552 138 361 138H371C371.28 142.8 370.59 150 366.57 159.1C376.534 154.58 384.959 147.246 390.81 138H472.81C476.258 138 479.564 136.63 482.002 134.192C484.44 131.754 485.81 128.448 485.81 125V72C485.81 70.292 485.473 68.6007 484.819 67.0228C484.166 65.4449 483.207 64.0114 481.999 62.8041C480.791 61.5968 479.356 60.6394 477.778 59.9867C476.2 59.334 474.508 58.9987 472.8 59Z" fill="#B65E0C"/>
<path d="M425.11 84.28H369.66C368.929 84.2774 368.229 83.9857 367.712 83.4687C367.195 82.9517 366.903 82.2512 366.9 81.52C366.903 80.7888 367.195 80.0883 367.712 79.5713C368.229 79.0543 368.929 78.7626 369.66 78.76H425.11C425.842 78.7626 426.542 79.0543 427.059 79.5713C427.576 80.0883 427.868 80.7888 427.87 81.52C427.868 82.2512 427.576 82.9517 427.059 83.4687C426.542 83.9857 425.842 84.2774 425.11 84.28Z" fill="white"/>
<path d="M464.87 100.35H368.59C368.142 100.35 367.712 100.172 367.395 99.855C367.078 99.538 366.9 99.1082 366.9 98.66C366.9 98.2118 367.078 97.7819 367.395 97.465C367.712 97.148 368.142 96.97 368.59 96.97H464.87C465.319 96.97 465.748 97.148 466.065 97.465C466.382 97.7819 466.56 98.2118 466.56 98.66C466.56 98.8819 466.517 99.1017 466.432 99.3067C466.347 99.5118 466.222 99.698 466.065 99.855C465.908 100.012 465.722 100.136 465.517 100.221C465.312 100.306 465.092 100.35 464.87 100.35Z" fill="#D2E6FF"/>
<path d="M464.87 109.74H368.59C368.142 109.74 367.712 109.562 367.395 109.245C367.078 108.928 366.9 108.498 366.9 108.05C366.9 107.602 367.078 107.172 367.395 106.855C367.712 106.538 368.142 106.36 368.59 106.36H464.87C465.319 106.36 465.748 106.538 466.065 106.855C466.382 107.172 466.56 107.602 466.56 108.05C466.56 108.272 466.517 108.492 466.432 108.697C466.347 108.902 466.222 109.088 466.065 109.245C465.908 109.402 465.722 109.526 465.517 109.611C465.312 109.696 465.092 109.74 464.87 109.74Z" fill="#D2E6FF"/>
<path d="M443.87 119.74H368.59C368.142 119.74 367.712 119.562 367.395 119.245C367.078 118.928 366.9 118.498 366.9 118.05C366.9 117.602 367.078 117.172 367.395 116.855C367.712 116.538 368.142 116.36 368.59 116.36H443.87C444.319 116.36 444.748 116.538 445.065 116.855C445.382 117.172 445.56 117.602 445.56 118.05C445.56 118.498 445.382 118.928 445.065 119.245C444.748 119.562 444.319 119.74 443.87 119.74Z" fill="#D2E6FF"/>
<path d="M464.11 84.28H437.66C436.929 84.2774 436.229 83.9857 435.712 83.4687C435.195 82.9517 434.903 82.2512 434.9 81.52C434.903 80.7888 435.195 80.0883 435.712 79.5713C436.229 79.0543 436.929 78.7626 437.66 78.76H464.11C464.842 78.7626 465.542 79.0543 466.059 79.5713C466.576 80.0883 466.868 80.7888 466.87 81.52C466.868 82.2512 466.576 82.9517 466.059 83.4687C465.542 83.9857 464.842 84.2774 464.11 84.28Z" fill="white"/>
</svg>
