<svg width="21" height="21" viewBox="0 0 21 21" fill="none" xmlns="http://www.w3.org/2000/svg">
<g clip-path="url(#clip0_113_261)">
<path d="M21 10.5C21 4.69941 16.2967 0 10.5 0C4.69941 0 0 4.69941 0 10.5C0 15.7395 3.83841 20.0839 8.85938 20.8707V13.5358H6.19303V10.5007H8.85938V8.18606C8.85938 5.55516 10.4245 4.10222 12.8238 4.10222C13.9729 4.10222 15.1758 4.30697 15.1758 4.30697V6.89062H13.8495C12.5475 6.89062 12.1406 7.70109 12.1406 8.53125V10.5H15.0524L14.5845 13.5352H12.1406V20.8701C17.1577 20.0832 21 15.7388 21 10.4993V10.5Z" fill="white"/>
</g>
<defs>
<clipPath id="clip0_113_261">
<rect width="21" height="21" fill="white"/>
</clipPath>
</defs>
</svg>
