<svg width="152" height="153" viewBox="0 0 152 153" fill="none" xmlns="http://www.w3.org/2000/svg">
<circle cx="76.0398" cy="76.8719" r="72.3512" stroke="#B65E0C" stroke-width="5.99827"/>
<path d="M101.667 68.91L100.951 67.7134L95.1827 58.063L93.6327 55.4699H96.6537H111.102C112.483 55.4699 113.596 54.3604 113.596 52.9649V47.3399C113.596 45.9444 112.483 44.8349 111.102 44.8349H103.159C102.452 44.8349 101.777 45.1385 101.314 45.6541C101.313 45.6542 101.313 45.6543 101.313 45.6544C101.313 45.6545 101.313 45.6546 101.313 45.6546L94.7383 52.9842L93.1859 54.7149L91.992 52.72L88.0015 46.0522C88.0005 46.0505 87.9994 46.0488 87.9984 46.0471C87.5341 45.2894 86.7197 44.8349 85.8529 44.8349H71.8258C71.2334 44.8349 70.7342 45.3291 70.7342 45.9336V48.7461C70.7342 49.3506 71.2334 49.8448 71.8258 49.8448H83.4683H84.4399L84.9388 50.6785L88.3053 56.3035L89.8577 58.8974H86.8348H59.8852H59.0381L58.5236 58.2243C57.1188 56.3863 55.367 54.826 52.8779 53.7088C50.3693 52.5829 47.0194 51.8662 42.3689 51.8662H32.6376C31.1858 51.8662 30.0249 53.0546 30.0552 54.421L30.0555 54.4327H30.0554C30.0761 55.7777 31.1853 56.8761 32.55 56.8761H42.3689C47.3129 56.8761 50.3129 59.1454 52.185 62.0123L52.7475 62.8736L52.2519 63.775L50.2705 67.3785L49.6027 68.5932L48.2752 68.194C46.1801 67.5639 43.9302 67.27 41.5873 67.3515L101.667 68.91ZM101.667 68.91L102.984 68.4533M101.667 68.91L102.984 68.4533M102.984 68.4533C105.131 67.7089 107.427 67.3188 109.844 67.3349L102.984 68.4533ZM62.7837 92.0325H64.1109H78.8744C80.2946 92.0325 81.4333 90.8483 81.3704 89.409C80.9793 80.6065 84.635 71.8862 91.8572 66.0302L93.3911 64.7865L94.4065 66.4803L96.5982 70.1366L97.3404 71.3747L96.2464 72.3165C91.7699 76.1702 88.9383 81.886 88.9869 88.2664L88.9869 88.2672C89.0679 99.5718 98.2592 108.81 109.521 108.908L109.523 108.908C121.112 109.021 130.542 99.5767 130.446 87.9451C130.333 76.6408 121.108 67.4165 109.845 67.3349L62.7837 92.0325ZM62.7837 92.0325L62.4516 93.3175M62.7837 92.0325L62.4516 93.3175M62.4516 93.3175C60.1338 102.287 52.014 108.908 42.3689 108.908C30.7617 108.908 21.3803 99.3481 21.6389 87.6332M62.4516 93.3175L21.6389 87.6332M109.697 72.3625C108.644 72.3626 107.596 72.4605 106.555 72.681L104.207 73.1791L105.441 75.2384L113.957 89.4498C113.958 89.451 113.958 89.4521 113.959 89.4532C114.279 89.999 114.088 90.6779 113.593 90.9718L113.586 90.976L111.191 92.4132C111.19 92.4138 111.189 92.4144 111.188 92.4149C110.651 92.732 109.978 92.5467 109.684 92.0486L109.679 92.0405L101.018 77.5561L99.8626 75.6246L98.3078 77.2517C95.6118 80.0728 93.958 83.903 93.958 88.1213C93.958 97.1081 101.486 104.37 110.561 103.878C118.544 103.462 124.987 96.9913 125.42 88.9872L125.42 88.9836C125.891 79.9041 118.679 72.3438 109.697 72.3625ZM109.697 72.3625C109.698 72.3625 109.698 72.3625 109.699 72.3625V74.0763M109.697 72.3625C109.696 72.3625 109.696 72.3625 109.695 72.3625L109.699 74.0763M109.699 74.0763C117.694 74.0587 124.129 80.7912 123.708 88.8947L115.432 88.5783L107.851 75.927C107.655 75.9574 107.46 75.993 107.267 76.034L106.911 74.3575L108.381 73.4766L108.758 74.1062C109.07 74.0861 109.383 74.0763 109.699 74.0763ZM21.6389 87.6332C21.8988 76.6863 30.7012 67.7415 41.5869 67.3515L21.6389 87.6332ZM46.0629 75.0593L47.2204 72.951L44.8498 72.5453C44.0205 72.4033 43.1858 72.3449 42.3689 72.3449C33.6859 72.3449 26.6281 79.4269 26.6281 88.1213C26.6281 96.8157 33.6859 103.898 42.3689 103.898C48.8135 103.898 54.3558 99.9861 56.7907 94.4347L57.8443 92.0325H55.2212H40.9662C39.0874 92.0325 37.8656 89.9916 38.7866 88.3128L46.0629 75.0593Z" stroke="#B65E0C" stroke-width="3.42758"/>
<circle cx="36.8583" cy="16.5917" r="16.5771" fill="#E0DDDD"/>
<path d="M32.3254 25.8101V23.6082L38.1669 17.8816C38.7256 17.3175 39.1912 16.8163 39.5637 16.3781C39.9361 15.9399 40.2155 15.5155 40.4017 15.1047C40.5879 14.6939 40.681 14.2557 40.681 13.7901C40.681 13.2588 40.5605 12.8042 40.3195 12.4262C40.0785 12.0428 39.7471 11.7471 39.3254 11.5389C38.9036 11.3308 38.4244 11.2267 37.8876 11.2267C37.3344 11.2267 36.8496 11.3417 36.4334 11.5718C36.0171 11.7964 35.6939 12.1168 35.4639 12.5331C35.2393 12.9493 35.127 13.445 35.127 14.0201H32.2268C32.2268 12.9521 32.4705 12.0237 32.958 11.2349C33.4455 10.4462 34.1165 9.83548 34.9709 9.40277C35.8309 8.97006 36.8168 8.75371 37.9287 8.75371C39.057 8.75371 40.0484 8.96459 40.9029 9.38634C41.7573 9.80809 42.4201 10.3859 42.8911 11.1199C43.3676 11.8539 43.6059 12.6919 43.6059 13.634C43.6059 14.2639 43.4854 14.8828 43.2444 15.4908C43.0034 16.0988 42.5789 16.7725 41.9709 17.5119C41.3684 18.2514 40.5222 19.1469 39.4322 20.1986L36.532 23.1481V23.2631H43.8606V25.8101H32.3254Z" fill="black"/>
</svg>
