<svg width="152" height="153" viewBox="0 0 152 153" fill="none" xmlns="http://www.w3.org/2000/svg">
<circle cx="75.8875" cy="76.8719" r="72.3512" stroke="#B65E0C" stroke-width="5.99827"/>
<path d="M43.1094 85.9583H41.3956V87.6721V98.4723V100.186H43.1094H54.0352H55.749V98.4723V87.6721V85.9583H54.0352H43.1094ZM64.961 85.9583H63.2472V87.6721V98.4723V100.186H64.961H75.8868H77.6006V98.4723V87.6721V85.9583H75.8868H64.961ZM33.8974 47.1712C33.8974 46.6243 34.3132 46.185 34.915 46.185H116.859C117.46 46.185 117.876 46.6243 117.876 47.1712V53.5576H33.8974V47.1712ZM33.8974 106.572V67.7854H117.876V106.572C117.876 107.119 117.46 107.559 116.859 107.559H34.915C34.3132 107.559 33.8974 107.119 33.8974 106.572Z" stroke="#B65E0C" stroke-width="3.42758"/>
<circle cx="30.6767" cy="16.5917" r="16.5771" fill="#E0DDDD"/>
<path d="M24.3339 22.688V20.2643L31.4736 8.98376H33.4947V12.4345H32.2623L27.456 20.0507V20.1821H37.4219V22.688H24.3339ZM32.3609 25.8101V21.9486L32.3938 20.864V8.98376H35.2693V25.8101H32.3609Z" fill="black"/>
</svg>
