<svg width="152" height="153" viewBox="0 0 152 153" fill="none" xmlns="http://www.w3.org/2000/svg">
<circle cx="76.116" cy="76.8719" r="72.3512" stroke="#B65E0C" stroke-width="5.99827"/>
<path d="M99.4403 58.1148L118.893 67.0101V117.526L91.692 105.869M91.692 105.869L60.6052 117.526M91.692 105.869V78.6677M60.6052 117.526L33.4043 105.869V55.3526L52.8335 63.1243M60.6052 117.526V78.6677M76.1486 95.2708C76.1486 95.2708 52.8335 76.7247 52.8335 59.2384C52.8335 44.6665 64.4911 35.9233 76.1486 35.9233C87.8062 35.9233 99.4637 44.6665 99.4637 59.2384C99.4637 76.7247 76.1486 95.2708 76.1486 95.2708ZM80.0345 59.2384C80.0345 57.0921 78.2949 55.3526 76.1486 55.3526C74.0023 55.3526 72.2628 57.0921 72.2628 59.2384C72.2628 61.3847 74.0023 63.1243 76.1486 63.1243C78.2949 63.1243 80.0345 61.3847 80.0345 59.2384Z" stroke="#B65E0C" stroke-width="4.28448"/>
<circle cx="33.1669" cy="16.5917" r="16.5771" fill="#E0DDDD"/>
<path d="M36.9857 8.98376V25.8101H33.9376V11.9497H33.839L29.9035 14.4638V11.6704L34.0855 8.98376H36.9857Z" fill="black"/>
</svg>
