<svg width="152" height="153" viewBox="0 0 152 153" fill="none" xmlns="http://www.w3.org/2000/svg">
<circle cx="75.9637" cy="76.8719" r="72.3512" stroke="#B65E0C" stroke-width="5.99827"/>
<path d="M86.6311 57.1959C86.6311 59.3931 84.8477 61.1745 82.6525 61.1745C80.4572 61.1745 78.6738 59.3931 78.6738 57.1959C78.6738 55.0007 80.4572 53.2173 82.6525 53.2173C84.8477 53.2173 86.6311 55.0007 86.6311 57.1959Z" fill="#B65E0C"/>
<path d="M70.717 57.1959C70.717 59.3931 68.9336 61.1745 66.7384 61.1745C64.5432 61.1745 62.7598 59.3931 62.7598 57.1959C62.7598 55.0007 64.5432 53.2173 66.7384 53.2173C68.9336 53.2173 70.717 55.0007 70.717 57.1959Z" fill="#B65E0C"/>
<path d="M74.6963 77.0937C72.4048 77.0937 70.1136 76.5246 67.8386 75.3871C66.8557 74.8955 66.4574 73.7007 66.9488 72.7178C67.4393 71.7357 68.6321 71.3366 69.618 71.828C73.0352 73.5376 76.3572 73.5376 79.7745 71.828C80.7584 71.3366 81.9521 71.7357 82.4437 72.7178C82.9353 73.7007 82.537 74.8955 81.5539 75.3871C79.2791 76.5246 76.9876 77.0937 74.6963 77.0937Z" fill="#B65E0C"/>
<path d="M52.3752 55.8208C52.2206 57.1534 52.1406 58.5163 52.1406 59.9027C52.1406 75.4744 62.2392 88.0976 74.6967 88.0976C87.1539 88.0976 97.2527 75.4744 97.2527 59.9027C97.2527 59.1155 97.2268 58.3359 97.1761 57.565" stroke="#B65E0C" stroke-width="4.28448" stroke-miterlimit="10" stroke-linecap="round"/>
<path d="M106.071 97.2881C103.061 94.5683 98.6637 92.7104 92.2652 92.7104C85.9157 96.9435 80.4758 99.8688 74.3614 99.8563H74.6101C68.4957 99.8688 63.0559 96.9435 56.7063 92.7104C32.8345 92.7104 36.8131 118.572 36.8131 118.572" stroke="#B65E0C" stroke-width="4.28448" stroke-miterlimit="10" stroke-linecap="round" stroke-linejoin="round"/>
<path d="M111.997 79.3498C113.027 75.0674 116.684 72.1047 120.846 71.7607L118.596 80.9852C118.758 81.0158 124.019 82.2774 124.181 82.3164L126.432 72.942C130.285 75.0411 132.413 79.5326 131.338 84.0028C130.389 87.946 127.209 90.7551 123.461 91.446L116.652 119.748C116.132 121.911 113.956 123.243 111.793 122.723C109.629 122.202 108.297 120.026 108.818 117.863L115.626 89.5611C112.603 87.2416 111.048 83.293 111.997 79.3498Z" stroke="#B65E0C" stroke-width="4.28448" stroke-miterlimit="10" stroke-linecap="round" stroke-linejoin="round"/>
<path d="M69.0117 39.7309V35.132C69.0117 31.8361 71.6836 29.1641 74.9797 29.1641C78.2758 29.1641 80.9476 31.8361 80.9476 35.132V39.7661" stroke="#B65E0C" stroke-width="4.28448" stroke-miterlimit="10" stroke-linecap="round"/>
<path d="M92.2657 92.7104V107.123H56.7031L56.7067 92.7104" stroke="#B65E0C" stroke-width="4.28448" stroke-miterlimit="10" stroke-linecap="round" stroke-linejoin="round"/>
<path d="M101.199 94.2705V118.53" stroke="#B65E0C" stroke-width="4.28448" stroke-miterlimit="10" stroke-linecap="round" stroke-linejoin="round"/>
<path d="M47.4238 94.4399V118.53" stroke="#B65E0C" stroke-width="4.28448" stroke-miterlimit="10" stroke-linecap="round" stroke-linejoin="round"/>
<path d="M67.9929 116.363H56.7031" stroke="#B65E0C" stroke-width="4.28448" stroke-miterlimit="10" stroke-linecap="round" stroke-linejoin="round"/>
<path d="M96.5816 44.275C96.5816 44.275 99.0687 21.8381 76.599 21.7681H73.0114C50.5417 21.8381 53.029 44.275 53.029 44.275" stroke="#B65E0C" stroke-width="4.28448" stroke-miterlimit="10" stroke-linecap="round" stroke-linejoin="round"/>
<path d="M102.218 47.9922C89.9071 38.0801 68.4548 37.0832 54.4132 43.7393C51.9248 44.9189 49.6691 46.3389 47.7383 47.9922" stroke="#B65E0C" stroke-width="4.28448" stroke-miterlimit="10" stroke-linecap="round" stroke-linejoin="round"/>
<path d="M53.8155 44.137C54.9001 43.9044 74.8995 33.4028 96.7013 44.8121L96.6295 45.1C99.6282 56.0384 96.9773 57.5783 96.9773 57.5783L86.5137 44.9971C86.5137 44.9971 83.5731 50.5784 75.2657 49.9567C75.2657 49.9567 76.553 45.3952 75.8493 42.859C75.8493 42.859 62.3015 51.7568 52.6744 55.8562L52.6599 55.8534L52.4184 55.8608C51.5049 56.112 51.0156 47.5944 54.1181 44.275" stroke="#B65E0C" stroke-width="4.28448" stroke-miterlimit="10" stroke-linecap="round" stroke-linejoin="round"/>
<circle cx="30.7529" cy="16.5917" r="16.5771" fill="#E0DDDD"/>
<path d="M31.5047 26.0401C30.3216 26.0401 29.27 25.8374 28.3498 25.4321C27.4351 25.0268 26.7121 24.4626 26.1808 23.7396C25.6495 23.0166 25.3674 22.1813 25.3346 21.2338H28.4238C28.4511 21.6884 28.6018 22.0855 28.8756 22.4251C29.1495 22.7592 29.5137 23.0194 29.9684 23.2056C30.423 23.3918 30.9324 23.4849 31.4965 23.4849C32.099 23.4849 32.6331 23.3809 33.0986 23.1727C33.5642 22.9591 33.9285 22.6633 34.1914 22.2854C34.4543 21.9075 34.583 21.472 34.5775 20.9791C34.583 20.4697 34.4515 20.0205 34.1832 19.6317C33.9148 19.2428 33.5259 18.9388 33.0165 18.7197C32.5126 18.5006 31.9046 18.391 31.1925 18.391H29.7054V16.0413H31.1925C31.7786 16.0413 32.2907 15.9399 32.7289 15.7373C33.1726 15.5346 33.5204 15.2498 33.7724 14.8828C34.0243 14.5104 34.1475 14.0804 34.1421 13.5929C34.1475 13.1164 34.0407 12.7029 33.8216 12.3523C33.608 11.9963 33.304 11.7197 32.9097 11.5225C32.5208 11.3253 32.0634 11.2267 31.5376 11.2267C31.0227 11.2267 30.5462 11.3198 30.108 11.5061C29.6698 11.6923 29.3166 11.9579 29.0482 12.303C28.7798 12.6426 28.6374 13.0479 28.6209 13.519H25.6878C25.7097 12.5769 25.9809 11.7498 26.5012 11.0377C27.027 10.3202 27.7281 9.76153 28.6045 9.36169C29.4809 8.95637 30.4641 8.75371 31.554 8.75371C32.6769 8.75371 33.6519 8.96459 34.4789 9.38634C35.3115 9.80261 35.9551 10.364 36.4097 11.0706C36.8643 11.7772 37.0916 12.5577 37.0916 13.4122C37.0971 14.3597 36.8177 15.1539 36.2536 15.7948C35.6949 16.4356 34.9609 16.8547 34.0517 17.0518V17.1833C35.2348 17.3476 36.1413 17.7858 36.7712 18.4978C37.4065 19.2044 37.7215 20.0835 37.716 21.1352C37.716 22.0773 37.4476 22.9208 36.9109 23.6657C36.3796 24.4051 35.6456 24.9857 34.709 25.4075C33.7778 25.8292 32.7098 26.0401 31.5047 26.0401Z" fill="black"/>
</svg>
