<svg width="18" height="18" viewBox="0 0 18 18" fill="none" xmlns="http://www.w3.org/2000/svg">
<path d="M1 18H17C17.55 18 18 17.55 18 17C18 16.45 17.55 16 17 16H1C0.45 16 0 16.45 0 17C0 17.55 0.45 18 1 18ZM7 14H17C17.55 14 18 13.55 18 13C18 12.45 17.55 12 17 12H7C6.45 12 6 12.45 6 13C6 13.55 6.45 14 7 14ZM1 10H17C17.55 10 18 9.55 18 9C18 8.45 17.55 8 17 8H1C0.45 8 0 8.45 0 9C0 9.55 0.45 10 1 10ZM7 6H17C17.55 6 18 5.55 18 5C18 4.45 17.55 4 17 4H7C6.45 4 6 4.45 6 5C6 5.55 6.45 6 7 6ZM0 1C0 1.55 0.45 2 1 2H17C17.55 2 18 1.55 18 1C18 0.45 17.55 0 17 0H1C0.45 0 0 0.45 0 1Z" fill="#B65E0C"/>
</svg>
