<svg width="427" height="426" viewBox="0 0 427 426" fill="none" xmlns="http://www.w3.org/2000/svg">
<g clip-path="url(#clip0_68_1498)">
<path d="M373.711 364.457C365.027 373.585 356.819 379.467 350.329 384.117C274.054 438.771 183.8 422.84 164.616 418.95C136.293 413.203 81.5406 402.098 41.956 355.611C-17.9305 285.278 -8.6053 174.471 37.8426 101.327C46.3406 87.9476 91.2239 13.6928 182.45 1.77999C237.659 -5.42702 302.014 9.1087 348.619 48.1014C446.453 129.951 439.487 295.309 373.711 364.457Z" fill="url(#paint0_linear_68_1498)"/>
<path d="M299.626 323.992C363.541 260.162 363.541 156.674 299.626 92.845C235.71 29.0155 132.083 29.0156 68.1669 92.845C4.25133 156.674 4.25135 260.162 68.1669 323.992C132.083 387.821 235.71 387.821 299.626 323.992Z" fill="#FFD4AC"/>
<path d="M183.897 347.913C261.041 347.913 323.579 285.459 323.579 208.419C323.579 131.379 261.041 68.9253 183.897 68.9253C106.753 68.9253 44.2148 131.379 44.2148 208.419C44.2148 285.459 106.753 347.913 183.897 347.913Z" fill="url(#paint1_linear_68_1498)"/>
<path d="M183.895 354.901C103.018 354.901 37.2168 289.19 37.2168 208.419C37.2168 127.648 103.018 61.939 183.895 61.939C264.772 61.939 330.574 127.649 330.574 208.419C330.574 289.189 264.773 354.901 183.895 354.901ZM183.895 68.9254C106.873 68.9254 44.2141 131.502 44.2141 208.419C44.2141 285.336 106.873 347.914 183.895 347.914C260.916 347.914 323.577 285.338 323.577 208.419C323.577 131.5 260.916 68.9208 183.895 68.9208V68.9254Z" fill="white"/>
<path d="M244.111 268.552C277.367 235.341 277.367 181.496 244.111 148.285C210.855 115.074 156.937 115.074 123.682 148.285C90.4259 181.496 90.4259 235.341 123.682 268.552C156.937 301.763 210.855 301.763 244.111 268.552Z" fill="url(#paint2_linear_68_1498)"/>
<path d="M183.895 300.449C133.082 300.449 91.7422 259.165 91.7422 208.419C91.7422 157.673 133.082 116.389 183.895 116.389C234.707 116.389 276.048 157.673 276.048 208.417C276.048 259.162 234.709 300.449 183.895 300.449ZM183.895 130.363C140.797 130.363 105.74 165.379 105.74 208.413C105.74 251.446 140.803 286.47 183.895 286.47C226.986 286.47 262.057 251.454 262.057 208.42C262.057 165.387 226.994 130.363 183.895 130.363Z" fill="white"/>
<path d="M207.226 231.716C220.11 218.849 220.11 197.988 207.226 185.121C194.342 172.254 173.452 172.254 160.568 185.121C147.683 197.988 147.683 218.849 160.568 231.716C173.452 244.583 194.342 244.583 207.226 231.716Z" fill="#FF928E"/>
<path d="M183.895 248.355C161.845 248.355 143.906 230.44 143.906 208.419C143.906 186.398 161.845 168.485 183.895 168.485C205.944 168.485 223.884 186.399 223.884 208.419C223.884 230.439 205.946 248.355 183.895 248.355ZM183.895 182.457C169.56 182.457 157.899 194.104 157.899 208.419C157.899 222.734 169.56 234.381 183.895 234.381C198.229 234.381 209.891 222.736 209.891 208.419C209.891 194.102 198.229 182.457 183.895 182.457Z" fill="white"/>
<path d="M208.478 184.296L211.953 187.766L343.543 56.3535L340.068 52.8829L208.478 184.296Z" fill="url(#paint3_linear_68_1498)"/>
<path d="M210.933 175.924C212.927 173.934 222.326 183.32 220.331 185.31L185.468 212.678C184.181 213.689 182.513 212.023 183.524 210.736L210.933 175.924Z" fill="url(#paint4_linear_68_1498)"/>
<path d="M343.461 56.4314L361.164 58.1871L336.862 82.4615C332.93 86.3871 328.174 89.3923 322.938 91.2603C317.702 93.1283 312.117 93.8125 306.584 93.2637L343.461 56.4314Z" fill="#91B3FA"/>
<path d="M339.985 52.961L338.226 35.2805L313.923 59.5519C309.991 63.4791 306.982 68.2288 305.111 73.4585C303.241 78.6882 302.556 84.2673 303.106 89.7933L339.985 52.961Z" fill="#91B3FA"/>
<g opacity="0.3">
<path d="M96.2737 26.6054C96.1561 26.7229 96.0165 26.8162 95.8628 26.8799C95.7091 26.9435 95.5443 26.9763 95.3779 26.9763C95.2115 26.9763 95.0467 26.9435 94.893 26.8799C94.7393 26.8162 94.5997 26.7229 94.4821 26.6054C93.5223 25.6453 92.5016 24.7127 91.461 23.8333C91.2075 23.6202 91.0478 23.3161 91.0165 22.9866C90.9852 22.6571 91.0846 22.3285 91.2934 22.0715L91.3087 22.0517C91.4158 21.9247 91.5469 21.8201 91.6946 21.7437C91.8422 21.6674 92.0034 21.6208 92.1691 21.6067C92.3348 21.5925 92.5016 21.6111 92.6601 21.6614C92.8185 21.7116 92.9655 21.7926 93.0927 21.8996C94.1926 22.8246 95.2621 23.8075 96.2737 24.8177C96.4949 25.0384 96.6264 25.3332 96.6428 25.6451C96.6591 25.957 96.5591 26.2639 96.3621 26.5065C96.3362 26.5399 96.3057 26.5673 96.2737 26.6054ZM86.0831 19.9111C84.9283 19.1823 83.7324 18.4961 82.5258 17.8708C82.3773 17.7944 82.2454 17.6895 82.1376 17.5622C82.0297 17.4349 81.948 17.2876 81.8971 17.1287C81.8463 16.9698 81.8273 16.8025 81.8412 16.6363C81.855 16.4701 81.9016 16.3082 81.9781 16.16C82.0546 16.0117 82.1596 15.88 82.2872 15.7723C82.4147 15.6646 82.5622 15.583 82.7212 15.5322C82.8803 15.4814 83.0479 15.4624 83.2143 15.4763C83.3807 15.4901 83.5428 15.5366 83.6913 15.613C84.9603 16.2703 86.2202 16.9914 87.4344 17.7582C87.575 17.847 87.6968 17.9626 87.7926 18.0983C87.8885 18.2341 87.9566 18.3874 87.9931 18.5494C88.0296 18.7115 88.0338 18.8792 88.0053 19.0428C87.9769 19.2065 87.9165 19.363 87.8275 19.5033C87.8012 19.5457 87.7722 19.5864 87.7407 19.625C87.5461 19.8656 87.2701 20.0268 86.9648 20.0781C86.6594 20.1294 86.3458 20.0673 86.0831 19.9035V19.9111ZM76.4151 15.2266C75.1308 14.7702 73.8115 14.3715 72.4921 14.0307C72.3297 13.9906 72.1768 13.9187 72.0423 13.8192C71.9078 13.7197 71.7944 13.5945 71.7087 13.4509C71.623 13.3073 71.5666 13.1482 71.5429 12.9828C71.5191 12.8173 71.5285 12.6488 71.5704 12.4869C71.6123 12.3251 71.6859 12.1732 71.787 12.04C71.8881 11.9067 72.0146 11.7948 72.1592 11.7107C72.3039 11.6266 72.4638 11.572 72.6297 11.5501C72.7957 11.5281 72.9643 11.5392 73.1259 11.5828C74.5153 11.9418 75.9047 12.3648 77.2576 12.841C77.5744 12.9526 77.8338 13.1852 77.9788 13.4878C78.1238 13.7904 78.1425 14.1381 78.0308 14.4545C77.919 14.7708 77.6861 15.0299 77.3831 15.1747C77.0801 15.3195 76.7319 15.3382 76.4151 15.2266ZM65.9396 12.8182C64.5853 12.666 63.208 12.5671 61.8476 12.5291C61.6813 12.5245 61.5176 12.4872 61.3658 12.4195C61.2139 12.3517 61.0769 12.2547 60.9626 12.1341C60.8483 12.0134 60.7589 11.8714 60.6996 11.7163C60.6402 11.5611 60.612 11.3958 60.6166 11.2298C60.6212 11.0638 60.6585 10.9003 60.7264 10.7486C60.7943 10.597 60.8914 10.4602 61.0122 10.346C61.133 10.2319 61.2751 10.1426 61.4305 10.0833C61.5859 10.024 61.7514 9.99589 61.9177 10.0005C63.3513 10.04 64.8016 10.1435 66.2261 10.3048C66.5598 10.3427 66.8648 10.5115 67.0739 10.774C67.2831 11.0365 67.3792 11.3712 67.3412 11.7045C67.3033 12.0378 67.1343 12.3424 66.8714 12.5512C66.6086 12.7601 66.2734 12.8561 65.9396 12.8182ZM55.1884 12.8014C53.8371 12.9536 52.4721 13.1605 51.1344 13.4252C50.8049 13.4902 50.4631 13.4218 50.1841 13.235C49.9051 13.0483 49.7118 12.7585 49.6468 12.4294C49.5817 12.1004 49.6502 11.759 49.8372 11.4804C50.0242 11.2018 50.3144 11.0087 50.6439 10.9438C52.0531 10.6654 53.4882 10.4447 54.9096 10.288C55.0751 10.2694 55.2426 10.2836 55.4026 10.3297C55.5626 10.3759 55.7119 10.4531 55.8419 10.5569C55.972 10.6608 56.0802 10.7892 56.1605 10.9349C56.2408 11.0806 56.2915 11.2407 56.3097 11.4059C56.3279 11.5712 56.3133 11.7385 56.2668 11.8981C56.2202 12.0578 56.1425 12.2067 56.0382 12.3363C55.9339 12.4659 55.805 12.5737 55.6589 12.6536C55.5129 12.7334 55.3525 12.7836 55.1869 12.8014H55.1884ZM44.7023 15.1566C43.415 15.6009 42.1322 16.1075 40.8936 16.6598C40.7409 16.7319 40.5752 16.7729 40.4065 16.7802C40.2377 16.7875 40.0691 16.761 39.9107 16.7023C39.7523 16.6437 39.6072 16.554 39.484 16.4385C39.3609 16.323 39.262 16.1841 39.1934 16.0299C39.1247 15.8758 39.0876 15.7094 39.0842 15.5407C39.0809 15.3721 39.1113 15.2044 39.1738 15.0476C39.2362 14.8908 39.3294 14.7481 39.4479 14.6278C39.5664 14.5075 39.7078 14.4121 39.8637 14.3472C41.1739 13.766 42.5268 13.2335 43.8812 12.7664C44.1949 12.6716 44.5332 12.7019 44.8249 12.8511C45.1167 13.0003 45.3391 13.2566 45.4455 13.5662C45.5519 13.8758 45.5339 14.2146 45.3953 14.5112C45.2566 14.8078 45.0082 15.0392 44.7023 15.1566ZM12.4045 49.2868C12.2435 49.245 12.0923 49.1719 11.9596 49.0718C11.8269 48.9716 11.7153 48.8463 11.6311 48.703C11.547 48.5598 11.4919 48.4013 11.469 48.2368C11.4462 48.0722 11.456 47.9048 11.498 47.7441C11.8591 46.3596 12.2857 44.972 12.7656 43.6195C12.8779 43.3034 13.1114 43.0447 13.4146 42.9005C13.5648 42.8291 13.7276 42.7879 13.8937 42.7793C14.0598 42.7707 14.226 42.7949 14.3827 42.8504C14.5395 42.906 14.6837 42.9918 14.8073 43.103C14.9308 43.2142 15.0312 43.3487 15.1027 43.4986C15.1742 43.6486 15.2155 43.8112 15.2241 43.977C15.2327 44.1429 15.2085 44.3089 15.1528 44.4654C14.6958 45.7495 14.2921 47.0671 13.9493 48.3816C13.9042 48.5565 13.8215 48.7195 13.7071 48.8593C13.5534 49.048 13.3485 49.1884 13.1169 49.2636C12.8853 49.3389 12.6369 49.3459 12.4014 49.2838L12.4045 49.2868ZM35.0099 19.7711C33.8551 20.4892 32.7171 21.2682 31.6278 22.0837C31.4947 22.1836 31.3433 22.2563 31.1821 22.2978C31.0209 22.3392 30.8531 22.3486 30.6883 22.3252C30.5235 22.3019 30.3649 22.2464 30.2215 22.1619C30.0782 22.0774 29.953 21.9655 29.8529 21.8326C29.7529 21.6998 29.68 21.5485 29.6385 21.3875C29.597 21.2266 29.5877 21.059 29.611 20.8944C29.6344 20.7298 29.6899 20.5714 29.7746 20.4283C29.8592 20.2852 29.9713 20.1601 30.1043 20.0602C31.25 19.2006 32.4489 18.3866 33.6647 17.6259C33.9189 17.4663 34.2216 17.4022 34.5188 17.4449C34.8159 17.4877 35.0882 17.6345 35.287 17.8592C35.4858 18.0838 35.5982 18.3718 35.6041 18.6716C35.61 18.9713 35.509 19.2634 35.3192 19.4957C35.2309 19.6045 35.1254 19.698 35.0069 19.7726L35.0099 19.7711ZM16.102 38.9C15.8041 38.7448 15.5801 38.4778 15.4792 38.1577C15.3784 37.8376 15.409 37.4906 15.5642 37.193C16.2269 35.9256 16.9536 34.6689 17.7214 33.4579C17.8057 33.308 17.9197 33.1769 18.0565 33.0725C18.1932 32.9681 18.3499 32.8927 18.5168 32.8508C18.6837 32.8089 18.8575 32.8015 19.0274 32.8289C19.1973 32.8563 19.3598 32.9181 19.505 33.0104C19.6502 33.1027 19.7751 33.2235 19.8719 33.3657C19.9687 33.5078 20.0356 33.6681 20.0682 33.8368C20.1009 34.0056 20.0988 34.1793 20.062 34.3472C20.0253 34.5151 19.9546 34.6738 19.8543 34.8135C19.1246 35.9637 18.4344 37.158 17.8052 38.363C17.7651 38.4381 17.7182 38.5094 17.6651 38.576C17.4812 38.8007 17.2256 38.9556 16.941 39.0146C16.6565 39.0736 16.3602 39.0332 16.102 38.9ZM26.5896 26.438C25.6253 27.3965 24.6898 28.4159 23.8093 29.4489C23.5951 29.7074 23.2869 29.8703 22.9525 29.9018C22.6181 29.9333 22.2848 29.8309 22.026 29.617C21.7672 29.4032 21.6041 29.0954 21.5725 28.7614C21.541 28.4275 21.6435 28.0946 21.8577 27.8362L21.876 27.8149C22.8023 26.721 23.7864 25.6545 24.8011 24.6458C25.0305 24.4169 25.3391 24.2847 25.6632 24.2764C25.9873 24.2681 26.3023 24.3843 26.5432 24.601C26.7841 24.8178 26.9325 25.1186 26.9579 25.4414C26.9832 25.7642 26.8836 26.0844 26.6795 26.3361C26.6521 26.3711 26.6216 26.4045 26.5896 26.438Z" fill="#91B3FA"/>
<path d="M12.2506 57.6166C12.4131 57.4168 12.5104 57.172 12.5294 56.9153C12.5782 56.2641 12.6406 55.6038 12.7153 54.9526C12.7342 54.7876 12.7204 54.6205 12.6746 54.4608C12.6288 54.3011 12.552 54.1519 12.4485 54.0219C12.345 53.8918 12.2169 53.7834 12.0715 53.7028C11.926 53.6222 11.7661 53.571 11.6009 53.5521C11.4356 53.5333 11.2682 53.5471 11.1083 53.5928C10.9484 53.6385 10.7991 53.7152 10.6689 53.8186C10.5386 53.9219 10.4301 54.0498 10.3494 54.1951C10.2687 54.3403 10.2174 54.5 10.1985 54.6651C10.1193 55.3497 10.0461 56.0435 10.0035 56.7281C9.98348 56.9968 10.05 57.2649 10.1932 57.4932C10.3365 57.7216 10.5491 57.8982 10.8 57.9974C11.0508 58.0966 11.3269 58.1132 11.5878 58.0447C11.8488 57.9762 12.081 57.8262 12.2506 57.6166Z" fill="#91B3FA"/>
</g>
<g opacity="0.3">
<path d="M25.4406 96.002C25.6304 95.7687 25.7305 95.4755 25.7229 95.1751C25.7154 94.8747 25.6007 94.5868 25.3995 94.3634C24.9638 93.8781 24.5311 93.3745 24.1137 92.8694C24.0078 92.7412 23.8776 92.6351 23.7306 92.5572C23.5836 92.4792 23.4227 92.431 23.257 92.4152C23.0914 92.3994 22.9242 92.4163 22.7651 92.4649C22.606 92.5136 22.458 92.5932 22.3297 92.699C22.2013 92.8047 22.0951 92.9347 22.0171 93.0815C21.9391 93.2283 21.8907 93.389 21.8749 93.5545C21.8591 93.7199 21.876 93.8868 21.9248 94.0457C21.9735 94.2046 22.0531 94.3524 22.1591 94.4805C22.5993 95.013 23.0549 95.5455 23.5134 96.0552C23.738 96.3044 24.0524 96.4546 24.3876 96.4728C24.7228 96.4911 25.0516 96.3759 25.302 96.1526C25.3526 96.1066 25.399 96.0562 25.4406 96.002Z" fill="white"/>
<path d="M98.8619 96.1191C98.751 96.2429 98.6167 96.3436 98.4668 96.4156C98.3169 96.4876 98.1543 96.5293 97.9882 96.5385C97.8221 96.5477 97.6558 96.5241 97.4988 96.4691C97.3419 96.4141 97.1973 96.3288 97.0734 96.218C96.9494 96.1072 96.8485 95.9732 96.7765 95.8234C96.7044 95.6737 96.6626 95.5113 96.6534 95.3454C96.6442 95.1796 96.6679 95.0135 96.7229 94.8568C96.778 94.7 96.8634 94.5557 96.9743 94.4319C97.8625 93.4414 98.7233 92.3977 99.5414 91.3175C99.7483 91.0641 100.046 90.9006 100.371 90.8613C100.696 90.8221 101.023 90.9101 101.285 91.107C101.546 91.3039 101.721 91.5944 101.773 91.9173C101.824 92.2402 101.749 92.5706 101.562 92.8389C101.207 93.3075 100.846 93.7675 100.478 94.2189C99.9558 94.8685 99.4119 95.506 98.8619 96.1191ZM103.617 87.5611C103.472 87.4797 103.344 87.3706 103.241 87.24C103.139 87.1094 103.063 86.9598 103.018 86.7999C102.973 86.64 102.96 86.4728 102.98 86.3079C103 86.143 103.052 85.9836 103.134 85.8388C103.792 84.6704 104.407 83.4609 104.962 82.2452C105.031 82.0941 105.129 81.958 105.251 81.8447C105.372 81.7314 105.515 81.6431 105.671 81.5849C105.826 81.5267 105.992 81.4997 106.158 81.5054C106.325 81.5112 106.488 81.5496 106.639 81.6184C106.791 81.6872 106.927 81.7852 107.04 81.9066C107.154 82.028 107.242 82.1706 107.301 82.3261C107.359 82.4817 107.386 82.6472 107.38 82.8131C107.374 82.9791 107.336 83.1423 107.267 83.2935C106.682 84.5745 106.035 85.848 105.341 87.0773C105.307 87.1405 105.266 87.2006 105.221 87.2568C105.032 87.4877 104.768 87.6447 104.474 87.7004C104.181 87.756 103.877 87.7067 103.617 87.5611ZM93.9167 100.927C92.8503 101.84 91.7138 102.713 90.565 103.532C90.4296 103.628 90.2765 103.697 90.1144 103.734C89.9523 103.771 89.7845 103.776 89.6204 103.749C89.4564 103.721 89.2994 103.662 89.1584 103.574C89.0174 103.486 88.8951 103.371 88.7986 103.236C88.702 103.1 88.6331 102.947 88.5958 102.786C88.5584 102.624 88.5534 102.456 88.5809 102.292C88.6084 102.128 88.668 101.972 88.7562 101.831C88.8443 101.69 88.9595 101.568 89.0949 101.472C90.1888 100.694 91.2598 99.8618 92.2805 98.9977C92.5209 98.7939 92.8287 98.687 93.1439 98.6979C93.459 98.7089 93.7587 98.8369 93.9843 99.0568C94.2099 99.2768 94.3452 99.573 94.3637 99.8873C94.3822 100.202 94.2826 100.512 94.0843 100.756C94.034 100.818 93.9779 100.876 93.9167 100.927ZM108.119 77.6901C107.959 77.6425 107.811 77.564 107.682 77.4591C107.553 77.3542 107.446 77.2249 107.367 77.0787C107.288 76.9324 107.238 76.7721 107.222 76.6068C107.205 76.4415 107.221 76.2745 107.269 76.1154C107.652 74.8328 107.986 73.5183 108.26 72.2099C108.329 71.8816 108.525 71.5941 108.806 71.4105C109.087 71.2269 109.43 71.1622 109.759 71.2308C110.087 71.2994 110.375 71.4956 110.559 71.7762C110.743 72.0569 110.808 72.3989 110.739 72.7272C110.45 74.1056 110.099 75.4901 109.694 76.835C109.647 76.9932 109.57 77.1406 109.465 77.2686C109.308 77.4643 109.096 77.6088 108.856 77.6838C108.616 77.7589 108.36 77.7611 108.119 77.6901ZM84.6844 107.131C83.4367 107.782 82.1432 108.389 80.8407 108.936C80.6873 109 80.5228 109.034 80.3565 109.034C80.1901 109.035 80.0253 109.003 79.8713 108.94C79.7173 108.878 79.5772 108.785 79.459 108.668C79.3408 108.551 79.2468 108.413 79.1824 108.259C79.1179 108.106 79.0844 107.942 79.0835 107.776C79.0827 107.61 79.1146 107.445 79.1775 107.291C79.2404 107.137 79.333 106.998 79.45 106.88C79.567 106.762 79.7062 106.668 79.8595 106.603C81.0981 106.084 82.3261 105.508 83.5159 104.89C83.6633 104.813 83.8243 104.766 83.9899 104.751C84.1555 104.737 84.3225 104.755 84.4811 104.804C84.6398 104.854 84.7871 104.934 84.9146 105.041C85.0422 105.147 85.1475 105.278 85.2245 105.425C85.3015 105.572 85.3488 105.733 85.3635 105.898C85.3783 106.064 85.3603 106.23 85.3106 106.389C85.2609 106.547 85.1804 106.694 85.0737 106.822C84.9671 106.949 84.8363 107.054 84.689 107.131H84.6844ZM74.3126 111.163C72.949 111.528 71.555 111.839 70.1672 112.088C69.8366 112.147 69.4961 112.073 69.2204 111.882C68.9447 111.69 68.7564 111.397 68.697 111.067C68.6376 110.737 68.7119 110.397 68.9036 110.122C69.0954 109.846 69.3887 109.658 69.7193 109.599C71.0371 109.362 72.3625 109.066 73.659 108.721C73.8212 108.673 73.9914 108.658 74.1597 108.676C74.3279 108.695 74.4906 108.747 74.6383 108.83C74.786 108.912 74.9157 109.023 75.0195 109.157C75.1234 109.29 75.1995 109.443 75.2432 109.606C75.2869 109.77 75.2974 109.94 75.274 110.107C75.2506 110.275 75.1939 110.436 75.1071 110.581C75.0203 110.726 74.9053 110.852 74.7689 110.952C74.6324 111.052 74.4772 111.124 74.3126 111.163ZM63.3084 112.837C61.8962 112.896 60.4672 112.896 59.0595 112.837C58.7239 112.823 58.4076 112.676 58.1802 112.429C57.9528 112.183 57.8328 111.856 57.8468 111.521C57.8607 111.185 58.0074 110.87 58.2545 110.642C58.5016 110.415 58.829 110.296 59.1646 110.31C60.5022 110.364 61.8611 110.364 63.2018 110.31C63.368 110.303 63.5339 110.328 63.6901 110.385C63.8462 110.442 63.9896 110.53 64.1121 110.642C64.2345 110.754 64.3336 110.89 64.4037 111.04C64.4737 111.191 64.5134 111.354 64.5204 111.52C64.5274 111.686 64.5016 111.851 64.4445 112.007C64.3874 112.163 64.3 112.307 64.1875 112.429C64.075 112.551 63.9394 112.65 63.7886 112.72C63.6377 112.79 63.4746 112.83 63.3084 112.837ZM52.1977 112.076C50.8083 111.826 49.4128 111.513 48.0508 111.146C47.8799 111.113 47.7177 111.045 47.5742 110.947C47.4308 110.849 47.3092 110.722 47.2171 110.574C47.125 110.427 47.0643 110.262 47.0389 110.09C47.0134 109.918 47.0238 109.743 47.0692 109.575C47.1147 109.407 47.1943 109.25 47.3031 109.115C47.4119 108.979 47.5476 108.867 47.7016 108.786C47.8556 108.705 48.0247 108.657 48.1983 108.644C48.3718 108.631 48.5462 108.654 48.7104 108.712C50.0024 109.06 51.3278 109.357 52.6486 109.594C52.8123 109.624 52.9684 109.686 53.1081 109.777C53.2479 109.867 53.3684 109.984 53.4629 110.12C53.5574 110.257 53.624 110.411 53.6589 110.574C53.6938 110.736 53.6963 110.904 53.6663 111.067C53.6363 111.231 53.5744 111.387 53.484 111.526C53.3937 111.666 53.2767 111.786 53.1397 111.88C53.0028 111.975 52.8486 112.041 52.6859 112.076C52.5232 112.111 52.3552 112.113 52.1916 112.083L52.1977 112.076ZM41.5211 108.898C40.2231 108.348 38.9312 107.737 37.6835 107.072C37.5363 106.994 37.4059 106.889 37.2996 106.761C37.1933 106.633 37.1133 106.486 37.0641 106.327C37.0148 106.169 36.9974 106.002 37.0127 105.836C37.028 105.671 37.0758 105.51 37.1533 105.363C37.2308 105.216 37.3366 105.086 37.4645 104.98C37.5925 104.874 37.7401 104.794 37.8989 104.745C38.0578 104.696 38.2248 104.678 38.3904 104.693C38.556 104.709 38.717 104.756 38.8642 104.834C40.051 105.459 41.2774 106.039 42.5099 106.561C42.6629 106.626 42.8017 106.72 42.9182 106.838C43.0348 106.957 43.1268 107.097 43.1891 107.251C43.2513 107.405 43.2826 107.57 43.281 107.736C43.2795 107.902 43.2453 108.066 43.1802 108.219C43.134 108.328 43.073 108.431 42.9989 108.523C42.8278 108.739 42.591 108.893 42.3243 108.962C42.0577 109.031 41.7757 109.012 41.5211 108.907V108.898ZM31.8135 103.46C30.968 102.851 30.1377 102.222 29.3257 101.569C29.0352 101.333 28.7472 101.094 28.4618 100.854C28.3331 100.748 28.2269 100.617 28.1494 100.47C28.0718 100.322 28.0246 100.161 28.0104 99.995C27.9962 99.8291 28.0154 99.662 28.0667 99.5035C28.1181 99.345 28.2006 99.1984 28.3095 99.0722C28.4166 98.945 28.5479 98.8402 28.6956 98.7637C28.8434 98.6872 29.0048 98.6405 29.1707 98.6264C29.3365 98.6123 29.5035 98.6309 29.6621 98.6813C29.8207 98.7317 29.9678 98.8129 30.095 98.9201C30.3662 99.1483 30.6404 99.3765 30.9162 99.6002C31.6779 100.219 32.4777 100.817 33.2806 101.398C33.5537 101.593 33.7381 101.889 33.7932 102.219C33.8483 102.55 33.7697 102.889 33.5746 103.162C33.5594 103.183 33.5442 103.204 33.5274 103.224C33.3265 103.475 33.0374 103.64 32.719 103.686C32.4006 103.731 32.0768 103.654 31.8135 103.469V103.46Z" fill="white"/>
<path d="M111.406 66.5746C111.571 66.3729 111.669 66.1252 111.687 65.8656C111.734 65.1824 111.767 64.4856 111.786 63.7934C111.795 63.4581 111.67 63.1329 111.439 62.8894C111.208 62.6458 110.89 62.5039 110.554 62.4948C110.388 62.4904 110.222 62.5186 110.067 62.578C109.912 62.6374 109.769 62.7267 109.649 62.8409C109.405 63.0716 109.263 63.3896 109.254 63.7249C109.235 64.3822 109.203 65.044 109.159 65.6921C109.141 65.9603 109.208 66.2274 109.352 66.4547C109.496 66.6819 109.708 66.8575 109.959 66.9558C110.209 67.0542 110.485 67.0703 110.745 67.0017C111.005 66.9331 111.237 66.7835 111.406 66.5746Z" fill="white"/>
</g>
<path d="M97.1616 50.2071C97.1363 50.0868 97.0742 49.9773 96.9838 49.8939C96.8935 49.8105 96.7793 49.7572 96.6573 49.7415L89.5106 48.8286C88.0748 45.7387 86.1435 42.9035 83.793 40.4349L85.5618 33.4713C85.5917 33.3521 85.5838 33.2265 85.539 33.112C85.4942 32.9975 85.4149 32.8997 85.3119 32.8323L78.086 28.1007C77.983 28.0331 77.8613 27.9994 77.7381 28.0043C77.6149 28.0093 77.4963 28.0525 77.3989 28.1281L71.7057 32.5281C68.5008 31.3602 65.1268 30.7214 61.7162 30.6369L58.0309 24.4569C57.9679 24.3511 57.8734 24.2676 57.7606 24.218C57.6479 24.1683 57.5224 24.1551 57.4017 24.18L48.9418 25.9372C48.8213 25.9622 48.7116 26.0242 48.628 26.1145C48.5444 26.2048 48.4911 26.3188 48.4756 26.4408L47.5615 33.5778C44.4669 35.0123 41.6274 36.9414 39.155 39.2893L32.1774 37.5214C32.0578 37.4913 31.9318 37.4992 31.8169 37.5439C31.7019 37.5886 31.6038 37.668 31.536 37.7709L26.7995 44.987C26.7319 45.0899 26.698 45.2113 26.7027 45.3342C26.7073 45.4572 26.7502 45.5757 26.8254 45.6732L31.2313 51.3603C30.061 54.5601 29.4214 57.9292 29.3377 61.3348L23.1477 65.0166C23.042 65.0796 22.9585 65.174 22.9091 65.2867C22.8597 65.3994 22.8467 65.5246 22.872 65.645L24.6331 74.0935C24.6579 74.2141 24.7198 74.3241 24.8103 74.4078C24.9007 74.4916 25.0151 74.545 25.1374 74.5606L32.2825 75.4734C33.7199 78.5629 35.6515 81.3979 38.0017 83.8671L36.2329 90.8292C36.2026 90.9487 36.2104 91.0746 36.2552 91.1894C36.3 91.3042 36.3796 91.4022 36.4828 91.4697L43.7087 96.2014C43.8117 96.2682 43.933 96.3014 44.0558 96.2965C44.1786 96.2916 44.2968 96.2488 44.3942 96.174L50.089 91.7755C53.2957 92.9448 56.6719 93.5841 60.0846 93.6682L63.7699 99.8498C63.8331 99.9552 63.9277 100.038 64.0404 100.088C64.1532 100.137 64.2785 100.15 64.3991 100.125L72.859 98.3679C72.9796 98.3431 73.0895 98.2812 73.1731 98.1909C73.2567 98.1005 73.3099 97.9863 73.3251 97.8643L74.2392 90.7288C77.3288 89.2927 80.1636 87.3636 82.6321 85.0173L89.6112 86.7837C89.7304 86.814 89.8561 86.8064 89.9708 86.762C90.0855 86.7175 90.1835 86.6384 90.251 86.5357L94.9891 79.3181C95.0568 79.2154 95.0906 79.0942 95.0857 78.9713C95.0808 78.8485 95.0374 78.7303 94.9617 78.6334L90.5573 72.9463C91.7277 69.746 92.3674 66.3764 92.4509 62.9703L98.6393 59.29C98.7454 59.2272 98.8291 59.1329 98.8789 59.0202C98.9286 58.9075 98.9418 58.7822 98.9166 58.6616L97.1616 50.2071Z" fill="#AAA9A9"/>
<path d="M66.7745 68.5403C65.1193 70.0592 62.9389 70.878 60.6917 70.8245C58.4444 70.771 56.3055 69.8493 54.7248 68.2533C53.144 66.6573 52.2446 64.5113 52.2156 62.2667C52.1866 60.022 53.0303 57.8536 54.5693 56.2174C56.1083 54.5812 58.2227 53.6047 60.4678 53.4934C62.7129 53.382 64.9138 54.1444 66.6076 55.6202C68.3015 57.096 69.3562 59.1702 69.5502 61.4067C69.7441 63.6432 69.062 65.8676 67.6475 67.6122C67.3796 67.9425 67.0878 68.2527 66.7745 68.5403ZM54.2439 61.8718C54.1787 63.409 54.6492 64.9212 55.5753 66.1507C56.5014 67.3802 57.8258 68.2511 59.3227 68.6148C60.8196 68.9785 62.3966 68.8127 63.7848 68.1455C65.173 67.4783 66.2866 66.3511 66.9359 64.9558C67.5852 63.5606 67.73 61.9837 67.3456 60.4938C66.9611 59.004 66.0713 57.6933 64.8278 56.7851C63.5842 55.877 62.0638 55.4275 60.5255 55.5133C58.9873 55.5992 57.5265 56.215 56.392 57.2558C56.1491 57.4788 55.923 57.7193 55.7155 57.9755C54.8167 59.0816 54.3004 60.4485 54.2439 61.8718Z" fill="#BDD0FB"/>
<path d="M77.2805 75.6393C77.7385 75.0753 78.1702 74.4855 78.5754 73.8699C78.7019 73.6766 78.8268 73.4804 78.9471 73.2826C79.5425 72.311 80.0591 71.2935 80.492 70.2397L80.5102 70.1971C80.527 70.1561 80.5438 70.115 80.559 70.0739C80.591 69.9948 80.6215 69.9218 80.6534 69.835C80.692 69.7354 80.6981 69.6261 80.6707 69.5228C80.6433 69.4195 80.584 69.3275 80.5011 69.2599C80.4596 69.2268 80.4134 69.2002 80.364 69.1808C80.2385 69.1332 80.0992 69.1369 79.9765 69.1914C79.8538 69.2458 79.7576 69.3465 79.7089 69.4714C78.2119 73.3496 75.5608 76.6765 72.1126 79.004C68.6643 81.3314 64.5847 82.5476 60.4231 82.4888C56.5597 82.4418 52.7907 81.2902 49.5622 79.1705C48.9781 78.788 48.4137 78.3761 47.8712 77.9366C45.5105 76.0159 43.6117 73.5905 42.3148 70.8393C41.0178 68.0881 40.3558 65.0812 40.3776 62.0404C40.3993 58.9996 41.1043 56.0025 42.4404 53.2701C43.7766 50.5376 45.7099 48.1396 48.0978 46.2527C50.4857 44.3659 53.2672 43.0384 56.2373 42.3681C59.2073 41.6978 62.2902 41.7019 65.2585 42.38C68.2267 43.0581 71.0048 44.393 73.3876 46.2861C75.7705 48.1793 77.6974 50.5824 79.0264 53.3184C79.0554 53.3783 79.0959 53.432 79.1457 53.4763C79.1955 53.5206 79.2535 53.5546 79.3164 53.5765C79.3794 53.5984 79.446 53.6077 79.5126 53.6039C79.5791 53.6001 79.6443 53.5832 79.7043 53.5542C79.7643 53.5253 79.8181 53.4848 79.8624 53.4351C79.9068 53.3854 79.9409 53.3274 79.9628 53.2646C79.9847 53.2017 79.994 53.1351 79.9902 53.0687C79.9864 53.0022 79.9695 52.9371 79.9405 52.8772C78.5777 50.0661 76.6115 47.5893 74.1817 45.623C73.6195 45.1676 73.0347 44.7405 72.4297 44.3435C62.5804 37.8957 49.3139 40.654 42.8589 50.4855C39.9624 54.8991 38.8065 60.2281 39.6146 65.4431C40.4227 70.658 43.1375 75.3889 47.2343 78.7217C47.8011 79.1791 48.3927 79.6107 49.0092 80.0164C53.4291 82.9095 58.766 84.0637 63.9885 83.2561C69.2109 82.4485 73.9483 79.7364 77.285 75.6439L77.2805 75.6393Z" fill="#BDD0FB"/>
<g opacity="0.3">
<path d="M150.275 15.8563C150.382 15.7252 150.443 15.5632 150.45 15.3945C150.456 15.2258 150.408 15.0595 150.312 14.9206C149.934 14.3744 149.537 13.8328 149.127 13.3109C148.999 13.1477 148.812 13.0418 148.606 13.0166C148.4 12.9913 148.193 13.0488 148.029 13.1763C147.866 13.3038 147.76 13.4909 147.734 13.6965C147.709 13.9021 147.767 14.1092 147.894 14.2725C148.284 14.7715 148.665 15.2873 149.025 15.8091C149.093 15.9095 149.185 15.9924 149.291 16.0512C149.398 16.1099 149.517 16.1429 149.638 16.1475C149.76 16.1521 149.881 16.1281 149.991 16.0776C150.102 16.027 150.199 15.9512 150.275 15.8563Z" fill="white"/>
<path d="M146.36 11.3042C146.287 11.3768 146.201 11.4344 146.106 11.4737C146.011 11.513 145.909 11.5332 145.807 11.5332C145.704 11.5332 145.602 11.513 145.507 11.4737C145.412 11.4344 145.326 11.3768 145.254 11.3042C144.479 10.5332 143.665 9.80199 142.816 9.11335C142.637 8.96932 142.456 8.8263 142.274 8.6843C142.193 8.62138 142.125 8.54312 142.074 8.45401C142.023 8.3649 141.991 8.26668 141.978 8.16495C141.965 8.06323 141.973 7.96 142 7.86115C142.027 7.76231 142.073 7.66979 142.136 7.58887C142.267 7.43079 142.454 7.32847 142.657 7.30275C142.861 7.27703 143.067 7.32984 143.233 7.45042C143.425 7.59952 143.615 7.74913 143.802 7.89925C144.688 8.61888 145.551 9.39177 146.361 10.1966C146.498 10.3332 146.579 10.5155 146.59 10.7084C146.6 10.9014 146.539 11.0913 146.417 11.2418C146.399 11.2641 146.38 11.2849 146.36 11.3042ZM138.99 6.44933C137.853 5.7694 136.675 5.15968 135.464 4.62361C135.274 4.54008 135.125 4.38472 135.05 4.1917C134.975 3.99868 134.98 3.78381 135.064 3.59436C135.147 3.40492 135.303 3.25641 135.496 3.18151C135.689 3.10661 135.905 3.11146 136.094 3.19499C137.365 3.7551 138.6 4.39225 139.793 5.10286C139.972 5.20939 140.1 5.38224 140.151 5.58339C140.201 5.78454 140.17 5.99752 140.063 6.17547C140.044 6.20742 140.023 6.23793 139.999 6.26675C139.881 6.41289 139.714 6.51172 139.529 6.54524C139.344 6.57875 139.153 6.54471 138.99 6.44933ZM131.736 3.25433C130.466 2.87476 129.173 2.57446 127.866 2.35516C127.667 2.31427 127.492 2.19803 127.378 2.0309C127.263 1.86376 127.218 1.65878 127.252 1.45908C127.286 1.25939 127.396 1.08056 127.559 0.960231C127.722 0.839905 127.925 0.787465 128.127 0.813952C129.497 1.04489 130.852 1.35992 132.184 1.75724C132.282 1.78652 132.374 1.83491 132.454 1.89965C132.533 1.96438 132.599 2.04418 132.648 2.13448C132.697 2.22478 132.728 2.32381 132.738 2.4259C132.748 2.52799 132.739 2.63113 132.709 2.72943C132.68 2.82695 132.632 2.91787 132.567 2.9972C132.47 3.11801 132.339 3.20723 132.191 3.25355C132.043 3.29987 131.885 3.3012 131.736 3.25737V3.25433ZM123.919 1.94285C122.595 1.88575 121.269 1.91014 119.948 2.01588C119.742 2.03242 119.537 1.9663 119.379 1.83206C119.221 1.69781 119.123 1.50644 119.107 1.30005C119.09 1.09366 119.156 0.889143 119.291 0.731501C119.425 0.57386 119.617 0.476001 119.824 0.459457C121.209 0.34836 122.599 0.32245 123.987 0.381867C124.194 0.390954 124.39 0.48176 124.53 0.63436C124.67 0.78696 124.744 0.988884 124.735 1.19583C124.726 1.40303 124.635 1.59814 124.482 1.73823C124.329 1.87832 124.126 1.95193 123.919 1.94285ZM116.016 2.57425C114.718 2.84092 113.438 3.18641 112.182 3.60882C111.985 3.67499 111.77 3.66048 111.584 3.56846C111.399 3.47644 111.257 3.31446 111.191 3.11815C111.124 2.92185 111.139 2.70729 111.231 2.52169C111.323 2.33609 111.486 2.19464 111.682 2.12846C112.998 1.6856 114.341 1.32334 115.701 1.04369C115.803 1.01806 115.91 1.01341 116.014 1.03001C116.119 1.0466 116.219 1.0841 116.308 1.14025C116.397 1.19639 116.475 1.27002 116.535 1.35671C116.595 1.4434 116.637 1.54135 116.658 1.64467C116.679 1.748 116.68 1.85455 116.659 1.95793C116.638 2.0613 116.596 2.15936 116.536 2.24621C116.476 2.33305 116.399 2.40688 116.31 2.46325C116.22 2.51963 116.121 2.55739 116.016 2.57425ZM108.506 5.10286C107.313 5.67628 106.156 6.32259 105.043 7.03812C104.868 7.15029 104.657 7.1887 104.454 7.14491C104.251 7.10111 104.074 6.97869 103.962 6.80458C103.849 6.63046 103.811 6.41892 103.855 6.21648C103.899 6.01405 104.021 5.8373 104.196 5.72512C105.363 4.97375 106.576 4.2959 107.828 3.69554C107.988 3.61815 108.17 3.59765 108.343 3.63741C108.516 3.67718 108.671 3.77484 108.781 3.91425C108.892 4.05366 108.951 4.22648 108.95 4.40414C108.948 4.58181 108.886 4.75369 108.774 4.89138C108.7 4.98137 108.608 5.05367 108.503 5.10286H108.506ZM101.845 9.3872C100.829 10.2362 99.866 11.1472 98.9625 12.1151C98.8183 12.2546 98.626 12.3334 98.4253 12.3353C98.2245 12.3371 98.0308 12.262 97.8839 12.1253C97.7371 11.9886 97.6484 11.8009 97.6362 11.6008C97.624 11.4007 97.6892 11.2036 97.8184 11.0501C98.7667 10.0367 99.7761 9.08198 100.841 8.19136C100.99 8.06818 101.18 8.00466 101.374 8.01305C101.567 8.02144 101.751 8.10115 101.889 8.23679C102.027 8.37243 102.11 8.55436 102.121 8.74744C102.133 8.94052 102.072 9.13106 101.952 9.28222C101.918 9.32027 101.881 9.35539 101.842 9.3872H101.845ZM93.2403 18.8201C93.15 18.7704 93.0705 18.7033 93.0062 18.6228C92.942 18.5423 92.8943 18.4499 92.866 18.3509C92.8377 18.2519 92.8293 18.1483 92.8412 18.046C92.8531 17.9438 92.8852 17.8449 92.9356 17.7551C93.5205 16.7016 94.1607 15.6798 94.8537 14.6939C94.9588 14.5418 95.0655 14.3897 95.1721 14.2466C95.3002 14.0985 95.4792 14.0038 95.6739 13.9811C95.8685 13.9584 96.0647 14.0094 96.2235 14.1241C96.3823 14.2387 96.4923 14.4087 96.5317 14.6004C96.5712 14.7921 96.5372 14.9916 96.4366 15.1595C96.336 15.298 96.2355 15.4379 96.1319 15.5809C95.4705 16.5223 94.8602 17.4984 94.3037 18.5051C94.2814 18.5455 94.2554 18.5837 94.226 18.6192C94.1126 18.7652 93.951 18.8663 93.7699 18.9045C93.5889 18.9427 93.4001 18.9154 93.2373 18.8277L93.2403 18.8201Z" fill="white"/>
</g>
<g opacity="0.3">
<path d="M148.446 55.6978C147.571 56.7459 146.634 57.7407 145.64 58.6768C145.487 58.8022 145.291 58.8648 145.093 58.8518C144.896 58.8388 144.71 58.7512 144.574 58.6067C144.439 58.4622 144.363 58.2717 144.363 58.0737C144.363 57.8756 144.438 57.685 144.574 57.5403C145.522 56.648 146.416 55.6989 147.249 54.6982C147.388 54.5698 147.569 54.496 147.758 54.4906C147.948 54.4852 148.133 54.5485 148.279 54.6689C148.425 54.7892 148.522 54.9584 148.553 55.1451C148.584 55.3318 148.546 55.5233 148.446 55.6841V55.6978ZM149.791 52.6337C149.618 52.5209 149.495 52.3439 149.452 52.1414C149.409 51.9389 149.447 51.7274 149.56 51.5534C150.268 50.4605 150.91 49.326 151.481 48.1561C151.572 47.9699 151.733 47.8274 151.929 47.7599C152.125 47.6924 152.34 47.7055 152.527 47.7963C152.713 47.8871 152.856 48.0481 152.924 48.244C152.991 48.4399 152.978 48.6545 152.887 48.8407C152.287 50.0669 151.615 51.2563 150.873 52.4024C150.858 52.4264 150.841 52.4493 150.823 52.4709C150.702 52.6231 150.529 52.7248 150.337 52.7563C150.145 52.7878 149.949 52.7468 149.785 52.6413L149.791 52.6337ZM142.491 61.2952C141.389 62.1018 140.239 62.841 139.048 63.5088C138.868 63.6001 138.659 63.6183 138.466 63.5595C138.273 63.5008 138.11 63.3696 138.012 63.1936C137.913 63.0175 137.887 62.8103 137.938 62.6152C137.989 62.4201 138.114 62.2524 138.286 62.1472C139.423 61.5101 140.521 60.8049 141.572 60.0354C141.726 59.9254 141.914 59.8745 142.102 59.8922C142.29 59.9099 142.465 59.995 142.595 60.1317C142.725 60.2685 142.801 60.4476 142.809 60.636C142.817 60.8245 142.757 61.0094 142.639 61.1567C142.594 61.2098 142.542 61.2564 142.485 61.2952H142.491ZM153.46 45.5438C153.264 45.4764 153.103 45.334 153.012 45.148C152.921 44.962 152.908 44.7475 152.976 44.5518C153.399 43.3204 153.748 42.0644 154.019 40.7909C154.076 40.6031 154.201 40.4434 154.37 40.3436C154.539 40.2437 154.739 40.2111 154.931 40.2521C155.123 40.2932 155.293 40.4049 155.406 40.565C155.519 40.7252 155.568 40.922 155.543 41.1164C155.259 42.452 154.894 43.769 154.449 45.06C154.419 45.1463 154.374 45.2267 154.316 45.2973C154.215 45.4215 154.079 45.5118 153.925 45.5559C153.771 45.6 153.607 45.5957 153.455 45.5438H153.46ZM135.361 65.2874C134.097 65.8053 132.803 66.2468 131.485 66.6095C131.286 66.6616 131.074 66.6332 130.896 66.5305C130.718 66.4277 130.587 66.2589 130.532 66.0607C130.477 65.8624 130.503 65.6506 130.604 65.4711C130.704 65.2916 130.872 65.1589 131.069 65.1018C132.327 64.7578 133.561 64.3371 134.767 63.842C134.959 63.7633 135.174 63.764 135.366 63.8439C135.557 63.9238 135.709 64.0764 135.788 64.268C135.866 64.4597 135.866 64.6748 135.786 64.8659C135.706 65.0571 135.553 65.2087 135.361 65.2874ZM127.479 67.4554C126.127 67.6565 124.765 67.7759 123.399 67.8129C123.296 67.8157 123.194 67.7983 123.098 67.7617C123.002 67.725 122.914 67.6699 122.84 67.5994C122.765 67.5289 122.705 67.4444 122.663 67.3508C122.622 67.2572 122.599 67.1563 122.596 67.0538C122.593 66.9513 122.61 66.8492 122.647 66.7535C122.684 66.6577 122.739 66.5701 122.81 66.4956C122.88 66.4212 122.965 66.3613 123.059 66.3195C123.152 66.2777 123.253 66.2548 123.356 66.252C124.659 66.2159 125.959 66.1021 127.249 65.9112C127.454 65.8807 127.662 65.9328 127.829 66.0561C127.995 66.1793 128.106 66.3636 128.137 66.5684C128.167 66.7732 128.115 66.9817 127.992 67.148C127.868 67.3144 127.684 67.425 127.479 67.4554ZM119.304 67.6775C117.943 67.5492 116.591 67.3383 115.256 67.0462C115.15 67.0303 115.048 66.993 114.958 66.9363C114.867 66.8797 114.789 66.8051 114.728 66.7171C114.667 66.6291 114.625 66.5295 114.604 66.4246C114.584 66.3197 114.585 66.2117 114.608 66.1073C114.631 66.0029 114.675 65.9043 114.738 65.8176C114.8 65.7309 114.88 65.658 114.972 65.6034C115.064 65.5487 115.166 65.5136 115.272 65.5C115.379 65.4865 115.486 65.4949 115.589 65.5247C116.863 65.8054 118.152 66.0086 119.45 66.1333C119.552 66.1428 119.651 66.1724 119.742 66.2203C119.833 66.2682 119.913 66.3336 119.979 66.4125C120.045 66.4915 120.094 66.5826 120.124 66.6807C120.154 66.7787 120.165 66.8817 120.155 66.9838C120.142 67.1373 120.083 67.2832 119.985 67.4022C119.902 67.5009 119.796 67.5777 119.676 67.6257C119.557 67.6737 119.427 67.6915 119.299 67.6775H119.304Z" fill="white"/>
<path d="M155.983 37.456C156.082 37.335 156.142 37.187 156.155 37.0315C156.213 36.3666 156.251 35.6957 156.269 35.0384C156.276 34.9336 156.261 34.8286 156.226 34.7296C156.191 34.6307 156.137 34.5397 156.066 34.4623C155.995 34.3848 155.909 34.3224 155.813 34.2787C155.718 34.2351 155.614 34.2112 155.509 34.2083C155.404 34.2054 155.3 34.2237 155.202 34.2621C155.104 34.3005 155.015 34.3581 154.94 34.4316C154.865 34.5051 154.805 34.5929 154.765 34.6899C154.724 34.7868 154.704 34.8909 154.705 34.9958C154.688 35.6227 154.652 36.2617 154.597 36.8976C154.582 37.0642 154.622 37.231 154.709 37.3734C154.797 37.5159 154.928 37.6266 155.083 37.6891C155.238 37.7517 155.409 37.7627 155.572 37.7208C155.734 37.6788 155.878 37.586 155.983 37.456Z" fill="white"/>
</g>
<path d="M146.548 25.9525C146.531 25.8718 146.49 25.7983 146.429 25.7424C146.369 25.6865 146.292 25.6509 146.21 25.6406L141.429 25.032C140.468 22.9644 139.175 21.0672 137.602 19.4149L138.786 14.7517C138.806 14.6719 138.801 14.5878 138.771 14.5112C138.741 14.4346 138.688 14.3692 138.619 14.3242L133.783 11.1581C133.714 11.1134 133.633 11.0911 133.552 11.0944C133.47 11.0976 133.391 11.1263 133.326 11.1764L129.517 14.1188C127.372 13.338 125.114 12.911 122.832 12.8545L120.366 8.71926C120.324 8.64816 120.261 8.59197 120.185 8.55866C120.11 8.52534 120.026 8.51659 119.945 8.53364L114.284 9.70971C114.205 9.72759 114.133 9.76948 114.078 9.82967C114.024 9.88985 113.989 9.96539 113.979 10.0459L113.37 14.8217C111.299 15.7816 109.399 17.0725 107.745 18.6435L103.074 17.4614C102.994 17.4414 102.91 17.4467 102.834 17.4764C102.757 17.5061 102.691 17.5588 102.646 17.6272L99.4757 22.4562C99.4311 22.5249 99.4089 22.6056 99.4122 22.6874C99.4155 22.7691 99.444 22.8478 99.494 22.9127L102.442 26.7162C101.659 28.8574 101.231 31.1119 101.174 33.3907L97.0336 35.8539C96.9629 35.8965 96.9071 35.9598 96.8738 36.0353C96.8406 36.1107 96.8314 36.1946 96.8477 36.2754L98.0192 41.9305C98.0374 42.0098 98.0797 42.0816 98.1402 42.136C98.2007 42.1905 98.2766 42.225 98.3575 42.2348L103.138 42.8434C104.1 44.911 105.392 46.8082 106.965 48.4605L105.781 53.1237C105.76 53.2031 105.763 53.2874 105.792 53.3646C105.821 53.4419 105.873 53.5082 105.941 53.5542L110.777 56.7203C110.845 56.7651 110.926 56.7875 111.008 56.7845C111.09 56.7815 111.169 56.7532 111.234 56.7036L115.043 53.7596C117.187 54.5411 119.445 54.9682 121.728 55.0239L124.194 59.1607C124.236 59.2315 124.299 59.2874 124.375 59.3204C124.45 59.3535 124.534 59.362 124.615 59.3448L130.276 58.1687C130.355 58.1508 130.427 58.1089 130.482 58.0488C130.536 57.9886 130.571 57.9131 130.581 57.8325L131.19 53.0567C133.26 52.0965 135.16 50.8056 136.815 49.2349L141.484 50.417C141.564 50.4378 141.649 50.433 141.726 50.4032C141.803 50.3735 141.869 50.3203 141.914 50.2512L145.095 45.4283C145.139 45.3595 145.161 45.2788 145.158 45.1972C145.154 45.1156 145.126 45.0369 145.077 44.9719L142.129 41.1683C142.912 39.0271 143.34 36.7726 143.396 34.4938L147.537 32.0306C147.608 31.9883 147.663 31.9252 147.697 31.85C147.73 31.7749 147.739 31.6913 147.723 31.6107L146.548 25.9525Z" fill="#AAA9A9"/>
<path d="M126.284 38.2913C125.156 39.3067 123.677 39.8459 122.159 39.7955C120.641 39.7451 119.201 39.1091 118.143 38.0211C117.084 36.9331 116.489 35.4778 116.482 33.9609C116.476 32.4439 117.058 30.9834 118.107 29.8862C119.156 28.789 120.59 28.1404 122.107 28.0767C123.625 28.013 125.108 28.5392 126.246 29.5446C127.383 30.5501 128.086 31.9567 128.207 33.4688C128.328 34.9809 127.857 36.481 126.894 37.6538C126.707 37.8811 126.503 38.0942 126.284 38.2913ZM119.077 36.8825C119.858 37.731 120.944 38.2352 122.097 38.2839C123.25 38.3327 124.375 37.9222 125.225 37.1426C126.06 36.359 126.552 35.2783 126.594 34.1349C126.636 32.9915 126.225 31.8776 125.45 31.035C124.675 30.1923 123.599 29.6888 122.454 29.6336C121.31 29.5785 120.19 29.9762 119.337 30.7405C119.18 30.885 119.033 31.0406 118.898 31.206C118.243 32.0168 117.9 33.0356 117.933 34.0773C117.965 35.1189 118.371 36.1143 119.077 36.8825Z" fill="#BDD0FB"/>
<path d="M133.598 43.2329C133.913 42.8455 134.207 42.4423 134.481 42.0249C135.032 41.1868 135.496 40.2953 135.866 39.3639L135.915 39.2392C135.974 39.0851 135.983 38.9163 135.941 38.7567C135.899 38.5972 135.807 38.4551 135.679 38.3507C135.614 38.2993 135.543 38.2582 135.466 38.229C135.272 38.155 135.057 38.1605 134.868 38.2444C134.679 38.3282 134.53 38.4835 134.455 38.6763C134.118 39.5495 133.689 40.3844 133.174 41.1668L133.087 41.2962C131.875 43.1097 130.227 44.5906 128.293 45.6033C127.24 46.152 126.119 46.5572 124.958 46.8083H124.929L124.842 46.8266C123.149 47.183 121.402 47.2006 119.703 46.8784C118.003 46.5561 116.384 45.9004 114.94 44.9491C114.559 44.6996 114.194 44.4339 113.844 44.1519C111.221 42.025 109.517 38.9726 109.084 35.6259C108.651 32.2793 109.522 28.8945 111.518 26.1716C113.514 23.4488 116.481 21.5961 119.807 20.9969C123.132 20.3977 126.561 21.0978 129.384 22.9523C129.757 23.1962 130.118 23.4592 130.464 23.7404C131.963 24.9526 133.175 26.4798 134.015 28.2134C134.108 28.3956 134.269 28.5342 134.463 28.5993C134.658 28.6644 134.87 28.651 135.054 28.5618C135.238 28.4726 135.38 28.3148 135.45 28.1223C135.519 27.9297 135.51 27.7177 135.424 27.5318C134.462 25.5502 133.066 23.8096 131.34 22.4385C129.614 21.0673 127.602 20.1006 125.452 19.6095C123.302 19.1184 121.07 19.1155 118.918 19.601C116.767 20.0866 114.753 21.0481 113.023 22.4148C111.294 23.7815 109.894 25.5184 108.926 27.4975C107.958 29.4766 107.448 31.6474 107.432 33.8498C107.416 36.0522 107.896 38.23 108.835 40.2226C109.775 42.2153 111.15 43.9719 112.86 45.3629C113.25 45.6779 113.658 45.9715 114.079 46.256C117.131 48.2504 120.815 49.0451 124.419 48.4868C128.024 47.9285 131.294 46.0569 133.598 43.2329Z" fill="#BDD0FB"/>
<path d="M54.839 412.19C54.839 412.19 53.9585 416.906 53.5045 421.579C53.4636 422.011 53.5109 422.448 53.6434 422.862C53.776 423.276 53.991 423.659 54.2757 423.988C54.5604 424.317 54.9087 424.585 55.2998 424.776C55.6909 424.967 56.1167 425.077 56.5514 425.099C62.7855 425.417 76.119 426.049 80.9073 425.881C81.0745 425.875 81.2377 425.829 81.3834 425.747C81.529 425.665 81.6529 425.549 81.7448 425.409C81.8366 425.27 81.8937 425.11 81.9112 424.944C81.9288 424.778 81.9064 424.61 81.8458 424.454C81.6274 423.892 81.2009 423.435 80.6545 423.178L58.7163 412.855L54.839 412.19Z" fill="url(#paint5_linear_68_1498)"/>
<path d="M54.1816 409.407L54.8002 415.066C54.8002 415.066 58.6424 416.891 61.2978 414.901L59.7591 408.589L54.1816 409.407Z" fill="url(#paint6_linear_68_1498)"/>
<path d="M55.7006 303.178C55.3959 304.651 53.4397 376.802 60.8561 409.222C60.9163 409.477 60.8831 409.745 60.7624 409.979C60.6417 410.212 60.4414 410.394 60.1979 410.492C58.1808 411.25 56.0498 411.661 53.8953 411.709C53.4766 411.719 53.0664 411.59 52.729 411.342C52.3916 411.094 52.146 410.742 52.0305 410.34C49.8976 402.815 39.6736 365.123 38.6361 329.199C37.4782 289.056 38.6498 327.83 38.6498 327.83L39.7909 303.031L55.7006 303.178Z" fill="url(#paint7_linear_68_1498)"/>
<path d="M29.4704 414.413C29.4704 414.413 28.1176 416.786 26.7693 423.111C26.7109 423.38 26.7097 423.658 26.766 423.928C26.8222 424.198 26.9345 424.452 27.0957 424.676C27.2568 424.899 27.4632 425.087 27.7015 425.225C27.9397 425.364 28.2045 425.451 28.4786 425.481C30.5368 425.703 33.7042 425.994 36.2484 426C36.5248 426.002 36.7985 425.945 37.0515 425.834C37.3045 425.723 37.5312 425.56 37.7167 425.355C37.9022 425.15 38.0424 424.909 38.128 424.647C38.2137 424.384 38.2428 424.106 38.2137 423.832C37.9532 421.516 37.1137 417.713 34.4354 414.729L29.4704 414.413Z" fill="url(#paint8_linear_68_1498)"/>
<path d="M28.3711 407.134L29.858 415.694C29.858 415.694 31.3983 416.861 34.4742 416.056L33.813 406.854L28.3711 407.134Z" fill="url(#paint9_linear_68_1498)"/>
<path d="M25.1082 305.101C18.4262 343.114 25.5789 399.217 28.0668 410.208C28.1405 410.537 28.3099 410.837 28.5539 411.07C28.7978 411.304 29.1054 411.46 29.4379 411.519C30.5927 411.721 32.4971 411.896 34.3801 411.367C34.6968 411.278 34.9775 411.092 35.1825 410.835C35.3876 410.578 35.5066 410.263 35.5227 409.935C35.9554 401.073 35.8487 346.644 41.9411 325.192C42.249 324.105 42.9247 323.159 43.8531 322.514L55.3554 314.511L56.3563 301.409L25.1082 305.101Z" fill="url(#paint10_linear_68_1498)"/>
<path d="M66.051 233.343C47.1233 232.85 26.183 237.927 26.183 237.927C20.2262 270.756 24.5209 308.728 24.5209 308.728C39.1463 312.707 55.7325 306.679 55.7325 306.679C58.2995 292.959 70.0349 254.386 70.0349 254.386C79.2962 253.321 86.9456 250.734 93.2497 247.272C88.5163 241.685 86.327 234.613 85.3871 230.436C78.6716 232.45 71.889 233.495 66.051 233.343Z" fill="url(#paint11_linear_68_1498)"/>
<path d="M122.242 206.027C120.403 203.766 118.039 204.81 118.039 204.81C115.144 216.536 100.443 225.926 85.3906 230.44C86.3306 234.618 88.5199 241.69 93.2533 247.276C118.289 233.524 122.242 206.027 122.242 206.027Z" fill="url(#paint12_linear_68_1498)"/>
<path d="M121.785 206.593C121.974 207.214 119.711 208.133 118.407 205.594C118.374 204.376 117.685 199.187 118.419 198.207C122.329 192.99 129.873 186.475 129.873 186.475C131.127 187.734 130.072 188.948 130.072 188.948L126.407 192.689C127.153 194.058 128.067 195.231 128.486 196.893C128.792 198.161 128.597 199.498 127.943 200.626C127.295 201.766 126.411 203.248 125.578 204.405C123.998 206.598 121.785 206.593 121.785 206.593Z" fill="url(#paint13_linear_68_1498)"/>
<path d="M124.794 195.123L121.459 197.892L120.393 200.67L123.31 203.966C123.31 203.966 124.355 198.443 125.103 197.253C125.851 196.064 125.476 195.479 124.794 195.123Z" fill="url(#paint14_linear_68_1498)"/>
<path d="M33.2716 256.303L26.1844 237.927C26.1844 237.927 8.38704 249.758 5.33398 264.943C8.67193 265.22 14.7445 266.146 20.6663 269.203C22.042 262.033 33.2716 256.303 33.2716 256.303Z" fill="url(#paint15_linear_68_1498)"/>
<path d="M48.5575 273.676C48.5575 273.676 28.5998 284.693 21.9894 275.061C20.6183 273.06 20.3045 271.084 20.664 269.203C14.7422 266.147 8.66964 265.22 5.33169 264.943C4.4176 269.521 4.82742 274.403 7.4798 279.359C19.0095 300.907 51.1382 278.598 51.1382 278.598L48.5575 273.676Z" fill="url(#paint16_linear_68_1498)"/>
<path d="M47.0209 217.811L40.831 235.155C40.7802 235.294 40.7803 235.447 40.8313 235.586C40.8823 235.725 40.981 235.842 41.1098 235.916C42.7445 236.838 48.6343 239.515 55.8069 235.068C56.177 234.842 56.4927 234.537 56.7315 234.175C56.9703 233.813 57.1264 233.402 57.1887 232.973L59.2819 217.936L47.0209 217.811Z" fill="url(#paint17_linear_68_1498)"/>
<path d="M60.2831 201.827C60.2831 201.827 66.7792 214.324 65.8819 219.338C64.9845 224.353 56.7928 223.915 49.672 219.767L44.7969 206.292L60.2831 201.827Z" fill="url(#paint18_linear_68_1498)"/>
<path d="M50.0518 213.176C50.1206 213.147 50.1822 213.103 50.2322 213.048C50.2823 212.993 50.3196 212.927 50.3417 212.856C50.3637 212.785 50.3699 212.709 50.3599 212.635C50.3498 212.561 50.3237 212.491 50.2834 212.428C49.7609 211.614 48.7843 209.956 48.4811 208.509C48.4811 208.509 47.2989 207.737 51.5281 206.77C55.7573 205.802 62.0554 204.297 63.4113 200.727C64.7321 197.245 61.4307 188.426 55.9645 195.376C55.9165 195.438 55.8549 195.488 55.7844 195.523C55.7139 195.558 55.6363 195.576 55.5577 195.576C55.4791 195.576 55.4016 195.558 55.331 195.523C55.2605 195.488 55.1989 195.438 55.1509 195.376C54.2765 194.216 51.9714 191.805 48.7264 193.223C45.6901 194.55 45.3275 196.759 45.3595 197.874C45.3619 197.95 45.3469 198.027 45.3158 198.097C45.2846 198.167 45.2379 198.229 45.1794 198.278C45.1208 198.328 45.0518 198.364 44.9775 198.383C44.9031 198.402 44.8254 198.405 44.7501 198.39C43.2266 198.085 39.5566 197.799 37.8076 201.542C36.3679 204.624 37.2683 206.386 38.0956 207.25C38.1568 207.314 38.2005 207.392 38.2226 207.477C38.2446 207.563 38.2442 207.652 38.2214 207.737C38.1985 207.823 38.154 207.9 38.0922 207.963C38.0304 208.026 37.9534 208.072 37.8686 208.096C36.86 208.401 35.5544 209.233 35.6626 211.585C35.8149 214.838 39.4515 214.585 40.4889 214.447C40.5729 214.435 40.6585 214.444 40.7382 214.473C40.8179 214.502 40.8893 214.55 40.946 214.613C41.825 215.603 45.7876 219.81 50.1143 220.353C50.2007 220.363 50.2882 220.351 50.3687 220.318C50.4493 220.285 50.5202 220.232 50.575 220.165C50.6298 220.097 50.6667 220.017 50.6823 219.932C50.6979 219.846 50.6917 219.758 50.6643 219.676L48.8361 214.216C48.795 214.093 48.8015 213.96 48.8543 213.842C48.9071 213.724 49.0023 213.631 49.121 213.58L50.0518 213.176Z" fill="url(#paint19_linear_68_1498)"/>
<path d="M50.7907 213.956C50.7907 213.956 46.1121 210.684 45.7419 213.399C45.3717 216.113 49.9452 217.376 52.2258 216.384L50.7907 213.956Z" fill="url(#paint20_linear_68_1498)"/>
<path d="M44.4785 291.086L55.3532 253.166C55.4128 252.956 55.5335 252.768 55.7 252.626C55.8665 252.485 56.0713 252.395 56.2886 252.37C58.26 252.14 63.9684 251.495 70.559 250.938C78.4979 250.269 87.718 249.721 93.2269 250.187C93.4084 250.2 93.5838 250.258 93.7377 250.355C93.8916 250.452 94.0193 250.585 94.1096 250.743C94.1999 250.9 94.25 251.078 94.2554 251.26C94.2609 251.441 94.2216 251.621 94.141 251.784C91.0087 258.113 78.1216 283.862 71.6681 292.297C71.5633 292.435 71.4275 292.547 71.2717 292.623C71.1159 292.699 70.9443 292.738 70.7708 292.737L45.5434 292.502C45.3716 292.502 45.2023 292.461 45.0487 292.384C44.8951 292.307 44.7615 292.196 44.6583 292.058C44.5551 291.921 44.4852 291.762 44.454 291.593C44.4228 291.424 44.4312 291.251 44.4785 291.086Z" fill="url(#paint21_linear_68_1498)"/>
<path d="M47.1053 281.921C47.1053 281.921 45.5909 275.701 46.2019 273.495C46.8128 271.289 47.9965 268.45 51.9423 269.083C55.8881 269.716 60.5424 271.365 60.5424 271.365C60.5424 271.365 60.3078 274.239 57.308 273.312L59.1682 274.749C59.1682 274.749 58.9016 277.051 56.3696 275.814L58.1033 277.737C58.1033 277.737 57.0155 279.626 55.1523 278.414C53.2891 277.201 52.3902 282.672 47.1053 281.921Z" fill="url(#paint22_linear_68_1498)"/>
<path d="M69.834 262.258C69.834 262.89 70.0216 263.507 70.3732 264.033C70.7247 264.558 71.2244 264.968 71.809 265.21C72.3936 265.451 73.0368 265.515 73.6575 265.391C74.2781 265.268 74.8481 264.964 75.2956 264.517C75.743 264.07 76.0477 263.501 76.1711 262.881C76.2946 262.261 76.2312 261.619 75.9891 261.035C75.7469 260.451 75.3369 259.952 74.8107 259.601C74.2846 259.25 73.6661 259.063 73.0333 259.063C72.1848 259.063 71.371 259.399 70.771 259.999C70.1711 260.598 69.834 261.41 69.834 262.258Z" fill="#91B3FA"/>
<path d="M56.5815 264.359L58.7952 256.86C58.9239 256.412 59.1719 256.008 59.5126 255.69C59.8533 255.372 60.2741 255.152 60.73 255.054C67.6694 253.608 86.6612 253.303 86.8516 253.3L86.8394 252.452C86.0564 252.464 67.575 252.756 60.5578 254.225C59.9518 254.354 59.3921 254.645 58.9385 255.067C58.4848 255.488 58.1542 256.025 57.9816 256.619L55.7695 264.12L56.5815 264.359Z" fill="#BDD0FB"/>
<path d="M339.187 207.963C339.254 207.835 339.358 207.73 339.485 207.663C339.612 207.595 339.757 207.566 339.901 207.582C340.044 207.597 340.179 207.655 340.289 207.748C340.399 207.841 340.479 207.965 340.517 208.104C341.162 210.423 342.723 214.467 346.002 215.903C346.166 215.976 346.323 216.055 346.474 216.122C346.562 215.873 346.59 215.606 346.554 215.345C346.518 215.083 346.42 214.834 346.269 214.617C345.251 213.064 347.09 210.942 347.09 210.942C347.09 210.942 347.21 212.811 348.633 213.984C349.852 214.999 350.447 217.254 349.61 219.106C347.838 225.981 345.191 235.073 355.522 241.717C365.853 248.361 380.42 229.179 380.42 229.179L373.193 252.057C373.193 252.057 362.04 260.272 349.066 248.719C336.092 237.165 344.692 220.341 344.692 220.341C344.692 220.341 334.788 216.358 339.187 207.963Z" fill="url(#paint23_linear_68_1498)"/>
<path d="M382.221 195.569C382.221 195.569 379.225 182.151 394.616 185.702C394.616 185.702 402.081 184.485 402.466 191.525C402.466 191.525 407.282 194.694 403.755 200.789C403.755 200.789 418.067 195.268 424.302 207.788C430.538 220.307 424.806 227.207 418.798 229.002C418.798 229.002 423.673 231.437 421.36 236.955C419.048 242.473 407.387 246.351 400.489 239.649C400.489 239.649 380.874 242.236 381.267 228.401C381.267 228.401 372.143 222.518 381.724 211.084C391.305 199.651 382.221 195.569 382.221 195.569Z" fill="url(#paint24_linear_68_1498)"/>
<path d="M381.374 226.668C384.467 225.743 393.472 224.033 402.037 231.927C402.75 232.583 403.269 233.423 403.538 234.354C403.806 235.284 403.814 236.271 403.561 237.206C401.26 245.663 395.191 270.651 400.514 281.464C400.514 281.464 391.135 291.789 380.904 283.466C380.904 283.466 376.313 263.485 370.3 254.711C366.149 248.655 376.92 231.971 379.645 227.934C380.059 227.326 380.669 226.879 381.374 226.668Z" fill="url(#paint25_linear_68_1498)"/>
<path d="M389.919 209.866C389.919 209.866 394.49 222.786 394.837 228.485C394.837 228.485 389.782 230.781 385.02 226.906C385.02 226.906 384.52 214.001 383.801 211.692L389.919 209.866Z" fill="url(#paint26_linear_68_1498)"/>
<path d="M383.561 192.251C383.561 192.251 371.599 208.968 378.75 213.825C385.901 218.681 394.416 206.8 394.416 206.8C394.416 206.8 397.192 197.649 394.289 194.545C391.387 191.441 383.561 192.251 383.561 192.251Z" fill="url(#paint27_linear_68_1498)"/>
<path d="M389.096 188.254C389.096 188.254 383.601 189.555 382.832 192.038C382.063 194.521 390.625 196.824 393.024 196.937L394.957 206.957C394.957 206.957 400.673 197.524 398.41 192.086C396.146 186.649 389.096 188.254 389.096 188.254Z" fill="url(#paint28_linear_68_1498)"/>
<path d="M392.098 205.569C392.098 205.569 396.753 200.185 398.606 203.695C400.459 207.205 394.415 209.842 392.323 208.118L392.098 205.569Z" fill="url(#paint29_linear_68_1498)"/>
<path d="M368.963 325.418C368.998 326.331 367.403 333.52 366.534 337.359C366.185 338.902 366.429 340.52 367.217 341.892L397.273 392.413C397.636 393.024 397.902 393.687 398.063 394.379C398.614 396.749 399.755 402.559 399.16 407.845L397.604 411.07L404.329 409.549L405.793 391.514L403.888 390.355C402.245 389.353 400.964 387.854 400.232 386.076C397.514 379.484 390.765 362.701 389.025 354.522C387.045 345.226 376.711 337.677 376.711 337.677L378.527 333.389L368.963 325.418Z" fill="url(#paint30_linear_68_1498)"/>
<path d="M411.804 403.34C411.804 403.34 408.172 397.59 407.746 395.351C407.319 393.111 406.129 389.162 403.89 390.351C403.89 390.351 402.835 401.224 403.198 405.471C403.561 409.719 398.39 409.579 398.39 409.579C398.39 409.579 396.964 409.78 395.92 410.822C395.2 411.542 395.715 412.791 396.732 412.856C399.14 413.023 401.56 412.89 403.935 412.459C404.415 412.366 404.85 412.115 405.172 411.748C405.493 411.381 405.684 410.917 405.713 410.43L406.458 397.916L411.039 403.697L411.804 403.34Z" fill="url(#paint31_linear_68_1498)"/>
<path d="M386.918 333.465C386.918 333.465 387.984 378.652 388.121 385.074C388.259 391.496 387.107 405.715 380.664 409.967L383.467 412.039C383.467 412.039 386.971 409.065 390.395 403.343C394.238 396.913 395.402 395.736 395.402 395.736L394.126 393.127C393.567 391.985 393.403 390.691 393.659 389.446C395.05 382.717 399.695 360.334 400.961 355.518C402.457 349.828 402.564 342.23 397.361 335.871C392.159 329.511 386.918 333.465 386.918 333.465Z" fill="url(#paint32_linear_68_1498)"/>
<path d="M392.867 414.076C392.963 414.078 393.057 414.044 393.13 413.982C393.203 413.919 393.251 413.832 393.265 413.737C393.479 412.231 394.372 406.191 395.102 404.627C395.938 402.836 398.671 395.298 395.102 394.657C395.102 394.657 386.225 407.61 384.52 409.357C382.815 411.104 380.665 409.966 380.665 409.966C379.516 410.371 378.505 411.095 377.752 412.053C377.62 412.226 377.539 412.433 377.517 412.65C377.496 412.868 377.536 413.086 377.632 413.282C377.728 413.478 377.877 413.643 378.062 413.759C378.247 413.875 378.46 413.938 378.679 413.94L384.658 413.996C385.506 414.003 386.337 413.754 387.041 413.282C387.745 412.809 388.289 412.135 388.603 411.349C389.655 408.724 391.464 404.872 393.571 403.165L392.475 413.635C392.47 413.69 392.476 413.746 392.493 413.799C392.51 413.851 392.538 413.9 392.575 413.941C392.612 413.983 392.657 414.016 392.708 414.039C392.758 414.062 392.813 414.074 392.868 414.075L392.867 414.076Z" fill="url(#paint33_linear_68_1498)"/>
<path d="M379.492 278.595C379.492 278.595 380.839 282.884 378.77 289.948L365.927 334.733C365.83 335.071 365.865 335.434 366.027 335.748C366.188 336.061 366.463 336.302 366.795 336.42C370.637 337.797 383.264 341.689 400.502 340.502C400.924 340.475 401.326 340.312 401.648 340.038C401.969 339.763 402.193 339.392 402.286 338.98C403.423 333.875 407.297 316.456 408.095 312.876C411.142 299.238 414.53 284.53 399.596 275.636C392.714 278.574 386.294 280.316 379.492 278.595Z" fill="url(#paint34_linear_68_1498)"/>
<path d="M403.262 233.615C403.262 233.615 417.874 245.741 421.5 262.311C425.126 278.881 400.148 280.643 400.148 280.643C400.148 280.643 396.759 276.862 392.732 278.208C388.706 279.555 392.427 271.61 397.13 271.63C401.833 271.65 399.659 275.371 406.322 272.357C412.812 269.421 416.824 260.338 400.264 246.576C399.298 245.782 398.546 244.76 398.077 243.602C394.86 235.517 397.411 230.215 403.262 233.615Z" fill="url(#paint35_linear_68_1498)"/>
<path d="M311.833 357.42H306.621V413.707H311.833V357.42Z" fill="#7D97F4"/>
<path d="M332.049 414.792H286.402V411.781C286.402 411.731 286.412 411.682 286.431 411.636C286.449 411.591 286.477 411.549 286.512 411.514C286.547 411.479 286.589 411.451 286.634 411.432C286.68 411.413 286.729 411.403 286.779 411.403H331.673C331.722 411.403 331.771 411.413 331.817 411.432C331.863 411.451 331.904 411.479 331.939 411.514C331.974 411.549 332.002 411.591 332.021 411.636C332.04 411.682 332.049 411.731 332.049 411.781V414.792Z" fill="#7D97F4"/>
<path d="M334.726 344.018H285.644C282.354 344.018 279.688 346.681 279.688 349.967V355.345C279.688 358.63 282.354 361.294 285.644 361.294H334.726C338.016 361.294 340.683 358.63 340.683 355.345V349.967C340.683 346.681 338.016 344.018 334.726 344.018Z" fill="#7D97F4"/>
<path d="M263.024 396.614C263.024 396.614 246.176 403.86 247.142 411.446C247.142 411.446 264.558 408.109 267.675 403.137C270.792 398.165 269.074 395.287 269.074 395.287L263.024 396.614Z" fill="url(#paint36_linear_68_1498)"/>
<path d="M267.153 388.329L268.009 395.714C268.077 396.256 267.962 396.805 267.682 397.274C267.401 397.743 266.971 398.104 266.461 398.301C265.774 398.529 265.052 398.639 264.328 398.626C263.703 398.632 263.093 398.432 262.593 398.057C262.093 397.682 261.73 397.154 261.56 396.553L259.902 390.58L267.153 388.329Z" fill="url(#paint37_linear_68_1498)"/>
<path d="M303.959 331.7C303.959 331.7 272.97 330.267 257.549 339.248C242.129 348.229 258.331 391.333 258.331 391.333C258.331 391.333 262.359 392.197 268.159 389.101C268.159 389.101 259.882 357.548 274.253 352.059C290.417 345.888 307.137 347.388 307.137 347.388L304.038 332.674L303.959 331.7Z" fill="url(#paint38_linear_68_1498)"/>
<path d="M250.528 408.117C254.052 407.346 264.502 403.022 266.089 403.08C267.676 403.137 269.925 405.514 269.925 405.514C269.925 405.514 270.312 406.812 269.177 408.675C266.485 410.774 260.685 414.623 253.942 415.044C248.983 415.348 245.999 413.383 244.291 411.472C245.784 410.025 248.182 408.63 250.528 408.117Z" fill="url(#paint39_linear_68_1498)"/>
<path d="M253.94 415.046C260.684 414.624 266.484 410.775 269.175 408.677C268.413 409.937 266.946 411.454 264.199 413.005C257.384 416.85 246.121 416.289 243.888 415.423C242.099 414.731 242.652 413.062 244.287 411.467C245.996 413.381 248.981 415.35 253.94 415.046Z" fill="url(#paint40_linear_68_1498)"/>
<path d="M273.624 401.648C273.394 402.518 270.926 405.137 269.499 406.596C269.166 406.937 268.751 407.188 268.295 407.326C267.838 407.463 267.353 407.482 266.887 407.381C266.237 407.249 265.609 407.028 265.019 406.725C264.598 406.489 264.288 406.096 264.156 405.633C264.024 405.169 264.081 404.672 264.314 404.25L267.923 397.695L273.624 401.648Z" fill="url(#paint41_linear_68_1498)"/>
<path d="M334.673 329.105C334.673 329.105 337.377 348.275 329.556 352.186C321.734 356.098 304.58 358.668 298.672 368.607C292.764 378.547 282.149 398.057 272.492 403.662C272.492 403.662 266.977 401.872 265.365 399.162C265.365 399.162 276.828 369.068 281.61 361.755C285.752 355.419 291.808 346.294 300.411 342.347C302.875 341.217 303.067 338.608 302.634 335.936L301.845 331.067L334.673 329.105Z" fill="url(#paint42_linear_68_1498)"/>
<path d="M262.183 307.379C273.152 310.505 278.056 279.689 278.012 278.937L294.823 298.564C294.823 298.564 284.806 316.167 269.686 318.038C265.859 318.513 262.603 317.851 259.873 316.602C261.579 313.84 262.386 310.618 262.183 307.379Z" fill="url(#paint43_linear_68_1498)"/>
<path d="M241.875 297.287C246.654 295.326 250.711 299.241 250.711 299.241C255.446 304.08 259.203 306.525 262.185 307.374C262.387 310.616 261.578 313.84 259.869 316.603C253.961 313.901 250.516 308.436 249.098 305.71C248.855 305.236 248.436 304.876 247.931 304.705C247.425 304.535 246.874 304.568 246.392 304.797C245.379 305.285 244.336 306.032 244.27 307.046C244.141 309.045 241.759 309.162 241.746 308.424C241.732 307.686 243.591 303.738 243.591 303.738C243.591 303.738 238.106 307.256 235.961 308.607C233.816 309.958 232 307.732 232 307.732C232 307.732 237.096 299.253 241.875 297.287Z" fill="url(#paint44_linear_68_1498)"/>
<path d="M330.449 266.25C330.449 266.25 315.714 256.208 280.125 274.367C280.125 274.367 276.46 279.007 278.177 284.236C279.894 289.465 301.029 317.775 301.845 331.064C301.845 331.064 316.29 339.555 335.041 331.137C335.041 331.143 341.328 296.053 330.449 266.25Z" fill="url(#paint45_linear_68_1498)"/>
<path d="M299.763 253.42L305.585 264.815C305.872 265.369 305.994 265.993 305.934 266.614C305.875 267.235 305.637 267.825 305.25 268.314C303.646 270.32 300.299 273.017 294.586 271.278C293.75 271.024 292.995 270.556 292.397 269.92C291.799 269.284 291.378 268.503 291.176 267.654L288.158 254.935L299.763 253.42Z" fill="url(#paint46_linear_68_1498)"/>
<path d="M341.36 306.048C342.356 299.12 324.027 285.694 324.027 285.694L330.447 266.25C330.447 266.25 365.423 291.176 358.068 311.532C357.014 314.45 355.44 316.576 353.523 318.084C349.818 310.504 344.795 307.351 341.36 306.048Z" fill="url(#paint47_linear_68_1498)"/>
<path d="M315.788 307.969C315.788 307.969 336.521 313.751 340.824 307.45C341.108 307.03 341.291 306.55 341.36 306.048C344.795 307.351 349.818 310.504 353.523 318.09C343.679 325.823 324.698 317.154 319.541 314.554C318.694 314.127 317.715 314.045 316.809 314.326C314.981 314.898 311.797 315.786 310.025 315.695C307.435 315.552 304.653 324.903 300.244 322.541C300.244 322.529 302.248 306.554 315.788 307.969Z" fill="url(#paint48_linear_68_1498)"/>
<path d="M292.301 234.798C292.115 234.95 284.435 248.355 280.524 255.185C280.243 255.676 280.069 256.222 280.013 256.786C279.958 257.349 280.023 257.918 280.203 258.455C280.384 258.992 280.676 259.485 281.06 259.901C281.445 260.317 281.913 260.648 282.434 260.87L284.129 261.594C286.443 262.586 291.42 263.42 293.379 261.835L305.728 248.819C305.728 248.819 296.454 231.207 292.301 234.798Z" fill="url(#paint49_linear_68_1498)"/>
<path d="M309.206 245.266C310.72 244.417 312.541 242.697 311.124 239.654C309.683 236.561 306.835 236.292 305.001 236.489C304.643 236.525 304.284 236.434 303.986 236.232C303.689 236.03 303.471 235.73 303.372 235.385C303.251 234.979 302.949 234.624 302.298 234.518C302.091 234.481 301.894 234.401 301.719 234.284C301.545 234.167 301.397 234.015 301.284 233.837C301.172 233.659 301.098 233.46 301.068 233.252C301.037 233.044 301.051 232.832 301.107 232.629C301.546 230.985 301.471 228.751 298.822 227.152C294.122 224.31 289.728 228.438 288.505 232.021C287.281 235.604 292.553 238.402 295.918 238.971C298.476 239.404 299.727 242.351 300.176 243.739C300.246 243.956 300.266 244.186 300.235 244.412C300.204 244.638 300.122 244.854 299.996 245.044L296.243 250.741C297.274 252.038 298.19 253.409 299.091 254.795C299.43 254.433 299.725 254.13 299.955 253.919C301.585 252.426 304.486 253.196 305.681 253.615C305.874 253.681 306.078 253.708 306.282 253.693C306.486 253.678 306.684 253.622 306.866 253.528C308.165 252.857 310.79 250.972 308.639 247.406C308.531 247.229 308.461 247.033 308.431 246.828C308.401 246.624 308.413 246.415 308.466 246.215C308.519 246.016 308.612 245.829 308.739 245.665C308.866 245.502 309.025 245.367 309.206 245.266Z" fill="url(#paint50_linear_68_1498)"/>
<path d="M297.727 257.234C297.727 257.234 300.128 251.074 302.855 251.418C305.582 251.762 307.625 254.575 304.104 257.494C299.728 261.127 297.727 257.234 297.727 257.234Z" fill="url(#paint51_linear_68_1498)"/>
<path d="M289.315 321.154H289.203L240.764 321.102C240.199 321.087 239.662 320.852 239.268 320.448C238.873 320.043 238.652 319.501 238.652 318.936C238.652 318.372 238.873 317.829 239.268 317.425C239.662 317.02 240.199 316.785 240.764 316.771L289.211 316.824C289.782 316.815 290.334 317.032 290.745 317.428C291.157 317.823 291.396 318.365 291.41 318.935C291.424 319.506 291.212 320.058 290.821 320.473C290.429 320.889 289.889 321.133 289.318 321.152L289.315 321.154Z" fill="url(#paint52_linear_68_1498)"/>
<path d="M197.22 277.233H237.56C239.018 277.233 240.446 277.647 241.677 278.427C242.908 279.206 243.892 280.319 244.514 281.636L263.165 321.128H213.031C212.094 321.128 211.178 320.847 210.403 320.32C209.628 319.794 209.03 319.047 208.686 318.176L194.223 281.633C194.03 281.145 193.96 280.617 194.018 280.096C194.076 279.575 194.26 279.075 194.556 278.641C194.851 278.207 195.249 277.852 195.713 277.607C196.177 277.362 196.695 277.233 197.22 277.233Z" fill="url(#paint53_linear_68_1498)"/>
<path d="M225.639 297.482C226.513 300.193 225.867 302.828 224.198 303.365C222.528 303.902 220.464 302.139 219.589 299.426C218.715 296.714 219.361 294.08 221.032 293.543C222.703 293.006 224.774 294.769 225.639 297.482Z" fill="#91B3FA"/>
<path d="M203.757 424.906C203.482 424.906 203.209 424.851 202.955 424.745C202.711 424.649 202.49 424.505 202.304 424.322C202.118 424.138 201.971 423.919 201.871 423.678C201.772 423.436 201.722 423.177 201.725 422.916C201.728 422.655 201.783 422.398 201.888 422.158L244.578 326.211C244.803 325.726 245.208 325.348 245.707 325.156C246.206 324.964 246.76 324.973 247.253 325.181C247.496 325.277 247.717 325.421 247.903 325.605C248.089 325.788 248.236 326.007 248.336 326.248C248.435 326.49 248.485 326.748 248.482 327.009C248.479 327.27 248.424 327.528 248.319 327.767L205.628 423.718C205.464 424.075 205.201 424.377 204.869 424.588C204.537 424.799 204.151 424.909 203.757 424.906Z" fill="#91B3FA"/>
<path d="M251.851 424.906C251.458 424.909 251.071 424.799 250.739 424.587C250.407 424.376 250.144 424.073 249.98 423.715L207.289 327.766C207.185 327.527 207.13 327.269 207.127 327.008C207.124 326.747 207.174 326.488 207.274 326.247C207.373 326.006 207.52 325.787 207.706 325.603C207.892 325.42 208.113 325.276 208.356 325.179C208.848 324.972 209.402 324.963 209.901 325.155C210.4 325.347 210.804 325.725 211.03 326.21L253.719 422.16C253.824 422.399 253.879 422.657 253.882 422.918C253.884 423.179 253.834 423.438 253.735 423.679C253.635 423.92 253.488 424.139 253.302 424.322C253.116 424.506 252.896 424.65 252.653 424.746C252.399 424.852 252.126 424.906 251.851 424.906Z" fill="#91B3FA"/>
<path d="M335.903 424.906C335.627 424.906 335.353 424.851 335.099 424.745C334.856 424.649 334.635 424.505 334.449 424.321C334.262 424.138 334.115 423.919 334.016 423.678C333.916 423.436 333.866 423.177 333.869 422.916C333.872 422.655 333.927 422.398 334.032 422.158L376.722 326.21C376.947 325.725 377.352 325.347 377.851 325.155C378.35 324.962 378.904 324.971 379.397 325.18C379.64 325.276 379.861 325.42 380.047 325.603C380.234 325.786 380.381 326.005 380.48 326.246C380.58 326.488 380.63 326.747 380.627 327.008C380.624 327.269 380.568 327.527 380.463 327.766L337.774 423.718C337.61 424.075 337.346 424.377 337.014 424.588C336.682 424.799 336.296 424.909 335.903 424.906Z" fill="#91B3FA"/>
<path d="M383.996 424.906C383.602 424.909 383.216 424.799 382.884 424.587C382.552 424.376 382.288 424.073 382.125 423.715L339.434 327.766C339.33 327.527 339.274 327.269 339.272 327.008C339.269 326.747 339.319 326.488 339.418 326.247C339.518 326.006 339.665 325.787 339.851 325.603C340.037 325.42 340.258 325.276 340.5 325.179C340.993 324.972 341.547 324.963 342.046 325.155C342.544 325.347 342.949 325.725 343.174 326.21L385.865 422.158C385.97 422.398 386.025 422.655 386.028 422.916C386.03 423.177 385.98 423.436 385.881 423.677C385.781 423.919 385.634 424.137 385.448 424.321C385.263 424.504 385.042 424.648 384.799 424.745C384.544 424.851 384.272 424.906 383.996 424.906Z" fill="#91B3FA"/>
<path d="M389.005 323.249C389.059 322.941 389.051 322.626 388.982 322.321C388.912 322.016 388.782 321.728 388.599 321.475C388.432 321.237 388.21 321.042 387.953 320.907C387.695 320.771 387.41 320.697 387.118 320.693H192.908C192.524 320.701 192.15 320.811 191.822 321.011C191.495 321.212 191.227 321.496 191.046 321.834C190.845 322.192 190.727 322.591 190.702 323.001C190.677 323.411 190.745 323.821 190.902 324.201L193.006 329.294C193.488 330.46 194.529 331.207 195.681 331.207H385.784C386.85 331.207 387.764 330.36 387.975 329.185L389.005 323.249Z" fill="#91B3FA"/>
</g>
<defs>
<linearGradient id="paint0_linear_68_1498" x1="477.67" y1="549.287" x2="100.4" y2="80.1081" gradientUnits="userSpaceOnUse">
<stop stop-color="#FE993C"/>
<stop offset="1" stop-color="#F1CDAC"/>
</linearGradient>
<linearGradient id="paint1_linear_68_1498" x1="305.586" y1="47.0745" x2="-8.3846" y2="464.485" gradientUnits="userSpaceOnUse">
<stop stop-color="#EA4A49"/>
<stop offset="1" stop-color="#F1B0B0"/>
</linearGradient>
<linearGradient id="paint2_linear_68_1498" x1="305.586" y1="47.0745" x2="-8.38396" y2="464.484" gradientUnits="userSpaceOnUse">
<stop stop-color="#EE8686"/>
<stop offset="1" stop-color="#EB5857"/>
</linearGradient>
<linearGradient id="paint3_linear_68_1498" x1="146.734" y1="198.409" x2="287.372" y2="113.216" gradientUnits="userSpaceOnUse">
<stop stop-color="#09005D"/>
<stop offset="1" stop-color="#1A0F91"/>
</linearGradient>
<linearGradient id="paint4_linear_68_1498" x1="194.18" y1="198.384" x2="293.694" y2="115.73" gradientUnits="userSpaceOnUse">
<stop stop-color="#09005D"/>
<stop offset="1" stop-color="#1A0F91"/>
</linearGradient>
<linearGradient id="paint5_linear_68_1498" x1="80.3413" y1="405.715" x2="-1.04872" y2="492.704" gradientUnits="userSpaceOnUse">
<stop stop-color="#09005D"/>
<stop offset="1" stop-color="#1A0F91"/>
</linearGradient>
<linearGradient id="paint6_linear_68_1498" x1="54.0932" y1="411.977" x2="61.2593" y2="412.044" gradientUnits="userSpaceOnUse">
<stop stop-color="#FEBBBA"/>
<stop offset="1" stop-color="#FF928E"/>
</linearGradient>
<linearGradient id="paint7_linear_68_1498" x1="87.6333" y1="306.658" x2="18.2202" y2="399.031" gradientUnits="userSpaceOnUse">
<stop stop-color="#09005D"/>
<stop offset="1" stop-color="#1A0F91"/>
</linearGradient>
<linearGradient id="paint8_linear_68_1498" x1="62.3989" y1="388.925" x2="-18.9941" y2="475.918" gradientUnits="userSpaceOnUse">
<stop stop-color="#09005D"/>
<stop offset="1" stop-color="#1A0F91"/>
</linearGradient>
<linearGradient id="paint9_linear_68_1498" x1="28.2674" y1="411.366" x2="34.454" y2="411.424" gradientUnits="userSpaceOnUse">
<stop stop-color="#FEBBBA"/>
<stop offset="1" stop-color="#FF928E"/>
</linearGradient>
<linearGradient id="paint10_linear_68_1498" x1="75.4829" y1="297.527" x2="6.06987" y2="389.899" gradientUnits="userSpaceOnUse">
<stop stop-color="#09005D"/>
<stop offset="1" stop-color="#1A0F91"/>
</linearGradient>
<linearGradient id="paint11_linear_68_1498" x1="-2108.42" y1="-1327.94" x2="-2035.37" y2="-1273.85" gradientUnits="userSpaceOnUse">
<stop stop-color="#FF928E"/>
<stop offset="1" stop-color="#FE7062"/>
</linearGradient>
<linearGradient id="paint12_linear_68_1498" x1="85.3521" y1="225.539" x2="121.966" y2="225.885" gradientUnits="userSpaceOnUse">
<stop stop-color="#FEBBBA"/>
<stop offset="1" stop-color="#FF928E"/>
</linearGradient>
<linearGradient id="paint13_linear_68_1498" x1="113.81" y1="220.205" x2="88.7379" y2="275.811" gradientUnits="userSpaceOnUse">
<stop stop-color="#FEBBBA"/>
<stop offset="1" stop-color="#FF928E"/>
</linearGradient>
<linearGradient id="paint14_linear_68_1498" x1="122.025" y1="201.163" x2="132.406" y2="185.507" gradientUnits="userSpaceOnUse">
<stop stop-color="#FEBBBA"/>
<stop offset="1" stop-color="#FF928E"/>
</linearGradient>
<linearGradient id="paint15_linear_68_1498" x1="-2113.59" y1="-1320.96" x2="-2040.54" y2="-1266.87" gradientUnits="userSpaceOnUse">
<stop stop-color="#FF928E"/>
<stop offset="1" stop-color="#FE7062"/>
</linearGradient>
<linearGradient id="paint16_linear_68_1498" x1="4.74401" y1="276.574" x2="51.0787" y2="277.011" gradientUnits="userSpaceOnUse">
<stop stop-color="#FEBBBA"/>
<stop offset="1" stop-color="#FF928E"/>
</linearGradient>
<linearGradient id="paint17_linear_68_1498" x1="38.8825" y1="251.199" x2="56.3531" y2="217.241" gradientUnits="userSpaceOnUse">
<stop stop-color="#FEBBBA"/>
<stop offset="1" stop-color="#FF928E"/>
</linearGradient>
<linearGradient id="paint18_linear_68_1498" x1="63.293" y1="212.326" x2="43.2696" y2="199.902" gradientUnits="userSpaceOnUse">
<stop stop-color="#FEBBBA"/>
<stop offset="1" stop-color="#FF928E"/>
</linearGradient>
<linearGradient id="paint19_linear_68_1498" x1="32.6953" y1="186.93" x2="58.521" y2="207.654" gradientUnits="userSpaceOnUse">
<stop stop-color="#09005D"/>
<stop offset="1" stop-color="#1A0F91"/>
</linearGradient>
<linearGradient id="paint20_linear_68_1498" x1="57.9734" y1="216.86" x2="39.959" y2="205.682" gradientUnits="userSpaceOnUse">
<stop stop-color="#FEBBBA"/>
<stop offset="1" stop-color="#FF928E"/>
</linearGradient>
<linearGradient id="paint21_linear_68_1498" x1="63.5769" y1="247.349" x2="89.0804" y2="353.755" gradientUnits="userSpaceOnUse">
<stop stop-color="#09005D"/>
<stop offset="1" stop-color="#1A0F91"/>
</linearGradient>
<linearGradient id="paint22_linear_68_1498" x1="46.0556" y1="275.494" x2="60.5424" y2="275.494" gradientUnits="userSpaceOnUse">
<stop stop-color="#FEBBBA"/>
<stop offset="1" stop-color="#FF928E"/>
</linearGradient>
<linearGradient id="paint23_linear_68_1498" x1="337.806" y1="195.185" x2="376.765" y2="257.097" gradientUnits="userSpaceOnUse">
<stop stop-color="#FEBBBA"/>
<stop offset="1" stop-color="#FF928E"/>
</linearGradient>
<linearGradient id="paint24_linear_68_1498" x1="442.696" y1="186.185" x2="403.471" y2="212.377" gradientUnits="userSpaceOnUse">
<stop stop-color="#09005D"/>
<stop offset="1" stop-color="#1A0F91"/>
</linearGradient>
<linearGradient id="paint25_linear_68_1498" x1="431.658" y1="190.519" x2="403.391" y2="234.263" gradientUnits="userSpaceOnUse">
<stop stop-color="#FF928E"/>
<stop offset="1" stop-color="#FE7062"/>
</linearGradient>
<linearGradient id="paint26_linear_68_1498" x1="382.674" y1="234.947" x2="389.944" y2="218.778" gradientUnits="userSpaceOnUse">
<stop stop-color="#FEBBBA"/>
<stop offset="1" stop-color="#FF928E"/>
</linearGradient>
<linearGradient id="paint27_linear_68_1498" x1="382.295" y1="195.671" x2="397.053" y2="227.66" gradientUnits="userSpaceOnUse">
<stop stop-color="#FEBBBA"/>
<stop offset="1" stop-color="#FF928E"/>
</linearGradient>
<linearGradient id="paint28_linear_68_1498" x1="432.143" y1="170.384" x2="392.918" y2="196.575" gradientUnits="userSpaceOnUse">
<stop stop-color="#09005D"/>
<stop offset="1" stop-color="#1A0F91"/>
</linearGradient>
<linearGradient id="paint29_linear_68_1498" x1="389.253" y1="192.462" x2="404.01" y2="224.449" gradientUnits="userSpaceOnUse">
<stop stop-color="#FEBBBA"/>
<stop offset="1" stop-color="#FF928E"/>
</linearGradient>
<linearGradient id="paint30_linear_68_1498" x1="423.276" y1="435.793" x2="369.146" y2="337.839" gradientUnits="userSpaceOnUse">
<stop stop-color="#FEBBBA"/>
<stop offset="1" stop-color="#FF928E"/>
</linearGradient>
<linearGradient id="paint31_linear_68_1498" x1="411.585" y1="401.257" x2="395.445" y2="401.095" gradientUnits="userSpaceOnUse">
<stop stop-color="#09005D"/>
<stop offset="1" stop-color="#1A0F91"/>
</linearGradient>
<linearGradient id="paint32_linear_68_1498" x1="361.423" y1="363.157" x2="443.718" y2="390.419" gradientUnits="userSpaceOnUse">
<stop stop-color="#FEBBBA"/>
<stop offset="1" stop-color="#FF928E"/>
</linearGradient>
<linearGradient id="paint33_linear_68_1498" x1="396.591" y1="404.019" x2="377.351" y2="403.826" gradientUnits="userSpaceOnUse">
<stop stop-color="#09005D"/>
<stop offset="1" stop-color="#1A0F91"/>
</linearGradient>
<linearGradient id="paint34_linear_68_1498" x1="454.173" y1="260.621" x2="407.875" y2="296.164" gradientUnits="userSpaceOnUse">
<stop stop-color="#09005D"/>
<stop offset="1" stop-color="#1A0F91"/>
</linearGradient>
<linearGradient id="paint35_linear_68_1498" x1="421.532" y1="287.873" x2="343.566" y2="173.21" gradientUnits="userSpaceOnUse">
<stop stop-color="#FEBBBA"/>
<stop offset="1" stop-color="#FF928E"/>
</linearGradient>
<linearGradient id="paint36_linear_68_1498" x1="250.893" y1="384.53" x2="255.915" y2="404.26" gradientUnits="userSpaceOnUse">
<stop stop-color="#09005D"/>
<stop offset="1" stop-color="#1A0F91"/>
</linearGradient>
<linearGradient id="paint37_linear_68_1498" x1="266.455" y1="395.418" x2="257.474" y2="393.4" gradientUnits="userSpaceOnUse">
<stop stop-color="#FEBBBA"/>
<stop offset="1" stop-color="#FF928E"/>
</linearGradient>
<linearGradient id="paint38_linear_68_1498" x1="284.219" y1="374.473" x2="258.12" y2="312.468" gradientUnits="userSpaceOnUse">
<stop stop-color="#09005D"/>
<stop offset="1" stop-color="#1A0F91"/>
</linearGradient>
<linearGradient id="paint39_linear_68_1498" x1="252.102" y1="403.605" x2="274.133" y2="451.454" gradientUnits="userSpaceOnUse">
<stop stop-color="#09005D"/>
<stop offset="1" stop-color="#1A0F91"/>
</linearGradient>
<linearGradient id="paint40_linear_68_1498" x1="265.756" y1="415.952" x2="241.606" y2="410.524" gradientUnits="userSpaceOnUse">
<stop stop-color="#4F52FF"/>
<stop offset="1" stop-color="#4042E2"/>
</linearGradient>
<linearGradient id="paint41_linear_68_1498" x1="271.089" y1="405.152" x2="262.66" y2="403.258" gradientUnits="userSpaceOnUse">
<stop stop-color="#FEBBBA"/>
<stop offset="1" stop-color="#FF928E"/>
</linearGradient>
<linearGradient id="paint42_linear_68_1498" x1="291.993" y1="404.179" x2="305.91" y2="332.271" gradientUnits="userSpaceOnUse">
<stop stop-color="#09005D"/>
<stop offset="1" stop-color="#1A0F91"/>
</linearGradient>
<linearGradient id="paint43_linear_68_1498" x1="320.687" y1="264.392" x2="238.13" y2="328.519" gradientUnits="userSpaceOnUse">
<stop stop-color="#FF928E"/>
<stop offset="1" stop-color="#FE7062"/>
</linearGradient>
<linearGradient id="paint44_linear_68_1498" x1="260.668" y1="309.745" x2="231.267" y2="303.136" gradientUnits="userSpaceOnUse">
<stop stop-color="#FEBBBA"/>
<stop offset="1" stop-color="#FF928E"/>
</linearGradient>
<linearGradient id="paint45_linear_68_1498" x1="225.677" y1="353.279" x2="304.399" y2="304.591" gradientUnits="userSpaceOnUse">
<stop stop-color="#FF928E"/>
<stop offset="1" stop-color="#FE7062"/>
</linearGradient>
<linearGradient id="paint46_linear_68_1498" x1="304.955" y1="265.257" x2="285.448" y2="260.872" gradientUnits="userSpaceOnUse">
<stop stop-color="#FEBBBA"/>
<stop offset="1" stop-color="#FF928E"/>
</linearGradient>
<linearGradient id="paint47_linear_68_1498" x1="230.438" y1="360.976" x2="309.159" y2="312.289" gradientUnits="userSpaceOnUse">
<stop stop-color="#FF928E"/>
<stop offset="1" stop-color="#FE7062"/>
</linearGradient>
<linearGradient id="paint48_linear_68_1498" x1="322.166" y1="315.067" x2="399.795" y2="423.524" gradientUnits="userSpaceOnUse">
<stop stop-color="#FEBBBA"/>
<stop offset="1" stop-color="#FF928E"/>
</linearGradient>
<linearGradient id="paint49_linear_68_1498" x1="296.186" y1="239.171" x2="286.174" y2="284.867" gradientUnits="userSpaceOnUse">
<stop stop-color="#FEBBBA"/>
<stop offset="1" stop-color="#FF928E"/>
</linearGradient>
<linearGradient id="paint50_linear_68_1498" x1="309.617" y1="251.465" x2="290.323" y2="228.876" gradientUnits="userSpaceOnUse">
<stop stop-color="#09005D"/>
<stop offset="1" stop-color="#1A0F91"/>
</linearGradient>
<linearGradient id="paint51_linear_68_1498" x1="299.767" y1="282.8" x2="302.351" y2="254.356" gradientUnits="userSpaceOnUse">
<stop stop-color="#FEBBBA"/>
<stop offset="1" stop-color="#FF928E"/>
</linearGradient>
<linearGradient id="paint52_linear_68_1498" x1="297.482" y1="308.344" x2="259.039" y2="320.968" gradientUnits="userSpaceOnUse">
<stop stop-color="#09005D"/>
<stop offset="1" stop-color="#1A0F91"/>
</linearGradient>
<linearGradient id="paint53_linear_68_1498" x1="244.71" y1="283.123" x2="217.059" y2="312.388" gradientUnits="userSpaceOnUse">
<stop stop-color="#09005D"/>
<stop offset="1" stop-color="#1A0F91"/>
</linearGradient>
<clipPath id="clip0_68_1498">
<rect width="427" height="426" fill="white"/>
</clipPath>
</defs>
</svg>
