<svg width="30" height="29" viewBox="0 0 30 29" fill="none" xmlns="http://www.w3.org/2000/svg">
<path d="M19.4937 5.08044H10.5067C7.60673 5.08044 5.25586 7.35296 5.25586 10.1562V18.8437C5.25586 21.6469 7.60673 23.9194 10.5067 23.9194H19.4937C22.3936 23.9194 24.7445 21.6469 24.7445 18.8437V10.1562C24.7445 7.35296 22.3937 5.08044 19.4937 5.08044Z" stroke="white" stroke-width="2" stroke-miterlimit="10"/>
<path d="M14.9991 19.0474C17.5971 19.0474 19.7033 17.0114 19.7033 14.5C19.7033 11.9886 17.5971 9.95264 14.9991 9.95264C12.401 9.95264 10.2949 11.9886 10.2949 14.5C10.2949 17.0114 12.401 19.0474 14.9991 19.0474Z" stroke="white" stroke-width="2" stroke-miterlimit="10"/>
<path d="M20.7131 9.95266C21.2698 9.95266 21.7212 9.51639 21.7212 8.97822C21.7212 8.44006 21.2698 8.00378 20.7131 8.00378C20.1564 8.00378 19.7051 8.44006 19.7051 8.97822C19.7051 9.51639 20.1564 9.95266 20.7131 9.95266Z" fill="white"/>
</svg>
