<svg width="22" height="21" viewBox="0 0 22 21" fill="none" xmlns="http://www.w3.org/2000/svg">
<g clip-path="url(#clip0_113_270)">
<path d="M18.7413 17.8966H15.4873V13.0226C15.4873 11.8604 15.4619 10.3668 13.7858 10.3668C12.089 10.3668 11.8305 11.6274 11.8305 12.9367V17.8959H8.57244V7.87434H11.7019V9.24131H11.7439C12.1811 8.45184 13.2447 7.62169 14.8314 7.62169C18.1321 7.62169 18.7447 9.69609 18.7447 12.3933V17.8959L18.7413 17.8966ZM4.89156 6.50475C3.84175 6.50475 3.00025 5.69428 3.00025 4.69613C3.00025 3.70125 3.84519 2.89209 4.89156 2.89209C5.93794 2.89209 6.78562 3.70125 6.78562 4.69613C6.78562 5.69428 5.93794 6.50475 4.89156 6.50475ZM6.52369 17.8966H3.25875V7.875H6.52369V17.8966ZM20.3748 0H1.6225C0.726687 0 0 0.676594 0 1.51397V19.4867C0 20.3241 0.726687 21.0007 1.6225 21.0007H20.3713C21.2658 21.0007 22 20.3241 22 19.4867V1.51397C22 0.676594 21.2658 0 20.3713 0L20.3748 0Z" fill="white"/>
</g>
<defs>
<clipPath id="clip0_113_270">
<rect width="22" height="21" fill="white"/>
</clipPath>
</defs>
</svg>
