<svg width="239" height="515" viewBox="0 0 239 515" fill="none" xmlns="http://www.w3.org/2000/svg">
<path d="M193.106 266.088C188.391 267.078 183.851 268.176 179.52 269.523L179.258 268.687C172.953 249.06 155.919 233.036 154.06 212.661C152.713 197.917 147.284 192.866 143.068 182.352C142.3 180.445 141.64 178.499 141.047 176.525C138.528 168.146 137.268 159.296 134.695 151.334L162.621 159.68C172.125 161.923 173.337 198.072 179.85 209.927C189.118 226.806 187.138 247.969 193.106 266.088Z" fill="#E8A273"/>
<path d="M179.565 269.435C179.464 269.186 179.363 268.937 179.256 268.688C172.951 249.06 155.917 233.036 154.058 212.662C152.711 197.917 147.282 192.866 143.066 182.352C142.298 180.446 141.638 178.499 141.045 176.525L151.93 173.771C154.624 175.987 154.785 187.525 155.243 192.186C155.843 198.248 155.607 203.784 155.978 209.866C156.698 221.66 163.885 233.185 169.327 243.753C173.2 251.283 179.592 261.009 179.565 269.435Z" fill="#C87E53"/>
<path d="M155.13 205.387C155.13 205.872 155.096 206.364 155.062 206.862C157.326 208.317 160.235 209.509 161.973 208.883C164.762 207.872 166.499 201.696 167.065 198.779C163.805 203.703 160.04 206.566 155.13 205.387Z" fill="#C87E53"/>
<path d="M196.284 285.627C194.607 289.439 190.949 293.642 188.875 296.067C185.925 296.593 184.726 297.125 182.207 295.104C180.752 293.939 179.62 291.911 178.468 290.463C176.993 288.591 177.014 288.793 177.687 286.88C177.912 286.26 178.154 285.661 178.415 285.082C178.839 284.145 179.297 283.25 179.762 282.354C180.9 280.064 181.93 277.807 181.897 275.039C181.897 272.951 181.802 271.173 182.671 269.395C183.068 268.664 183.533 267.971 184.059 267.327C184.625 266.646 185.08 265.88 185.406 265.057L192.815 265.104C194.243 269.078 196.472 276.831 197.146 281.384C197.253 282.851 196.955 284.318 196.284 285.627Z" fill="#E8A273"/>
<path d="M179.412 282.441L185.669 308.05L171.922 307.282L175.155 283.081L179.412 282.441Z" fill="#DD3514"/>
<path d="M233.763 310.003C233.763 311.036 233.353 312.026 232.623 312.756C231.892 313.486 230.902 313.896 229.87 313.896H142.032C140.999 313.896 140.009 313.486 139.279 312.756C138.549 312.026 138.139 311.036 138.139 310.003C138.139 308.971 138.549 307.98 139.279 307.25C140.009 306.52 140.999 306.11 142.032 306.11H229.87C230.902 306.11 231.892 306.52 232.623 307.25C233.353 307.98 233.763 308.971 233.763 310.003Z" fill="#FF4817"/>
<path d="M229.895 368.111V374.065C229.895 375.212 229.44 376.312 228.629 377.122C227.818 377.933 226.718 378.389 225.571 378.389H144.98C143.974 378.388 142.999 378.037 142.223 377.395C141.448 376.753 140.92 375.862 140.73 374.873C140.682 374.606 140.657 374.336 140.656 374.065V368.111C140.657 367.84 140.682 367.569 140.73 367.302C140.919 366.313 141.446 365.421 142.222 364.779C142.998 364.137 143.973 363.786 144.98 363.786H225.571C226.636 363.787 227.663 364.18 228.456 364.891C229.249 365.602 229.752 366.58 229.868 367.639C229.887 367.796 229.896 367.953 229.895 368.111Z" fill="#343B3F"/>
<path d="M225.544 315.338V323.683C225.544 325.832 220.863 329.509 216.64 332.069H141.202C137.161 329.603 132.486 325.899 132.486 323.683V315.338C132.486 315.216 132.486 315.102 132.486 314.981C132.608 311.613 134.507 308.919 136.804 308.919H221.213C223.524 308.919 225.41 311.613 225.538 314.981C225.538 315.102 225.544 315.216 225.544 315.338Z" fill="#1C262B"/>
<path d="M217.75 326.013V378.389H145.006C143.999 378.388 143.024 378.037 142.249 377.395C141.473 376.753 140.945 375.862 140.756 374.873V326.013H217.75Z" fill="#1C262B"/>
<path d="M231.437 326.013H169.1V373.613H231.437V326.013Z" fill="#343B3F"/>
<path d="M238.954 315.338V323.683C238.954 325.832 235.081 329.509 231.586 332.069H169.154C165.786 329.603 161.934 325.899 161.934 323.683V315.338C161.934 315.216 161.934 315.102 161.934 314.981C162.035 311.613 163.597 308.919 165.51 308.919H235.371C237.284 308.919 238.846 311.613 238.948 314.981C238.954 315.102 238.954 315.216 238.954 315.338Z" fill="#444C51"/>
<path d="M238.954 315.338V318.874H161.934V315.338C161.934 315.216 161.934 315.102 161.934 314.981H238.948C238.954 315.102 238.954 315.216 238.954 315.338Z" fill="#1C262B"/>
<path d="M231.459 368.111V374.065C231.459 376.449 229.856 378.389 227.876 378.389H172.429C170.449 378.389 168.846 376.449 168.846 374.065V368.111C168.846 367.578 168.928 367.049 169.088 366.541C169.282 365.783 169.714 365.107 170.32 364.611C170.926 364.115 171.674 363.827 172.456 363.786H231.432V367.639C231.451 367.796 231.46 367.953 231.459 368.111Z" fill="#343B3F"/>
<path d="M153.999 313.465H143.047V326.445H153.999V313.465Z" fill="#FF4817"/>
<path d="M152.949 313.465H149.016V326.445H152.949V313.465Z" fill="#343B3F"/>
<path d="M196.284 285.627C194.607 289.44 190.949 293.643 188.875 296.067C185.925 296.593 184.726 297.125 182.207 295.104C180.752 293.939 179.62 291.912 178.468 290.463C176.993 288.591 177.014 288.793 177.687 286.88C177.912 286.26 178.154 285.661 178.415 285.082C179.031 284.798 179.697 284.638 180.375 284.61C181.689 284.602 182.997 284.428 184.268 284.092C185.675 283.667 186.854 282.745 188.275 283.007C189.333 283.216 190.606 284.139 191.811 284.482C193.098 284.941 194.415 285.312 195.752 285.594C195.928 285.616 196.106 285.627 196.284 285.627Z" fill="#C87E53"/>
<path d="M188.419 281.162L196.474 308.218L183.219 308.562L184.775 285.324L188.419 281.162Z" fill="#FF4817"/>
<path d="M188.592 284.866C188.592 285.809 187.42 286.577 185.972 286.577H179.425C177.977 286.577 176.805 285.809 176.805 284.866V281.498C176.805 280.555 177.977 279.788 179.425 279.788H185.972C187.42 279.788 188.592 280.555 188.592 281.498V284.866Z" fill="#FF4817"/>
<path d="M183.831 278.474C181.984 280.644 179.793 282.497 177.345 283.957C177.08 284.095 176.835 284.27 176.617 284.475C174.954 286.065 175.944 288.786 174.172 290.254C171.478 292.457 171.424 286.341 171.599 284.953C171.774 283.752 172.053 282.569 172.435 281.417C173.277 278.714 174.421 276.113 175.843 273.665C177.129 271.563 181.683 265.744 181.683 265.744C183.744 266.269 186.734 270.142 187.125 272.479C187.563 275.167 185.569 276.514 183.831 278.474Z" fill="#E8A273"/>
<path d="M174.172 290.255C171.478 292.457 171.424 286.341 171.599 284.954C171.774 283.753 172.053 282.57 172.435 281.418C172.839 282.194 173.429 282.858 174.152 283.351C174.899 283.871 175.735 284.252 176.617 284.476C174.954 286.065 175.957 288.786 174.172 290.255Z" fill="#C87E53"/>
<path d="M48.6431 169.541C48.5084 169.898 48.3804 170.214 48.2659 170.571C45.8277 177.475 42.0154 183.072 38.715 189.431C35.2462 196.112 40.2439 206.404 40.9512 213.571C42.0288 224.536 38.5129 234.054 39.1056 245.228C39.2538 248.05 39.5165 250.778 39.8735 253.425C40.8266 260.15 42.2651 266.797 44.1775 273.315L28.7935 272.85C28.5847 273.221 15.1272 238.122 13.6925 221.66C13.019 213.578 12.6148 210.809 12.5879 202.875C12.7059 199.664 13.1826 196.476 14.0091 193.371C14.265 192.327 14.5345 191.317 14.8039 190.387C14.9588 189.862 15.107 189.363 15.2552 188.892C16.4002 185.275 16.737 182.493 17.3566 178.479C19.3301 165.648 24.5367 147.058 34.2493 137.244C39.3212 139.265 49.5524 143.131 52.5969 148.344C55.4864 153.274 50.913 163.479 48.6431 169.541Z" fill="#E8A273"/>
<path d="M38.7129 189.424C35.2441 196.106 40.2419 206.398 40.9491 213.564C42.0268 224.53 38.5108 234.047 39.1036 245.221C39.2518 248.043 39.5144 250.771 39.8714 253.418L39.7906 253.081C38.0259 245.821 37.8508 237.913 37.8508 229.979C37.8508 221.222 36.1399 214.184 34.4022 205.913C32.8463 198.557 32.0717 190.381 34.5302 182.938C37.2648 174.673 42.8687 166.315 44.7277 157.787L48.6411 169.527C48.5064 169.884 48.3784 170.201 48.2639 170.558C45.7987 177.475 42.0133 183.072 38.7129 189.424Z" fill="#C87E53"/>
<path d="M23.1681 191.007C20.9185 193.229 17.2678 193.701 14.0078 193.378C14.2638 192.334 14.5332 191.323 14.8026 190.394C17.3284 191.572 20.2045 191.566 23.1681 191.007Z" fill="#C87E53"/>
<path d="M23.2012 190.98H23.2551C23.3628 190.845 23.3449 190.845 23.2012 190.98Z" fill="#C87E53"/>
<path d="M153.798 147.785C153.458 149.959 152.972 152.108 152.344 154.217C151.774 156.118 151.085 157.98 150.282 159.794C149.374 161.822 148.318 163.781 147.124 165.654C142.375 173.063 142.692 198.874 142.072 219.195C142.072 219.296 142.072 219.39 142.072 219.484C142.038 220.475 142.011 221.438 141.971 222.394C141.85 225.62 141.695 228.658 141.479 231.413C141.479 231.723 141.432 232.026 141.405 232.329C141.358 232.888 141.311 233.434 141.257 233.966C141.142 235.077 141.021 236.128 140.88 237.105C140.206 242.109 139.081 245.349 137.317 245.719C134.834 246.263 132.388 246.965 129.995 247.821C124.822 249.565 119.986 251.512 113.904 251.828L112.483 251.862C103.053 252.374 94.6808 253.034 85.736 252.435C83.6278 252.3 81.4859 252.091 79.2901 251.761C78.5662 251.659 77.8488 251.515 77.1415 251.33C70.6417 249.646 62.7477 244.46 57.7297 240.27C55.6484 238.532 55.4598 235.306 55.8909 231.696C55.8909 231.622 55.8909 231.541 55.8909 231.467C55.8878 231.454 55.8878 231.44 55.8909 231.427C55.965 230.847 56.0526 230.255 56.1536 229.662C56.6722 226.53 57.467 223.27 57.7634 220.562C57.8436 219.916 57.8863 219.266 57.8914 218.616C57.8914 201.056 48.4616 179.651 45.3094 162.563C44.683 159.195 43.8478 155.153 42.8779 151.112C41.7254 146.054 40.277 141.068 38.5402 136.18C28.4369 109.237 52.4356 102.899 65.7517 100.158C70.4194 99.2015 73.7737 98.6829 73.9017 97.8746H74.2048C78.3808 98.1979 124.142 101.788 127.267 102.926L128.426 103.351C132.445 104.846 136.386 106.546 140.233 108.443C141.149 108.894 142.011 109.338 142.806 109.79C144.653 110.733 146.411 111.84 148.06 113.097C148.794 113.71 150.868 117.893 152.438 124.089C154.462 131.819 154.925 139.874 153.798 147.785Z" fill="#0C60BC"/>
<path d="M142.063 219.485C142.029 220.475 142.003 221.438 141.962 222.394C141.841 225.621 141.686 228.659 141.47 231.413C141.47 231.723 141.423 232.026 141.396 232.329C141.349 232.888 141.302 233.434 141.248 233.966C141.134 235.077 141.012 236.128 140.871 237.105C140.197 242.109 139.073 245.349 137.308 245.72C134.827 246.264 132.384 246.966 129.993 247.821C121.012 249.852 111.88 251.139 102.687 251.667C94.1721 252.125 85.6363 252.035 77.1327 251.398C70.633 249.714 62.7389 244.527 57.721 240.338C55.6397 238.6 55.4511 235.374 55.8822 231.764C55.8822 231.69 55.8822 231.609 55.8822 231.535C55.879 231.521 55.879 231.507 55.8822 231.494C55.9563 230.915 56.0438 230.322 56.1448 229.729C56.6635 226.597 57.4583 223.337 57.7546 220.63C57.8349 219.984 57.8776 219.334 57.8826 218.683C57.8826 201.124 48.4529 179.718 45.3007 162.63C44.6743 159.262 43.8391 155.221 42.8691 151.18L57.6873 129.869C60.0178 131.478 62.1058 153.093 62.1058 159.33C62.1058 170.78 59.4116 195.702 63.2037 206.081C67.3056 204.909 72.7614 205.286 77.1462 206.182C74.8426 207.186 68.1004 207.623 65.3254 210.452C68.7537 211.059 72.8894 212.325 75.5027 214.117C72.339 213.988 69.1739 214.335 66.1134 215.147C65.1234 217.124 64.8565 219.386 65.359 221.539C90.5297 227.386 118.314 228.456 142.063 219.485Z" fill="#1B3572"/>
<path d="M129.454 47.7758C138.285 40.9056 135.86 59.4485 132.822 63.7794C130.552 67.0327 128.356 65.9213 127.333 61.3614C126.545 57.7511 127.373 49.3991 129.454 47.7758Z" fill="#E8A273"/>
<path d="M129.166 50.827C129.84 49.3856 131.153 47.8162 132.46 48.4022C134.097 49.1364 134.056 52.1 133.612 53.8849C133.814 52.4098 133.612 49.8436 132.19 49.8436C131.113 49.8436 130.318 51.8643 129.644 52.8005C131.322 53.4 132.339 56.2895 132.009 58.5863C131.591 61.6106 129.793 61.3479 128.264 60.2365C128.264 60.2365 128.324 60.1894 128.459 60.2365C129.188 59.7314 129.704 58.9733 129.905 58.1095C130.107 57.2457 129.98 56.3378 129.55 55.5621C129.072 54.5921 128.594 54.6797 128.526 53.4471C128.554 52.5386 128.772 51.6461 129.166 50.827Z" fill="#C87E53"/>
<path d="M127.299 102.96C107.671 130.306 71.4746 99.1139 71.4746 99.1139C71.4746 99.1139 78.4324 96.1234 80.5608 90.5194C81.8338 87.1517 83.0193 85.4408 83.612 81.5949C83.8857 79.8092 84.0678 78.0107 84.1576 76.2064C84.3395 72.2998 86.1783 60.4049 84.1576 58.162L119.512 69.9491C118.704 75.9101 117.344 82.814 118.017 89.0982C118.261 90.9396 118.712 92.7473 119.364 94.4866C121.156 99.4979 125.002 101.397 127.299 102.96Z" fill="#E8A273"/>
<path d="M118.025 89.078C118.268 90.9194 118.72 92.7271 119.372 94.4664C118.429 95.2095 117.405 95.8443 116.32 96.3591C101.711 103.223 89.5468 93.84 83.6465 81.5949C83.9202 79.8092 84.1023 78.0107 84.1921 76.2064C84.3739 72.2998 86.2127 60.4049 84.1921 58.162L119.547 69.9491C118.712 75.8899 117.351 82.8005 118.025 89.078Z" fill="#C87E53"/>
<path d="M125.515 27.8993L125.023 28.1485C129.327 28.2428 130.796 37.4031 130.924 40.4273C131.153 45.4251 131.153 50.5306 131.159 55.5755C132.406 49.1229 141.202 23.5279 125.515 27.8993Z" fill="#4C3431"/>
<path d="M129.091 83.9187C123.851 90.3512 112.124 92.6076 103.792 89.6574C100.257 88.2743 96.9651 86.3372 94.0392 83.9187C91.9033 82.233 89.9055 80.3793 88.0648 78.3754C83.1749 72.987 84.2593 63.0184 84.2593 56.1482C84.2593 51.3727 87.0882 34.3655 83.7676 32.0822L95.5547 23.7369C98.1379 22.0667 100.949 20.7782 103.9 19.9111C110.204 18.0117 120.018 16.6578 125.892 20.4028C132.438 24.5855 132.014 56.5591 130.802 64.4935C130.668 65.3695 130.603 66.2545 130.606 67.1406C130.586 73.445 133.543 78.463 129.091 83.9187Z" fill="#E8A273"/>
<path d="M127.806 17.6683C123.451 13.9469 117.879 11.9572 112.152 12.0778C102.918 12.5695 88.9012 15.6207 82.3206 21.6557C82.3206 21.6557 73.7665 29.0177 84.7522 59.5565C89.2043 54.0266 90.9354 41.8017 91.3799 34.2646C97.8393 30.3445 101.483 27.2731 108.838 26.4514C112.911 25.9858 117.029 26.0787 121.077 26.7276C124.512 27.2934 130.177 29.6036 130.917 33.7729C131.618 29.415 131.389 20.9418 127.806 17.6683Z" fill="#4C3431"/>
<path d="M82.9397 48.2943C71.0515 39.619 73.6985 59.5359 77.686 64.5876C80.6833 68.3864 83.7479 67.5714 85.3173 62.9373C86.5701 59.2598 85.7349 50.3352 82.9397 48.2943Z" fill="#E8A273"/>
<path d="M83.2231 51.541C82.3744 49.9178 80.6097 48.052 78.7844 48.4562C76.5078 48.9613 76.4539 52.0799 76.9928 54.0399C76.7705 52.4503 77.1611 49.7898 79.0942 49.9986C80.5828 50.1872 81.6066 52.457 82.462 53.528C80.1382 53.885 78.6497 56.7678 78.9999 59.233C79.4647 62.4862 81.9366 62.5064 84.0853 61.5837C84.0853 61.5837 84.0044 61.5231 83.8158 61.5837C82.0983 60.4858 81.0745 58.4112 82.4687 56.4849C83.1423 55.5419 83.8158 55.7103 83.9506 54.4238C83.9531 53.4172 83.703 52.4259 83.2231 51.541Z" fill="#C87E53"/>
<path d="M131.535 20.3421C127.756 19.71 123.873 20.3197 120.469 22.0799C120.007 22.3072 119.557 22.559 119.122 22.8342L117.189 23.07L116.825 23.1104L98.336 29.0444C94.5557 30.8782 90.9719 33.0921 87.64 35.6519L87.3437 35.8944C84.9526 37.8679 81.0392 42.8589 80.305 45.4454C78.6481 41.7139 78.0958 35.6317 77.6984 31.3008C77.3145 27.1382 77.3078 21.9856 78.6279 17.8836C79.4362 15.3645 82.3998 11.5455 86.6432 8.09018C97.0226 -0.389838 115.06 -6.72797 127.79 13.2967C128.242 13.9703 128.68 14.7381 129.138 15.5127C129.346 15.8832 129.548 16.2536 129.757 16.6376C130.35 17.8095 130.956 19.0421 131.535 20.3421Z" fill="#0C60BC"/>
<path d="M126 23.2386L112.529 21.7635C109.835 23.3868 107.235 27.5157 103.874 29.3882C100.991 30.9979 97.448 31.5166 94.6797 32.8165C97.0843 34.5341 103.173 33.2274 105.894 32.5202C109.026 31.7052 112.967 30.284 115.439 28.2431C114.576 32.2844 111.121 35.2009 107.888 37.1812C111.599 36.7501 116.254 34.7564 119.406 32.5067C121.487 30.998 127.084 25.9867 126 23.2386Z" fill="#4C3431"/>
<path d="M145.916 37.908C145.946 38.8018 145.837 39.6947 145.593 40.5551H145.539C143.087 41.9022 140.251 43.6804 134.129 39.8815C133.731 34.9983 131.711 28.9094 123.231 26.6597C122.348 26.424 121.48 26.2219 120.638 26.0603C113.754 24.7132 108.136 25.5079 102.748 25.7167L114.037 21.507C116.421 20.8739 118.987 20.3081 121.749 19.8299C124.64 19.4895 127.567 19.6009 130.424 20.1599C137.672 22.0324 144.246 29.2462 145.916 37.908Z" fill="#1B3572"/>
<path d="M129.092 83.9187C123.852 90.3511 112.125 92.6075 103.793 89.6574C100.258 88.2743 96.9661 86.3371 94.0403 83.9187C93.2974 82.6661 92.6944 81.3357 92.2419 79.9515C91.0362 76.2874 88.0659 68.784 95.5558 66.4804C98.4318 65.5846 116.436 62.4391 130.58 67.154C130.587 73.445 133.544 78.4629 129.092 83.9187Z" fill="#705250"/>
<path d="M94.194 43.9029C94.6049 42.1786 95.5411 41.5724 97.7638 41.4108C101.078 41.1616 106.85 40.6699 108.689 42.0237C109.308 44.4755 107.409 47.9847 106.291 47.9981C105.388 47.6344 99.2187 44.6304 97.885 44.8459C96.5514 45.0614 94.4365 45.9909 94.0997 47.5873C93.8288 46.37 93.8612 45.1048 94.194 43.9029Z" fill="#382523"/>
<path d="M125.023 46.0651C120.806 46.4491 119.412 48.9075 118.227 52.6659C118.227 52.6659 122.645 54.855 129.502 52.8815C129.562 49.2174 127.973 45.8025 125.023 46.0651Z" fill="#C87E53"/>
<path d="M129.502 52.8813C128.704 53.1078 127.894 53.2921 127.077 53.4336L126.094 53.575C124.788 53.7339 123.469 53.7497 122.16 53.6222C121.642 53.5735 121.127 53.4971 120.618 53.3932C119.794 53.2476 118.992 53.0033 118.227 52.6657C118.794 51.7365 119.431 50.8516 120.133 50.0187C120.328 49.7964 120.53 49.5809 120.746 49.3451C121.269 48.779 121.905 48.3284 122.612 48.0222C123.32 47.716 124.083 47.5609 124.854 47.5669C125.094 47.5779 125.333 47.6072 125.568 47.6545C126.14 47.7792 126.68 48.0198 127.155 48.3616C127.63 48.7034 128.03 49.139 128.33 49.6415C128.945 50.6264 129.345 51.7306 129.502 52.8813Z" fill="white"/>
<path d="M126.094 53.5751C124.788 53.734 123.469 53.7498 122.16 53.6223C121.642 53.5737 121.127 53.4972 120.618 53.3933C120.301 52.2986 120.137 51.1652 120.133 50.0255C120.328 49.8032 120.53 49.5877 120.746 49.352C121.269 48.7858 121.905 48.3353 122.612 48.0291C123.32 47.7229 124.084 47.5678 124.854 47.5738C125.094 47.5847 125.333 47.614 125.568 47.6613C127.192 48.6649 126.444 52.4907 126.094 53.5751Z" fill="#4C1710"/>
<path d="M125.515 50.6786C125.515 51.4196 125.199 52.0258 124.842 52.0258C124.485 52.0258 124.168 51.4196 124.168 50.6786C124.168 49.9377 124.478 49.3315 124.842 49.3315C125.205 49.3315 125.515 49.9377 125.515 50.6786Z" fill="white"/>
<path d="M99.779 45.5461C104.359 45.9637 105.841 48.631 107.188 52.7195C107.188 52.7195 102.386 55.0971 94.9294 52.9485C94.8351 48.9678 96.5863 45.2498 99.779 45.5461Z" fill="#C87E53"/>
<path d="M107.161 52.72C106.329 53.0849 105.456 53.3494 104.561 53.508C104.007 53.6197 103.447 53.7029 102.884 53.7572H102.844C101.433 53.8865 100.013 53.8661 98.6069 53.6966C98.2566 53.6562 97.8997 53.6023 97.5359 53.5417C97.1722 53.4811 96.9499 53.4407 96.6469 53.3733C96.0878 53.2588 95.5018 53.1106 94.9023 52.9422C95.0808 51.7037 95.5143 50.5157 96.1754 49.4532C96.2158 49.3926 96.2629 49.3185 96.3101 49.2579C96.974 48.2551 98.0038 47.5516 99.1794 47.2979C99.4347 47.2473 99.6938 47.2181 99.954 47.2103C101.119 47.1707 102.267 47.5059 103.227 48.1667C103.647 48.4484 104.039 48.7686 104.399 49.1232C104.635 49.3361 104.86 49.5609 105.073 49.7967C105.845 50.7144 106.543 51.6919 107.161 52.72Z" fill="white"/>
<path d="M103.307 48.7456C103.302 50.4288 103.146 52.1081 102.842 53.7636C101.432 53.8928 100.012 53.8725 98.6054 53.703C98.2552 53.6625 97.8982 53.6087 97.5345 53.548C97.1707 53.4874 96.9485 53.447 96.6454 53.3797C96.4257 52.0188 96.3131 50.6428 96.3086 49.2643C96.9725 48.2614 98.0023 47.558 99.1779 47.3042C99.4333 47.2537 99.6923 47.2244 99.9525 47.2167C101.118 47.177 102.265 47.5122 103.226 48.1731C103.214 48.3674 103.242 48.5621 103.307 48.7456Z" fill="#4C1710"/>
<path d="M97.3008 50.8744C97.3008 51.7096 97.6443 52.3831 98.0619 52.3831C98.4795 52.3831 98.8163 51.7096 98.8163 50.8744C98.8163 50.0392 98.4795 49.3589 98.0619 49.3589C97.6443 49.3589 97.3008 50.0324 97.3008 50.8744Z" fill="white"/>
<path d="M118.773 62.6884C117.681 61.0854 116.557 52.9084 116.078 51.3525C116.078 51.3525 114.59 59.5631 114.805 62.9781C113.519 63.2138 111.734 63.0117 110.596 63.5102C112.273 66.4603 121.716 67.0261 118.773 62.6884Z" fill="#C87E53"/>
<path d="M130.437 41.5051C129.764 39.8683 128.875 39.417 126.989 39.6056C124.167 39.8818 119.236 40.2792 117.943 41.9159C117.876 44.4283 120.112 47.5805 121.055 47.4121C121.728 46.9204 126.356 42.9734 127.514 43.0071C128.673 43.0408 130.619 43.5863 131.192 45.1086C131.195 43.8678 130.938 42.6401 130.437 41.5051Z" fill="#382523"/>
<path d="M126.478 69.6329C125.348 72.0917 123.782 74.3257 121.857 76.2269C119.987 78.0961 117.594 79.3528 114.994 79.8304C111.55 80.1841 108.098 79.2455 105.308 77.1968C103.206 75.4928 101.401 68.9862 101.395 68.7842L101.57 68.9593C103.846 70.495 115.337 71.0136 122.12 70.4209C123.601 70.3557 125.067 70.0906 126.478 69.6329Z" fill="#C87E53"/>
<path d="M121.237 74.8259C121.348 75.325 121.549 75.7997 121.83 76.2269C119.96 78.0961 117.566 79.3528 114.966 79.8304C111.522 80.196 108.066 79.2562 105.281 77.1968C101.522 74.0985 101.374 68.9862 101.367 68.7842L101.542 68.9593C103.819 70.495 115.31 71.0136 122.092 70.4209C121.706 71.1275 121.42 71.8847 121.244 72.6706C121.087 73.3802 121.084 74.1153 121.237 74.8259Z" fill="white"/>
<path d="M121.239 74.8256C116.786 75.3442 107.565 75.1152 104.359 71.734C106.124 72.4884 114.725 73.9298 121.245 72.6702C121.088 73.3799 121.086 74.115 121.239 74.8256Z" fill="#EAD9D8"/>
<path d="M132.222 21.6017C127.952 23.0296 121.27 20.3556 117.209 23.07L116.845 23.1104L98.336 29.0444C94.5557 30.8782 90.9719 33.0922 87.64 35.652L87.3437 35.8944C84.9526 37.8679 81.0392 42.859 80.305 45.4454C78.6481 41.7139 78.0958 35.6317 77.6984 31.3008C77.3145 27.1383 77.3078 21.9856 78.6279 17.8837C79.4362 15.3646 82.3998 11.5455 86.6432 8.09021C85.4443 12.4279 83.491 22.6996 87.8152 25.5083C90.9809 27.5693 101.172 20.6048 104.728 18.9815C110.3 16.3236 116.236 14.5077 122.341 13.5931C124.148 13.3628 125.97 13.2683 127.79 13.3102C128.242 13.9838 128.68 14.7516 129.138 15.5262C129.319 15.8899 132.014 21.2177 132.222 21.6017Z" fill="#1B3572"/>
<path d="M145.917 37.9085C145.947 38.8022 145.837 39.6952 145.594 40.5555H145.54C143.937 32.5133 138.804 26.9027 132.102 25.2457C128.399 24.3869 124.525 24.6352 120.962 25.9597L120.638 26.0809C120.302 26.2156 119.965 26.3638 119.588 26.5389C110.279 30.9911 94.9896 48.2138 87.3516 35.6925H87.3852C88.0049 35.12 95.5891 26.3705 114.038 21.4806C116.422 20.8474 118.988 20.2816 121.75 19.8034C124.641 19.463 127.568 19.5744 130.425 20.1335C137.673 22.0329 144.247 29.2466 145.917 37.9085Z" fill="#0A64D4"/>
<path d="M176.791 184.264L176.347 183.55C168.055 183.449 145.458 192.98 140.46 201.804C139.443 198.901 138.722 194.293 138.015 189.255C136.594 179.051 135.253 167.075 131.684 163.862L142.73 110.793C158.174 116.619 160.027 126.211 162.411 130.703C165.577 136.644 167.126 143.319 168.473 149.731C170.494 159.403 172.07 172.342 175.518 181.341C175.918 182.374 176.342 183.348 176.791 184.264Z" fill="#0C60BC"/>
<path d="M176.792 184.264L176.347 183.55C168.056 183.449 145.458 192.98 140.461 201.804C139.444 198.901 138.723 194.293 138.016 189.255L152.255 131.364C159.387 146.128 147.136 170.739 156.383 184.271C162.263 180.991 168.952 180.674 175.532 181.341C175.923 182.374 176.343 183.348 176.792 184.264Z" fill="#1B3572"/>
<path d="M60.0506 141.029C59.8815 143.193 59.6027 145.347 59.2154 147.482C56.4741 162.26 51.6514 186.077 46.9366 194.631C28.5957 188.447 8.16017 172.983 7.96484 173.205C9.94217 170.344 11.6299 167.294 13.003 164.099C16.593 156.117 19.5028 146.553 22.3856 139.063C24.8441 132.691 27.5989 126.083 31.9635 120.459C35.2639 116.216 38.7798 106.665 56.4606 102.98C56.4606 103.007 61.4988 122.965 60.0506 141.029Z" fill="#0C60BC"/>
<path d="M60.0506 141.029C59.8815 143.192 59.6027 145.346 59.2154 147.481C56.474 162.259 51.6514 186.076 46.9366 194.63C28.5957 188.447 8.16017 172.982 7.96484 173.204C9.94217 170.344 11.6299 167.293 13.003 164.098C14.8418 167.728 16.6065 171.628 20.4121 174.127C26.1171 177.886 34.7183 183.153 41.5549 183.826C54.5005 185.093 57.4036 153.193 59.3434 144.046C59.5387 143.023 59.8351 142.073 60.0506 141.029Z" fill="#1B3572"/>
<path d="M63.0951 400.428L63.1691 400.394H63.0951C62.7313 400.394 62.7313 400.408 63.0951 400.428Z" fill="#B65E0C"/>
<path d="M40.2172 513.921C24.9478 514.743 17.276 515.106 4.77489 513.651C4.35055 512.378 4.82877 509.246 6.50592 506.572C7.2672 505.246 8.36474 504.143 9.68796 503.375C11.0112 502.608 12.5133 502.203 14.043 502.201C16.9793 502.248 19.8748 501.509 22.4287 500.059C29.0228 496.24 30.9356 488.528 30.0937 487.188L36.0951 496.462C36.1153 500.403 40.4799 508.721 40.2172 513.921Z" fill="#2B3238"/>
<path d="M33.9175 506.795C27.9363 506.074 22.6153 504.383 16.2233 504.942C13.3068 505.192 10.5856 505.205 7.77018 506.074C7.33696 506.21 6.91383 506.377 6.50391 506.572C7.26518 505.246 8.36273 504.143 9.68595 503.375C11.0092 502.608 12.5113 502.203 14.041 502.201C16.9773 502.248 19.8728 501.509 22.4267 500.059C22.8106 500.187 23.1945 500.329 23.5717 500.49C26.5488 501.75 32.6445 503.575 33.9175 506.795Z" fill="#191E21"/>
<path d="M121.041 513.921C136.304 514.743 143.982 515.106 156.484 513.651C156.908 512.378 156.43 509.246 154.746 506.572C153.986 505.246 152.89 504.143 151.568 503.375C150.246 502.608 148.744 502.203 147.216 502.201C144.277 502.248 141.379 501.509 138.823 500.059C132.236 496.24 130.323 488.528 131.165 487.188L125.163 496.462C125.136 500.403 120.772 508.721 121.041 513.921Z" fill="#2B3238"/>
<path d="M127.332 506.795C133.32 506.074 138.634 504.383 145.033 504.942C147.949 505.192 150.671 505.205 153.486 506.074C153.918 506.209 154.338 506.376 154.746 506.572C153.986 505.246 152.89 504.143 151.568 503.375C150.245 502.608 148.744 502.203 147.215 502.201C144.277 502.248 141.379 501.509 138.823 500.059C138.446 500.187 138.062 500.329 137.685 500.49C134.707 501.75 128.645 503.575 127.332 506.795Z" fill="#191E21"/>
<path d="M112.4 235.575C112.4 236.458 112.4 237.327 112.4 238.195C112.4 239.751 112.4 241.301 112.36 242.863C112.32 244.311 112.259 245.78 112.165 247.288C111.911 251.165 111.434 255.024 110.737 258.847C110.474 260.328 110.158 261.716 109.794 263.029L109.659 263.508C107.369 271.59 103.543 276.979 100.788 285.445C100.634 285.91 100.485 286.375 100.344 286.853C100.115 287.621 99.8522 288.449 99.5626 289.325C99.017 291.002 98.3636 292.874 97.6295 294.909C97.1378 296.256 96.5989 297.731 96.0332 299.246C94.5177 303.288 92.7732 307.861 90.9007 312.717C79.3762 342.603 63.1638 383.878 67.5891 395.8C71.4351 406.139 67.7507 422.951 61.7696 439.944C60.9344 442.315 60.061 444.682 59.1495 447.044C58.8464 447.832 58.5433 448.613 58.2334 449.401C58.0785 449.792 57.9236 450.182 57.7619 450.573C57.4993 451.247 57.2298 451.92 56.9604 452.594C56.8661 452.816 56.7786 453.038 56.6843 453.267C56.4148 453.941 56.1387 454.614 55.8693 455.241L55.3843 456.393L54.4144 458.642C50.528 467.715 46.5271 476.114 43.321 482.755C43.1863 483.032 43.0583 483.308 42.9236 483.577C42.7889 483.847 42.6609 484.109 42.5329 484.379L42.1557 485.16C42.0345 485.416 41.9133 485.672 41.7853 485.921L41.2532 487.033C41.1926 487.147 41.1319 487.268 41.0781 487.389C40.9636 487.625 40.8491 487.854 40.7413 488.063L40.5729 488.4C40.3574 488.858 40.1418 489.296 39.9398 489.747L39.6434 490.367C39.5895 490.468 39.5424 490.569 39.4952 490.67L39.2191 491.256C39.1719 491.357 39.1248 491.451 39.0843 491.545C39.0439 491.64 38.9092 491.916 38.8217 492.098C38.7341 492.279 38.7341 492.273 38.6937 492.36L38.4579 492.879C38.3771 493.041 38.303 493.202 38.2289 493.364C38.0134 493.842 37.8113 494.28 37.6429 494.671C37.5554 494.873 37.4746 495.061 37.3937 495.236C37.3129 495.411 37.2994 495.465 37.259 495.58L37.131 495.89C37.0704 496.038 37.0233 496.179 36.9761 496.301C36.8797 496.308 36.7829 496.308 36.6865 496.301H36.471H35.6425C35.2182 496.301 34.7467 496.267 34.2482 496.233H34.0799C33.5275 496.193 32.9348 496.146 32.3354 496.078L31.7696 496.018L30.5841 495.876L30.1935 495.816C29.9038 495.782 29.6209 495.735 29.338 495.694L29.0484 495.654L28.8598 495.62L28.4153 495.546H28.294L27.9707 495.492L27.4656 495.398C27.1153 495.331 26.792 495.257 26.4889 495.189H26.3273H26.2869L26.0309 495.129L25.7548 495.055L25.4045 494.94C24.5693 491.478 23.9698 472.713 24.5895 452.23C24.5895 451.354 24.6501 450.472 24.6771 449.583C24.731 448.101 24.7916 446.617 24.8589 445.131C24.9128 443.945 24.9667 442.753 25.0273 441.568C25.0273 440.975 25.0947 440.382 25.1216 439.79C25.1486 439.197 25.1957 438.611 25.2294 438.018C25.2631 437.425 25.3035 436.839 25.3372 436.247L25.4584 434.495C25.4584 433.916 25.5392 433.33 25.5796 432.751C25.62 432.172 25.6672 431.592 25.7143 431.02C25.7817 430.158 25.8558 429.302 25.9299 428.447C25.977 427.881 26.0309 427.322 26.0781 426.763C26.1858 425.645 26.2936 424.534 26.4081 423.449C26.7247 420.445 27.0817 417.562 27.4925 414.855C28.5837 407.56 30.0049 401.525 31.8504 397.8C32.8607 395.739 33.7453 393.719 34.5042 391.738L34.6254 391.435C35.1643 390.021 35.6492 388.633 36.087 387.253C36.5249 385.872 36.8616 384.68 37.1917 383.4C37.6497 381.655 38.0403 379.918 38.3906 378.173C38.8149 376.038 39.1786 373.883 39.5154 371.687C40.3169 366.447 40.9636 360.971 41.9537 354.848C44.6479 338.353 46.7763 303.927 48.8374 281.835C48.9923 280.198 49.1405 278.622 49.2954 277.12L49.4166 275.955C49.6726 273.53 49.9285 271.334 50.1845 269.428C50.3057 268.519 50.427 267.67 50.5482 266.896C50.5954 266.599 50.6425 266.316 50.6964 266.04C51.4912 261.406 52.5486 251.303 53.7745 242.574C53.99 241.065 54.2056 239.59 54.4481 238.202C54.8993 235.4 55.3641 232.908 55.8491 231.015H55.9029C59.3448 231.851 63.4467 232.598 68.0269 233.231C70.8625 233.622 73.8733 233.972 77.0188 234.282C77.0929 233.992 77.167 233.703 77.2411 233.4C77.9146 230.706 78.6825 227.466 79.4705 223.734L88.4826 225.048L89.3178 225.169L94.0933 223.95L97.845 222.993L100.701 222.266L100.836 222.232L103.442 221.559L112.481 219.275C112.448 220.057 112.427 220.818 112.407 221.565C112.407 222.812 112.36 224.017 112.353 225.182C112.35 225.216 112.35 225.25 112.353 225.283C112.353 226.352 112.353 227.396 112.353 228.415C112.333 230.914 112.374 233.272 112.4 235.575Z" fill="#EE903A"/>
<path d="M61.7683 439.945C52.8774 465.216 38.8675 490.899 36.9748 496.314C34.6982 496.53 27.4845 495.641 25.4032 494.893C24.0561 489.242 23.3017 442.767 27.4912 414.794C27.5941 416.857 27.8712 418.907 28.3197 420.923C31.8019 435.802 48.1423 443.966 61.7683 439.945Z" fill="#B65E0C"/>
<path d="M144.772 419.455C144.772 423.342 144.644 427.538 144.388 431.983C142.832 458.757 137.039 492.253 135.173 496.745C134.806 496.81 134.435 496.855 134.062 496.88C130.794 497.078 127.515 496.991 124.262 496.617C123.972 496.57 123.73 496.53 123.521 496.476C122.41 491 112.313 464.341 107.194 438.786C103.752 421.604 102.917 405.109 107.868 395.531C116.388 379.042 106.561 334.184 98.0001 296.424L97.6566 294.916C92.5578 272.473 88.0113 252.731 88.2269 243.254C88.4828 230.221 86.7989 236.882 88.4693 225.297C88.4656 225.266 88.4656 225.234 88.4693 225.203C88.4693 225.156 88.4693 225.115 88.4693 225.068C88.7253 223.31 88.961 221.465 89.1833 219.505L97.7913 223H97.8317L100.27 223.99L106.689 226.597L111.242 228.443L112.333 228.409L140.097 227.614C138.561 229.163 142.845 234.417 143.337 237.488C143.492 238.458 143.606 239.671 143.687 241.065C144.219 250.145 143.337 266.835 143.492 273.214C143.492 273.476 143.492 273.759 143.492 274.056C143.492 274.817 143.492 275.645 143.492 276.541C143.492 276.763 143.492 276.992 143.492 277.215C143.492 278.912 143.397 280.825 143.31 282.913C143.236 284.698 143.142 286.617 143.027 288.631C141.855 310.185 138.986 343.559 139.215 359.799C139.302 365.793 139.147 371.148 139.215 376.301C139.215 378.456 139.269 380.578 139.383 382.7C139.477 384.424 139.612 386.148 139.807 387.886C139.888 388.613 139.976 389.341 140.084 390.068C140.306 391.631 140.582 393.214 140.926 394.823C141.027 395.308 141.134 395.793 141.249 396.285C141.72 398.306 142.3 400.326 143.007 402.462C144.219 406.287 144.751 412.295 144.772 419.455Z" fill="#EE903A"/>
<path d="M86.1035 155.975C87.0667 179.657 83.1399 205.953 79.6038 222.98C79.5499 223.236 76.7681 235.138 76.6603 235.528C75.7308 238.943 75.0169 240.964 74.707 241.153L79.2939 241.361L80.641 241.422L112.412 242.863L116.898 243.072L142.116 244.21C142.125 243.839 142.198 243.472 142.332 243.126C142.412 242.85 142.514 242.533 142.628 242.183C142.904 241.301 143.302 240.196 143.699 238.957C144.373 236.936 152.038 216.258 154.361 151.658C124.307 149.112 89.5386 155.207 86.1035 155.975Z" fill="#EE903A"/>
<path d="M144.005 244.514L143.54 244.595L142.193 244.824C133.494 246.156 124.721 246.945 115.924 247.188L112.193 247.289C109.761 247.343 107.478 247.363 105.336 247.363C102.197 247.363 99.4561 247.316 97.2535 247.262C91.9123 247.127 86.1871 246.844 80.4686 246.386C74.2517 245.888 68.0416 245.187 62.3433 244.258C59.3124 243.766 56.4296 243.207 53.7623 242.581L53.439 242.506L53.2773 242.466C53.2773 242.385 53.2773 242.304 53.2773 242.224L53.7151 240.385C54.254 237.132 55.0623 233.744 55.3923 230.955L55.783 231.056H55.9042C59.346 231.891 63.448 232.639 68.0281 233.272C70.8638 233.663 73.8746 234.013 77.02 234.323C88.7885 235.43 100.611 235.857 112.429 235.603C123.441 235.367 134.117 234.491 142.941 232.828H142.994L143.372 232.753C144.294 232.572 145.204 232.39 146.066 232.188C145.244 234.491 143.917 242.938 144.005 244.514Z" fill="#B65E0C"/>
<path d="M94.7861 277.868L93.8027 278.063C94.1126 278.016 94.4426 277.949 94.7861 277.868Z" fill="#B65E0C"/>
<path d="M110.34 275.995C109.06 276.742 107.681 277.307 106.245 277.672C105.026 278.009 103.753 278.265 102.466 278.487C100.681 278.797 98.8896 279.04 97.2461 279.343C99.1802 278.862 101.039 278.116 102.769 277.127C104.066 276.445 105.228 275.532 106.198 274.433C106.47 274.098 106.696 273.729 106.871 273.335C107.733 271.213 107.686 251.283 107.935 239.482L110.63 238.916C111.653 250.198 110.791 271.045 110.34 275.995Z" fill="#B65E0C"/>
<path d="M144.388 431.983C142.832 458.757 137.039 492.253 135.173 496.745C134.806 496.81 134.435 496.855 134.062 496.88C130.794 497.078 127.515 496.991 124.262 496.617C123.972 496.57 123.73 496.53 123.521 496.476C122.41 491 112.313 464.341 107.194 438.786C103.752 421.604 102.917 405.109 107.868 395.531C116.388 379.042 106.561 334.184 98 296.424C99.0844 293.643 100.815 285.85 102.472 278.488L102.775 277.14C104.073 276.458 105.234 275.545 106.204 274.446C106.204 275.511 106.204 276.602 106.251 277.713C106.413 286.079 106.891 295.273 107.733 299.765C109.302 308.218 110.764 316.779 112.151 325.299C113.498 333.449 114.394 341.707 115.203 349.857C115.876 356.593 118.139 385.636 115.277 385.778C113.734 399.094 106.238 408.497 113.606 422.048C120.483 434.651 133.166 436.415 144.388 431.983Z" fill="#B65E0C"/>
<path d="M140.864 394.81C133.973 395.207 126.046 393.18 121.775 389.058C126.82 391.233 134.014 391.422 140.022 390.054C140.244 391.617 140.52 393.2 140.864 394.81Z" fill="#B65E0C"/>
<path d="M50.8624 385.616C47.1915 389.186 40.7591 391.18 34.623 391.402C35.1619 389.988 35.6468 388.6 36.0847 387.219C41.2373 387.846 46.7604 387.388 50.8624 385.616Z" fill="#B65E0C"/>
<path d="M68.9174 273.57C65.2264 277.672 56.8609 278.103 49.2969 277.127L49.4181 275.961C49.6741 273.537 49.93 271.341 50.186 269.435C50.3072 268.525 50.4284 267.677 50.5497 266.902C50.5968 266.606 50.644 266.323 50.6979 266.047C51.4927 261.413 52.5501 251.309 53.776 242.58C53.9915 241.071 54.2071 239.596 54.4495 238.209L76.9125 239.812C76.9327 248.912 75.2623 266.532 68.9174 273.57Z" fill="#B65E0C"/>
<path d="M143.463 274.035C143.463 274.797 143.463 275.625 143.463 276.521C143.463 276.743 143.463 276.972 143.463 277.194C142.701 276.743 142.009 276.183 141.409 275.531C135.058 268.485 133.394 250.865 133.434 241.766L143.659 241.038C144.191 250.118 143.309 266.808 143.463 273.187C143.463 273.456 143.463 273.739 143.463 274.035Z" fill="#B65E0C"/>
<path d="M95.9726 159.794H87.89C87.8493 156.712 87.6018 153.636 87.1491 150.586C86.947 149.199 86.7113 147.825 86.4418 146.464C86.445 146.422 86.445 146.379 86.4418 146.336C85.8895 143.541 85.2092 140.813 84.4549 138.193L84.2528 137.52C83.8419 136.139 83.4109 134.792 82.9731 133.478C81.9762 130.501 80.912 127.719 79.8747 125.22C74.8904 113.211 69.273 104.388 65.8379 100.191C70.5056 99.2349 73.8599 98.7162 73.9879 97.908H74.291C79.5184 105.468 83.9002 113.579 87.3579 122.095C88.5164 124.884 89.7086 128.002 90.8199 131.363C91.2173 132.569 91.608 133.802 91.9784 135.061L92.1805 135.735C92.9686 138.429 93.6825 141.285 94.2753 144.188C94.3089 144.363 94.3426 144.538 94.383 144.713C94.639 146.02 94.8747 147.347 95.0566 148.68C95.6306 152.358 95.9368 156.072 95.9726 159.794Z" fill="#EE903A"/>
<path d="M88.1363 135.018L87.1015 135.294C84.5602 135.971 83.0489 138.58 83.7261 141.121L84.3712 143.543C85.0483 146.084 87.6574 147.595 90.1987 146.918L91.2336 146.642C93.7749 145.965 95.2861 143.356 94.609 140.815L93.9639 138.393C93.2867 135.852 90.6776 134.341 88.1363 135.018Z" fill="#0B0E0F"/>
<path d="M92.2743 134.166C92.1302 133.123 91.7476 132.127 91.1562 131.256L82.5819 133.539C82.4985 134.588 82.6599 135.642 83.0534 136.617C86.9668 140.659 87.317 144.7 85.9968 147.664C86.1587 148.791 86.5934 149.861 87.2631 150.782L95.669 148.539C95.7922 147.41 95.6373 146.268 95.2178 145.212C93.1028 144.666 90.0382 139.197 92.2743 134.166Z" fill="#191E21"/>
<path d="M152.618 132.644V133.371C152.55 136.193 152.382 139.11 152.065 142.06C152.065 142.242 152.032 142.417 152.011 142.592C151.863 143.939 151.686 145.273 151.479 146.593C150.923 150.262 150.104 153.886 149.028 157.437L141.309 154.992C142.199 152.042 142.889 149.036 143.376 145.993C143.605 144.613 143.794 143.239 143.949 141.858C143.949 141.817 143.949 141.77 143.949 141.73C144.265 138.901 144.434 136.092 144.508 133.364C144.508 133.122 144.508 132.879 144.508 132.637C144.542 131.195 144.508 129.781 144.508 128.4C144.447 125.255 144.272 122.284 144.036 119.59C143.74 116.121 143.323 112.855 142.838 109.844C144.684 110.787 146.442 111.894 148.091 113.151C148.825 113.764 150.9 117.947 152.469 124.143C152.543 125.632 152.591 127.181 152.611 128.771C152.644 129.997 152.644 131.297 152.618 132.644Z" fill="#EE903A"/>
<path d="M142.935 135.894L142.82 138.397C142.699 141.024 144.731 143.251 147.359 143.372L148.428 143.421C151.056 143.542 153.283 141.51 153.404 138.883L153.519 136.38C153.64 133.753 151.608 131.525 148.98 131.404L147.911 131.355C145.283 131.234 143.056 133.266 142.935 135.894Z" fill="#0B0E0F"/>
<path d="M153.219 131.855C153.398 130.817 153.331 129.751 153.024 128.744L144.167 128.339C143.771 129.315 143.607 130.368 143.688 131.418C146.208 136.422 145.305 140.43 143.163 142.834C142.973 143.961 143.064 145.118 143.426 146.202L152.121 146.599C152.581 145.559 152.778 144.42 152.694 143.286C150.835 142.114 149.562 136.011 153.219 131.855Z" fill="#191E21"/>
<path d="M100.242 163.855C101.468 165.984 101.151 199.661 100.02 205.104C105.623 206.66 131.912 206.309 134.842 206.168C137.772 206.027 143.464 176.424 143.464 164.132V162.219L100.242 163.855Z" fill="#B65E0C"/>
<path d="M103.443 165.412C104.514 166.563 104.238 184.803 103.248 187.747C105.72 187.235 134.986 186.602 137.545 186.527C140.105 186.453 141.189 172.228 141.189 165.56V164.522L103.443 165.412Z" fill="#EE903A"/>
<path d="M128.579 182.351C128.579 182.861 128.428 183.36 128.145 183.784C127.861 184.209 127.458 184.539 126.987 184.735C126.515 184.93 125.997 184.981 125.496 184.881C124.996 184.782 124.536 184.536 124.176 184.175C123.815 183.815 123.569 183.355 123.469 182.854C123.37 182.354 123.421 181.835 123.616 181.364C123.812 180.893 124.142 180.49 124.566 180.206C124.991 179.923 125.489 179.771 126 179.771C126.339 179.771 126.674 179.837 126.988 179.966C127.301 180.095 127.586 180.285 127.826 180.525C128.065 180.765 128.255 181.05 128.385 181.363C128.514 181.676 128.58 182.012 128.579 182.351Z" fill="#B65E0C"/>
<path d="M138.016 273.227C138.312 269.86 135.207 266.633 136.264 263.212L137.113 263.387C141.612 262.296 147.567 261.609 150.436 265.778C152.921 269.395 153.494 275.369 154.592 279.518C155.939 284.678 157.198 289.655 156.074 294.882C155.185 298.991 154.019 307.255 151.056 310.151C145.189 305.275 154.242 293.124 151.945 287.089C151.891 290.106 148.207 308.865 144.623 307.053C142.798 306.124 144.549 292.659 145.122 288.12C144.489 289.952 144.59 303.059 140.777 301.739C137.086 298.802 142.656 286.247 142.326 280.441C142.017 283.358 138.615 292.39 136.264 294.208C131.038 298.304 133.84 291.056 134.48 288.072C135.766 282.172 137.733 276.346 138.016 273.227Z" fill="#7C7976"/>
<path d="M144.065 279.168C142.718 276.056 138.447 274.723 137.74 271.207L138.569 270.964C141.997 267.846 146.894 264.397 151.413 266.687C155.327 268.674 158.681 273.645 161.631 276.791C165.295 280.67 168.771 284.442 170.28 289.588C171.465 293.629 174.388 301.436 173.183 305.396C165.693 303.888 167.828 288.908 162.931 284.678C164.325 287.372 170.057 305.558 166.05 305.713C164.029 305.773 159.092 293.111 157.428 288.874C157.745 290.78 164.11 302.251 160.122 302.911C155.482 302.096 154.384 288.43 151.306 283.465C152.424 286.16 153.757 295.731 152.585 298.439C149.958 304.541 148.948 296.829 148.079 293.905C146.355 288.073 145.311 282.044 144.065 279.168Z" fill="#A3A09D"/>
<path d="M15.4896 288.47L65.1371 311.808C67.2689 312.819 68.9747 314.551 69.953 316.698C70.5991 318.138 71.5603 319.415 72.7658 320.434C73.9712 321.453 75.39 322.188 76.9176 322.585C80.1035 323.414 85.3908 323.259 88.1591 321.521C88.2123 321.486 88.2542 321.437 88.2796 321.379C88.305 321.321 88.3128 321.257 88.3021 321.195C88.2913 321.132 88.2625 321.074 88.2191 321.028C88.1757 320.982 88.1197 320.949 88.0581 320.935L78.8507 318.544C75.5301 317.682 78.6553 305.652 81.9759 306.521L91.1901 308.912C91.2507 308.927 91.3143 308.924 91.3733 308.904C91.4323 308.884 91.4841 308.847 91.5225 308.797C91.561 308.748 91.5844 308.689 91.59 308.627C91.5955 308.565 91.583 308.502 91.5538 308.447C89.9306 305.49 85.2359 302.688 81.848 301.947C79.7347 301.488 77.5311 301.69 75.5368 302.527C74.2332 303.045 72.836 303.287 71.434 303.236C70.0319 303.185 68.6559 302.842 67.3935 302.23L20.878 280.326C18.8737 279.339 17.2398 277.733 16.2171 275.746C15.6924 274.77 14.9716 273.914 14.0999 273.23C13.2282 272.546 12.2246 272.05 11.152 271.772C8.72717 271.139 4.70606 271.274 2.60458 272.581C2.56301 272.605 2.52973 272.642 2.50902 272.685C2.48832 272.729 2.48112 272.778 2.48836 272.826C2.4956 272.873 2.51694 272.918 2.54964 272.953C2.58235 272.989 2.62494 273.014 2.67194 273.025L9.67688 274.85C12.2027 275.524 9.82506 284.651 7.29924 283.997L0.307768 282.172C0.260664 282.161 0.211262 282.163 0.165609 282.179C0.119956 282.196 0.0800336 282.225 0.0507286 282.263C0.0214235 282.302 0.00400755 282.348 0.000612485 282.397C-0.00278258 282.445 0.00798954 282.493 0.0316123 282.536C1.26421 284.785 4.84077 286.914 7.44068 287.473C8.36072 287.676 9.30974 287.712 10.2427 287.581C12.0408 287.364 13.8633 287.672 15.4896 288.47Z" fill="#ADADAD"/>
<path d="M76.2306 303.18H76.1969C70.4717 305.537 68.6397 312.61 70.7613 316.866C71.4126 318.258 72.3878 319.474 73.6054 320.411C74.8229 321.349 76.2474 321.981 77.7595 322.255C80.7569 322.928 85.4178 322.794 88.011 321.46C88.0326 321.451 88.051 321.435 88.064 321.415C88.0769 321.396 88.0838 321.372 88.0838 321.349C88.0838 321.325 88.0769 321.302 88.064 321.282C88.051 321.263 88.0326 321.247 88.011 321.238L79.4771 319.089C79.1032 319.049 78.743 318.926 78.4226 318.729C78.1022 318.532 77.8297 318.266 77.6248 317.951C76.6549 315.977 76.8098 312.852 78.386 309.417C79.4098 307.194 80.1843 305.928 82.7371 306.783L91.2036 308.844C91.2277 308.853 91.2538 308.854 91.2784 308.847C91.3029 308.84 91.3245 308.825 91.3402 308.805C91.3559 308.785 91.3648 308.76 91.3657 308.734C91.3666 308.709 91.3594 308.684 91.3451 308.663C89.6141 305.968 85.4448 303.503 82.3599 302.755C80.3223 302.257 78.1801 302.406 76.2306 303.18Z" fill="#CFD0D1"/>
<path d="M7.353 287.069C11.1316 287.924 13.8662 286.227 15.3817 283.028C18.7495 275.955 12.8627 272.924 10.741 272.493C8.61928 272.062 4.31528 272.022 2.34851 272.938C2.32859 272.943 2.31102 272.955 2.2985 272.972C2.28597 272.988 2.27919 273.008 2.27919 273.029C2.27919 273.049 2.28597 273.069 2.2985 273.086C2.31102 273.102 2.32859 273.114 2.34851 273.12L9.42754 274.844C9.65955 274.867 9.88294 274.944 10.0796 275.069C10.2762 275.194 10.4405 275.364 10.5591 275.565C11.327 277.073 10.8016 280.165 9.88556 282.159C9.07056 283.89 8.0535 284.691 7.0297 284.402L0.294177 282.347C0.274637 282.339 0.252968 282.338 0.232645 282.344C0.212322 282.35 0.194524 282.362 0.1821 282.379C0.169676 282.396 0.163345 282.417 0.164127 282.438C0.164909 282.459 0.172755 282.479 0.186409 282.495C1.53351 284.368 5.15722 286.564 7.353 287.069Z" fill="#CFD0D1"/>
<path d="M21.4768 288.173C20.942 287.922 20.5288 287.469 20.328 286.913C20.1272 286.358 20.1552 285.745 20.4059 285.21C20.6583 284.676 21.1121 284.265 21.6677 284.065C22.2232 283.866 22.8352 283.894 23.3695 284.146L65.1297 303.8C65.3945 303.924 65.6322 304.1 65.8291 304.316C66.026 304.532 66.1783 304.785 66.2771 305.061C66.376 305.336 66.4195 305.628 66.4053 305.92C66.391 306.213 66.3192 306.499 66.1939 306.763C65.9415 307.297 65.4877 307.709 64.9321 307.908C64.3765 308.108 63.7645 308.079 63.2303 307.828L21.4768 288.173Z" fill="#CFD0D1"/>
<path d="M56.8051 297.664C54.9327 297.61 53.0602 298.499 51.511 295.744C51.4706 295.865 51.4302 295.987 51.3965 296.108C50.5546 298.923 50.8913 301.099 50.8038 303.315C50.8038 303.652 50.7634 303.988 50.723 304.318C50.6613 304.78 50.5437 305.232 50.3727 305.665C44.6879 307.046 44.7418 303.941 45.1527 300.277C45.1527 300.432 45.1055 300.594 45.0853 300.755C45.0853 300.924 45.0449 301.079 45.0247 301.227C44.7553 303.187 44.6745 304.19 43.6776 306.164C40.7274 306.979 38.1275 305.908 37.8716 302.567V302.291C37.8716 302.446 37.8716 302.587 37.8716 302.729V302.931C37.8716 303.039 37.8716 303.153 37.8716 303.261C37.7301 304.972 37.1105 305.214 35.0561 304.5C34.6156 304.362 34.2116 304.127 33.8736 303.812C33.5357 303.497 33.2723 303.111 33.1028 302.682C32.7511 301.578 32.5738 300.425 32.5775 299.267C32.5775 299.078 32.5775 298.903 32.5303 298.728C32.5303 298.789 32.5303 298.856 32.5303 298.923C32.552 299.454 32.4166 299.978 32.1411 300.432C31.8655 300.886 31.4621 301.248 30.9815 301.473C30.5009 301.698 29.9645 301.776 29.4395 301.698C28.9146 301.619 28.4246 301.388 28.031 301.031C27.2631 300.243 26.7378 298.822 26.3943 296.869C26.3943 296.761 26.3538 296.653 26.3404 296.546C26.0676 294.99 25.9592 293.409 26.0171 291.831C26.3202 287.405 27.1621 279.983 28.1118 276.292C29.0211 272.762 28.7854 271.543 29.1828 268.048L43.7248 271.085C45.3547 279.895 55.3233 286.321 56.6637 295.973C56.7406 296.534 56.7878 297.098 56.8051 297.664Z" fill="#E8A273"/>
<path d="M56.6651 296C54.6781 296.047 51.4047 294.249 50.1384 293.636C48.5151 298.054 45.7199 301.402 43.8878 295.097C43.2143 300.486 38.1155 298.687 36.8896 294.72C36.5057 299.125 31.8649 297.61 30.996 294.363C30.3629 296.337 28.3759 296.822 26.3418 296.545C26.3418 296.653 26.3418 296.761 26.3957 296.869C26.6603 298.351 27.2166 299.766 28.0324 301.031C28.6128 301.757 29.3918 302.298 30.2745 302.589C31.1571 302.879 32.1052 302.907 33.0032 302.668C33.1727 303.098 33.4361 303.484 33.774 303.798C34.112 304.113 34.516 304.348 34.9565 304.487C36.9772 305.201 37.6507 304.958 37.772 303.247C37.772 303.14 37.772 303.025 37.772 302.917V302.715C37.772 302.574 37.772 302.432 37.772 302.277V302.554C38.0279 305.921 40.6278 306.965 43.578 306.15C44.5816 304.177 44.6624 303.173 44.9251 301.213C44.9251 301.065 44.9251 300.91 44.9857 300.742C44.9857 300.587 45.0261 300.432 45.0531 300.263C44.6422 303.955 44.5883 307.06 50.2731 305.652C50.4441 305.219 50.5617 304.766 50.6233 304.305C50.677 303.973 50.704 303.637 50.7042 303.301C50.7042 301.449 50.2327 299.536 51.2969 296.094C51.2969 295.973 51.371 295.852 51.4114 295.73C52.9606 298.485 54.833 297.596 56.7055 297.65C56.7203 297.1 56.7068 296.549 56.6651 296ZM32.4644 298.896C32.4644 298.829 32.4644 298.761 32.4644 298.701C32.4644 298.876 32.4644 299.051 32.5115 299.24C32.4885 299.126 32.4727 299.012 32.4644 298.896Z" fill="#C87E53"/>
</svg>
