<svg width="13" height="18" viewBox="0 0 13 18" fill="none" xmlns="http://www.w3.org/2000/svg">
<path d="M1.95 0H11.05C12.1266 0 13 0.755859 13 1.6875V16.3125C13 17.2441 12.1266 18 11.05 18H1.95C0.873438 18 0 17.2441 0 16.3125V1.6875C0 0.755859 0.873438 0 1.95 0ZM6.5 16.875C7.21906 16.875 7.8 16.3723 7.8 15.75C7.8 15.1277 7.21906 14.625 6.5 14.625C5.78094 14.625 5.2 15.1277 5.2 15.75C5.2 16.3723 5.78094 16.875 6.5 16.875ZM1.95 13.0781C1.95 13.3102 2.16938 13.5 2.4375 13.5H10.5625C10.8306 13.5 11.05 13.3102 11.05 13.0781V2.10938C11.05 1.87734 10.8306 1.6875 10.5625 1.6875H2.4375C2.16938 1.6875 1.95 1.87734 1.95 2.10938V13.0781Z" fill="#A22D2D"/>
</svg>
