<svg width="19" height="18" viewBox="0 0 19 18" fill="none" xmlns="http://www.w3.org/2000/svg">
<path d="M15.3055 5.4C16.7967 5.4 18.0055 4.19116 18.0055 2.7C18.0055 1.20884 16.7967 0 15.3055 0C13.8143 0 12.6055 1.20884 12.6055 2.7C12.6055 4.19116 13.8143 5.4 15.3055 5.4Z" fill="#1C66C2"/>
<path d="M16.0259 6.67839C16.0079 6.67839 15.9899 6.68739 15.9719 6.68739C15.8819 6.70539 15.7919 6.71439 15.6929 6.73239C15.3149 6.76839 14.9099 6.75039 14.4959 6.66939C14.3879 6.64239 14.2979 6.62439 14.1989 6.58839C13.9019 6.51639 13.6229 6.39939 13.3619 6.24639C13.2539 6.19239 13.1459 6.12039 13.0469 6.05739C12.6149 5.76039 12.2459 5.39139 11.9489 4.95939C11.8859 4.86039 11.8139 4.75239 11.7599 4.64439C11.6069 4.38339 11.4899 4.10439 11.4179 3.80739C11.3819 3.70839 11.3639 3.61839 11.3369 3.51039C11.2559 3.09639 11.2379 2.69139 11.2739 2.31339C11.2919 2.21439 11.3009 2.12439 11.3189 2.03439C11.3189 2.01639 11.3279 1.99839 11.3279 1.98039C11.4359 1.42239 11.0219 0.900391 10.4459 0.900391H4.97386C4.84786 0.900391 4.72186 0.909391 4.60486 0.918391C4.49686 0.927391 4.39786 0.936391 4.28986 0.954391C4.18186 0.963391 4.07386 0.981391 3.97486 0.999391C1.80586 1.31439 0.419859 2.69139 0.104859 4.86939C0.0868593 4.96839 0.0688593 5.07639 0.0598593 5.18439C0.0418593 5.29239 0.0328594 5.39139 0.0238594 5.49939C0.0148594 5.61639 0.00585938 5.74239 0.00585938 5.86839V13.0324C0.00585938 13.1584 0.0148594 13.2844 0.0238594 13.4014C0.0328594 13.5094 0.0418593 13.6084 0.0598593 13.7164C0.0688593 13.8244 0.0868593 13.9324 0.104859 14.0314C0.419859 16.2094 1.80586 17.5864 3.97486 17.9014C4.07386 17.9194 4.18186 17.9374 4.28986 17.9464C4.39786 17.9644 4.49686 17.9734 4.60486 17.9824C4.72186 17.9914 4.84786 18.0004 4.97386 18.0004H12.1379C12.2639 18.0004 12.3899 17.9914 12.5069 17.9824C12.6149 17.9734 12.7139 17.9644 12.8219 17.9464C12.9299 17.9374 13.0379 17.9194 13.1369 17.9014C15.3059 17.5864 16.6919 16.2094 17.0069 14.0314C17.0249 13.9324 17.0429 13.8244 17.0519 13.7164C17.0699 13.6084 17.0789 13.5094 17.0879 13.4014C17.0969 13.2844 17.1059 13.1584 17.1059 13.0324V7.56039C17.1059 6.98439 16.5839 6.57039 16.0259 6.67839ZM4.28086 9.45039H8.78086C9.14986 9.45039 9.45586 9.75639 9.45586 10.1254C9.45586 10.4944 9.14986 10.8004 8.78086 10.8004H4.28086C3.91186 10.8004 3.60586 10.4944 3.60586 10.1254C3.60586 9.75639 3.91186 9.45039 4.28086 9.45039ZM12.3809 14.4004H4.28086C3.91186 14.4004 3.60586 14.0944 3.60586 13.7254C3.60586 13.3564 3.91186 13.0504 4.28086 13.0504H12.3809C12.7499 13.0504 13.0559 13.3564 13.0559 13.7254C13.0559 14.0944 12.7499 14.4004 12.3809 14.4004Z" fill="#1C66C2"/>
</svg>
