<svg width="152" height="122" viewBox="0 0 152 122" fill="none" xmlns="http://www.w3.org/2000/svg">
<g clip-path="url(#clip0_68_1350)">
<path d="M22.9926 53.375C31.3459 53.375 38.1375 46.5363 38.1375 38.125C38.1375 29.7137 31.3459 22.875 22.9926 22.875C14.6393 22.875 7.8478 29.7137 7.8478 38.125C7.8478 46.5363 14.6393 53.375 22.9926 53.375ZM129.006 53.375C137.36 53.375 144.151 46.5363 144.151 38.125C144.151 29.7137 137.36 22.875 129.006 22.875C120.653 22.875 113.862 29.7137 113.862 38.125C113.862 46.5363 120.653 53.375 129.006 53.375ZM136.579 61H121.434C117.269 61 113.507 62.6918 110.762 65.432C120.298 70.698 127.066 80.2055 128.533 91.5H144.151C148.34 91.5 151.724 88.0926 151.724 83.875V76.25C151.724 67.8387 144.932 61 136.579 61ZM75.9995 61C90.6474 61 102.503 49.0621 102.503 34.3125C102.503 19.5629 90.6474 7.625 75.9995 7.625C61.3516 7.625 49.4961 19.5629 49.4961 34.3125C49.4961 49.0621 61.3516 61 75.9995 61ZM94.1733 68.625H92.2092C87.2872 71.0078 81.8208 72.4375 75.9995 72.4375C70.1782 72.4375 64.7356 71.0078 59.7898 68.625H57.8257C42.7756 68.625 30.565 80.9203 30.565 96.075V102.938C30.565 109.252 35.6528 114.375 41.9237 114.375H110.075C116.346 114.375 121.434 109.252 121.434 102.938V96.075C121.434 80.9203 109.223 68.625 94.1733 68.625ZM41.2374 65.432C38.4924 62.6918 34.7299 61 30.565 61H15.4202C7.0669 61 0.275391 67.8387 0.275391 76.25V83.875C0.275391 88.0926 3.65931 91.5 7.8478 91.5H23.4422C24.9331 80.2055 31.7009 70.698 41.2374 65.432Z" fill="#B65E0C"/>
</g>
<defs>
<clipPath id="clip0_68_1350">
<rect width="151.448" height="122" fill="white" transform="translate(0.275391)"/>
</clipPath>
</defs>
</svg>
