<svg width="132" height="122" viewBox="0 0 132 122" fill="none" xmlns="http://www.w3.org/2000/svg">
<g clip-path="url(#clip0_68_1344)">
<path d="M35.5521 33.0709C32.991 33.7473 30.6458 34.9987 28.7209 36.7161C26.7959 38.4334 25.3496 40.5646 24.508 42.9238L0.71875 109.609L4.46474 113.11L42.7432 77.3412C41.9807 75.8495 41.5192 74.2006 41.5192 72.4374C41.5192 66.1205 46.9992 60.9999 53.7593 60.9999C60.5194 60.9999 65.9994 66.1205 65.9994 72.4374C65.9994 78.7542 60.5194 83.8749 53.7593 83.8749C51.8723 83.8749 50.1077 83.4436 48.5114 82.7311L10.2329 118.5L13.9789 122L85.3439 99.7706C87.8688 98.9842 90.1495 97.6327 91.9874 95.8339C93.8252 94.0352 95.1644 91.8438 95.8883 89.4506L106.8 53.3749L74.1595 22.8749L35.5521 33.0709ZM127.695 17.6732L112.367 3.3501C107.585 -1.11768 99.8307 -1.11768 95.0494 3.3501L80.6289 16.8249L113.274 47.3297L127.695 33.8549C132.476 29.3871 132.476 22.1433 127.695 17.6732Z" fill="#B65E0C"/>
</g>
<defs>
<clipPath id="clip0_68_1344">
<rect width="130.561" height="122" fill="white" transform="translate(0.71875)"/>
</clipPath>
</defs>
</svg>
