<svg width="123" height="122" viewBox="0 0 123 122" fill="none" xmlns="http://www.w3.org/2000/svg">
<g clip-path="url(#clip0_68_1338)">
<path d="M86.9167 91.5C85.5685 91.5 84.2756 92.0356 83.3223 92.9889C82.369 93.9422 81.8333 95.2352 81.8333 96.5833V111.833H10.6667V20.3333H25.9167V25.4167C25.9167 26.7649 26.4523 28.0578 27.4056 29.0111C28.3589 29.9644 29.6518 30.5 31 30.5H61.5C62.8482 30.5 64.1411 29.9644 65.0944 29.0111C66.0477 28.0578 66.5833 26.7649 66.5833 25.4167V20.3333H81.8333C81.8333 21.6815 82.369 22.9745 83.3223 23.9278C84.2756 24.8811 85.5685 25.4167 86.9167 25.4167C88.2649 25.4167 89.5577 24.8811 90.5111 23.9278C91.4644 22.9745 92 21.6815 92 20.3333C92 17.637 90.9287 15.051 89.0221 13.1444C87.1155 11.2378 84.5297 10.1667 81.8333 10.1667H65.6479C64.6003 7.20355 62.6628 4.63647 60.1004 2.81662C57.5381 0.996765 54.4762 0.0130284 51.3333 0H41.1667C38.0238 0.0130284 34.9619 0.996765 32.3996 2.81662C29.8372 4.63647 27.8997 7.20355 26.8521 10.1667H10.6667C7.9703 10.1667 5.38452 11.2378 3.4779 13.1444C1.57128 15.051 0.5 17.637 0.5 20.3333V111.833C0.5 114.53 1.57128 117.116 3.4779 119.022C5.38452 120.929 7.9703 122 10.6667 122H81.8333C84.5297 122 87.1155 120.929 89.0221 119.022C90.9287 117.116 92 114.53 92 111.833V96.5833C92 95.2352 91.4644 93.9422 90.5111 92.9889C89.5577 92.0356 88.2649 91.5 86.9167 91.5ZM36.0833 15.25C36.0833 13.9018 36.619 12.6088 37.5723 11.6555C38.5256 10.7022 39.8185 10.1667 41.1667 10.1667H51.3333C52.6815 10.1667 53.9744 10.7022 54.9277 11.6555C55.881 12.6088 56.4167 13.9018 56.4167 15.25V20.3333H36.0833V15.25ZM51.3333 55.9167H25.9167C24.5685 55.9167 23.2756 55.3811 22.3223 54.4278C21.369 53.4745 20.8333 52.1815 20.8333 50.8333C20.8333 49.4851 21.369 48.1922 22.3223 47.2389C23.2756 46.2856 24.5685 45.75 25.9167 45.75H51.3333C52.6815 45.75 53.9744 46.2856 54.9277 47.2389C55.881 48.1922 56.4167 49.4851 56.4167 50.8333C56.4167 52.1815 55.881 53.4745 54.9277 54.4278C53.9744 55.3811 52.6815 55.9167 51.3333 55.9167ZM41.1667 71.1667C41.1667 72.5149 40.631 73.8078 39.6777 74.7611C38.7244 75.7144 37.4315 76.25 36.0833 76.25H25.9167C24.5685 76.25 23.2756 75.7144 22.3223 74.7611C21.369 73.8078 20.8333 72.5149 20.8333 71.1667C20.8333 69.8185 21.369 68.5255 22.3223 67.5722C23.2756 66.6189 24.5685 66.0833 25.9167 66.0833H36.0833C37.4315 66.0833 38.7244 66.6189 39.6777 67.5722C40.631 68.5255 41.1667 69.8185 41.1667 71.1667ZM41.1667 91.5C41.1667 92.8482 40.631 94.1412 39.6777 95.0945C38.7244 96.0478 37.4315 96.5833 36.0833 96.5833H25.9167C24.5685 96.5833 23.2756 96.0478 22.3223 95.0945C21.369 94.1412 20.8333 92.8482 20.8333 91.5C20.8333 90.1518 21.369 88.8588 22.3223 87.9055C23.2756 86.9522 24.5685 86.4167 25.9167 86.4167H36.0833C37.4315 86.4167 38.7244 86.9522 39.6777 87.9055C40.631 88.8588 41.1667 90.1518 41.1667 91.5ZM121.01 37.0727L105.76 21.8227C104.807 20.8698 103.515 20.3344 102.167 20.3344C100.819 20.3344 99.5262 20.8698 98.5729 21.8227L47.7396 72.6561C46.7862 73.6092 46.2503 74.9019 46.25 76.25V91.5C46.25 92.8482 46.7856 94.1412 47.7389 95.0945C48.6923 96.0478 49.9851 96.5833 51.3333 96.5833H66.5833C67.9314 96.583 69.224 96.0473 70.1771 95.0939L121.01 44.2606C121.963 43.3073 122.499 42.0146 122.499 40.6667C122.499 39.3187 121.963 38.026 121.01 37.0727ZM64.4788 86.4167H56.4167V78.3545L102.167 32.6045L110.229 40.6667L64.4788 86.4167Z" fill="#B65E0C"/>
</g>
<defs>
<clipPath id="clip0_68_1338">
<rect width="122" height="122" fill="white" transform="translate(0.5)"/>
</clipPath>
</defs>
</svg>
