<svg width="26" height="27" viewBox="0 0 26 27" fill="none" xmlns="http://www.w3.org/2000/svg">
<g clip-path="url(#clip0_113_263)">
<path d="M8.75332 22.1666C10.3552 22.2202 11.9516 21.9522 13.4482 21.3783C14.9448 20.8044 16.3111 19.9363 17.4665 18.8254C18.6218 17.7145 19.5428 16.3832 20.1749 14.9103C20.807 13.4374 21.1374 11.8527 21.1467 10.2499C21.8808 9.34148 22.4259 8.29543 22.75 7.17328C22.7742 7.08462 22.7722 6.99086 22.7444 6.90328C22.7165 6.81571 22.6639 6.73806 22.5929 6.67968C22.522 6.62129 22.4356 6.58467 22.3443 6.57422C22.253 6.56378 22.1606 6.57994 22.0783 6.62078C21.6943 6.80565 21.2619 6.86537 20.8421 6.79152C20.4223 6.71767 20.0362 6.51396 19.7383 6.20911C19.358 5.79266 18.898 5.45677 18.3855 5.22136C17.873 4.98595 17.3185 4.8558 16.7548 4.83862C16.1911 4.82145 15.6296 4.9176 15.1038 5.12138C14.5779 5.32515 14.0983 5.63241 13.6933 6.02495C13.1389 6.56191 12.7327 7.23318 12.5144 7.97351C12.2961 8.71384 12.2731 9.49806 12.4475 10.2499C8.81832 10.4666 6.32665 8.74411 4.33332 6.38245C4.27343 6.31463 4.1951 6.26572 4.10788 6.24169C4.02066 6.21766 3.92833 6.21954 3.84216 6.24711C3.75599 6.27469 3.67972 6.32676 3.62266 6.39696C3.56559 6.46716 3.53021 6.55246 3.52082 6.64245C3.14108 8.7489 3.41501 10.9211 4.30582 12.8674C5.19663 14.8136 6.66167 16.4406 8.50415 17.5299C7.26876 18.9468 5.53388 19.8317 3.66165 19.9999C3.56135 20.0166 3.46875 20.0642 3.39683 20.136C3.32491 20.2079 3.27725 20.3004 3.26054 20.4007C3.24382 20.501 3.25888 20.604 3.30361 20.6953C3.34834 20.7866 3.4205 20.8617 3.50998 20.9099C5.1388 21.7239 6.93248 22.1538 8.75332 22.1666Z" fill="white"/>
</g>
<defs>
<clipPath id="clip0_113_263">
<rect width="26" height="26" fill="white" transform="translate(0 0.5)"/>
</clipPath>
</defs>
</svg>
