<svg width="61" height="60" viewBox="0 0 61 60" fill="none" xmlns="http://www.w3.org/2000/svg">
<g clip-path="url(#clip0_113_490)">
<path d="M30.5 0.9375C13.9274 0.9375 0.5 13.9453 0.5 30C0.5 46.0547 13.9274 59.0625 30.5 59.0625C47.0726 59.0625 60.5 46.0547 60.5 30C60.5 13.9453 47.0726 0.9375 30.5 0.9375ZM30.5 12.1875C36.379 12.1875 41.1452 16.8047 41.1452 22.5C41.1452 28.1953 36.379 32.8125 30.5 32.8125C24.621 32.8125 19.8548 28.1953 19.8548 22.5C19.8548 16.8047 24.621 12.1875 30.5 12.1875ZM30.5 52.5C23.3992 52.5 17.0363 49.3828 12.7782 44.5078C15.0524 40.3594 19.504 37.5 24.6935 37.5C24.9839 37.5 25.2742 37.5469 25.5524 37.6289C27.125 38.1211 28.7702 38.4375 30.5 38.4375C32.2298 38.4375 33.8871 38.1211 35.4476 37.6289C35.7258 37.5469 36.0161 37.5 36.3064 37.5C41.496 37.5 45.9476 40.3594 48.2218 44.5078C43.9637 49.3828 37.6008 52.5 30.5 52.5Z" fill="#B65E0C"/>
</g>
<defs>
<clipPath id="clip0_113_490">
<rect width="60" height="60" fill="white" transform="translate(0.5)"/>
</clipPath>
</defs>
</svg>
